<?xml version="1.0" encoding="UTF-8"?>
<svg version="1.1" xmlns="http://www.w3.org/2000/svg" width="469" height="376">
<path d="M0 0 C154.77 0 309.54 0 469 0 C469 124.08 469 248.16 469 376 C314.23 376 159.46 376 0 376 C0 251.92 0 127.84 0 0 Z " fill="#933CB0" transform="translate(0,0)"/>
<path d="M0 0 C7.13681456 0.68537259 14.09135131 1.87228044 21.125 3.25 C22.25284912 3.46817383 23.38069824 3.68634766 24.54272461 3.91113281 C33.17605467 5.59857013 41.77489625 7.42601848 50.35009766 9.38769531 C55.89920715 10.63535158 61.33532839 11.47091392 67 12 C65.7213859 15.47918832 64.23575102 18.3504008 62.09375 21.37109375 C61.51955322 22.18594238 60.94535645 23.00079102 60.35375977 23.84033203 C59.74201904 24.69739746 59.13027832 25.55446289 58.5 26.4375 C57.872146 27.32550293 57.24429199 28.21350586 56.59741211 29.12841797 C54.73719798 31.75630562 52.86993408 34.37902263 51 37 C50.49742676 37.70560059 49.99485352 38.41120117 49.47705078 39.13818359 C47.38119939 42.07979448 45.28082652 45.01808794 43.17578125 47.953125 C41.1805867 50.74711378 39.21020488 53.55640474 37.25 56.375 C34.26410001 60.65880901 31.16616799 64.84802879 28 69 C25.25942675 65.72899322 23.81941925 62.41522379 22.3125 58.4375 C21.87550781 57.30183594 21.43851562 56.16617188 20.98828125 54.99609375 C20 52 20 52 20 49 C5.85009711 52.8436778 -8.19159098 56.8997233 -22.11303711 61.50976562 C-23.10440674 61.83525391 -24.09577637 62.16074219 -25.1171875 62.49609375 C-25.98972168 62.78669678 -26.86225586 63.0772998 -27.76123047 63.37670898 C-30 64 -30 64 -33 64 C-26.85488638 70.34995074 -20.32096937 76.32177297 -13.25 81.625 C-5.60656033 87.49214735 -1.26746188 94.46507623 3 103 C3.67779361 110.77098259 2.33965266 118.36876429 1 126 C9.30836354 131.77039839 15.23830014 135.09664428 25.6796875 133.63671875 C26.77539062 133.42660156 27.87109375 133.21648437 29 133 C29.99257813 132.82082031 30.98515625 132.64164063 32.0078125 132.45703125 C33.82272448 132.12084282 35.63547318 131.77266116 37.4453125 131.41015625 C41.33435788 130.78576823 45.06897934 130.87111408 49 131 C46.37358685 133.94158273 43.69505485 135.85823885 40.24609375 137.7421875 C37.32468024 139.37817907 34.47863085 141.12352995 31.625 142.875 C30.01534941 143.86156004 28.40557733 144.8479303 26.79325867 145.8301239 C24.9414438 147.00234653 24.9414438 147.00234653 23.079422 148.49763489 C17.05039941 153.0392742 12.41705999 153.90101626 4.97265625 153.83203125 C3.94369736 153.84014328 2.91473846 153.84825531 1.854599 153.85661316 C-0.30941106 153.86503271 -2.47352809 153.85830824 -4.63745117 153.8371582 C-7.92641482 153.81258283 -11.20948543 153.85731487 -14.49804688 153.90820312 C-33.46850271 153.9903607 -33.46850271 153.9903607 -40.26782227 147.89331055 C-40.83944092 147.26851807 -41.41105957 146.64372559 -42 146 C-42.73726318 145.26370361 -43.47452637 144.52740723 -44.23413086 143.76879883 C-44.81686768 143.18509521 -45.39960449 142.6013916 -46 142 C-42.2318358 141.63927736 -40.42819383 141.72859281 -37.18359375 143.78515625 C-35.35004197 145.30572622 -33.51670927 146.82656039 -31.68359375 148.34765625 C-29.18407978 150.22193494 -29.18407978 150.22193494 -26.59765625 149.9453125 C-23.30508205 148.74711257 -20.14942257 147.33930745 -17 145.8125 C-15.67059492 145.18224525 -14.34116739 144.55203785 -13.01171875 143.921875 C-11.03969178 142.97895942 -9.06905454 142.03329384 -7.10009766 141.08398438 C-5.34053427 140.2372913 -3.57659996 139.39969998 -1.8125 138.5625 C-0.78769531 138.06878906 0.23710937 137.57507813 1.29296875 137.06640625 C4 136 4 136 8 136 C6.31422004 132.62844009 2.57997321 131.82530036 -0.75 130.31640625 C-3 129 -3 129 -4 126 C-6.31 126 -8.62 126 -11 126 C-11.02578125 125.16597656 -11.0515625 124.33195312 -11.078125 123.47265625 C-11.51252479 113.10481264 -11.51252479 113.10481264 -16 104 C-20.01400582 100.88750041 -24.18531266 98.60489578 -29 97 C-28.67 97.66 -28.34 98.32 -28 99 C-27.91657841 100.44848582 -27.89267139 101.90070869 -27.90234375 103.3515625 C-27.90717773 104.62773437 -27.90717773 104.62773437 -27.91210938 105.9296875 C-27.92467773 107.26386719 -27.92467773 107.26386719 -27.9375 108.625 C-27.94201172 109.5221875 -27.94652344 110.419375 -27.95117188 111.34375 C-27.96297409 113.56256648 -27.97943845 115.78125018 -28 118 C-28.33 117.34 -28.66 116.68 -29 116 C-31.0633113 116.62231644 -33.1256169 117.24796785 -35.1875 117.875 C-36.33605469 118.22304687 -37.48460937 118.57109375 -38.66796875 118.9296875 C-42.91732726 120.25911644 -42.91732726 120.25911644 -47 122 C-47.495 123.485 -47.495 123.485 -48 125 C-48.66 125 -49.32 125 -50 125 C-50 125.66 -50 126.32 -50 127 C-50.99 127 -51.98 127 -53 127 C-53 127.66 -53 128.32 -53 129 C-54.65 129 -56.3 129 -58 129 C-58 132.63 -58 136.26 -58 140 C-56.35 140.33 -54.7 140.66 -53 141 C-50.98046875 142.19140625 -50.98046875 142.19140625 -49.1875 143.5625 C-48.58292969 144.01753906 -47.97835937 144.47257813 -47.35546875 144.94140625 C-46.68451172 145.46541016 -46.68451172 145.46541016 -46 146 C-52.97994435 150.65329623 -62.72836236 152.07957035 -71 151 C-73.9375 149.9375 -73.9375 149.9375 -76 148 C-76.35578125 146.83984375 -76.7115625 145.6796875 -77.078125 144.484375 C-78.55108009 140.9711836 -78.55108009 140.9711836 -80.83032227 140.21313477 C-83.1615313 139.7740345 -85.44831862 139.50715282 -87.8125 139.3125 C-93.89367867 138.71572577 -98.16772897 138.12440472 -103 134 C-107.234795 128.66164613 -106.72950258 122.53988285 -106.24121094 116.05712891 C-104.21685416 98.7927259 -93.51209764 74.28616848 -79.8125 63.4375 C-77.24288561 61.59009902 -75.10812712 60.61335546 -72 60 C-71.46375 60.99 -70.9275 61.98 -70.375 63 C-68.29895444 66.33371259 -68.29895444 66.33371259 -64.8125 66.4375 C-62.10254126 66.29921346 -62.10254126 66.29921346 -61 65 C-60.63239269 62.67182036 -60.29758419 60.3381615 -60 58 C-58.9275 57.855625 -57.855 57.71125 -56.75 57.5625 C-55.5125 57.376875 -54.275 57.19125 -53 57 C-52.29617187 56.90460938 -51.59234375 56.80921875 -50.8671875 56.7109375 C-48.85740881 56.17232719 -48.85740881 56.17232719 -48.0234375 54.28515625 C-47.80945313 53.55167969 -47.59546875 52.81820312 -47.375 52.0625 C-47.13652344 51.25941406 -46.89804688 50.45632812 -46.65234375 49.62890625 C-45.77717297 46.10202041 -45.10847728 42.55517408 -44.52734375 38.96875 C-44.35332031 38.3190625 -44.17929688 37.669375 -44 37 C-43.34 36.67 -42.68 36.34 -42 36 C-41.34444881 33.47266765 -41.34444881 33.47266765 -41 31 C-11.9525715 20.95033541 -11.9525715 20.95033541 3 19 C2.7834375 17.96359375 2.566875 16.9271875 2.34375 15.859375 C2.06229463 14.48962552 1.781056 13.11983149 1.5 11.75 C1.35691406 11.06808594 1.21382813 10.38617188 1.06640625 9.68359375 C0.38748951 6.35366879 0 3.41667449 0 0 Z " fill="#FCFCFD" transform="translate(282,52)"/>
<path d="M0 0 C1.01331424 3.63506377 1.09469426 6.36997488 0 10 C-3.45919369 14.17567399 -8.05766116 17.33706398 -12.31640625 20.6484375 C-17.3611283 24.69826077 -20.66385499 29.0278133 -23.1875 34.9375 C-26.30534215 41.64652008 -32.04786933 44.93898933 -38 49 C-39.71986653 50.27626983 -41.42959472 51.56641049 -43.125 52.875 C-43.82882813 53.40867188 -44.53265625 53.94234375 -45.2578125 54.4921875 C-47.24137055 56.07373755 -47.24137055 56.07373755 -49 59 C-49.66 59 -50.32 59 -51 59 C-51.27714844 59.5775 -51.55429688 60.155 -51.83984375 60.75 C-53.32730477 63.63477289 -55.09593345 66.29115112 -56.87890625 69 C-58.00433123 71.00772679 -58.55350843 72.75249188 -59 75 C-59.66 75 -60.32 75 -61 75 C-61.08166849 78.00056084 -61.14081551 80.9988539 -61.1875 84 C-61.21263672 84.83917969 -61.23777344 85.67835938 -61.26367188 86.54296875 C-61.33225846 92.4414154 -60.26961087 96.56723066 -58 102 C-58 102.99 -58 103.98 -58 105 C-57.40703125 105.23460937 -56.8140625 105.46921875 -56.203125 105.7109375 C-53.48906 107.29895425 -52.41506759 108.97602884 -50.75 111.625 C-50.22921875 112.44226563 -49.7084375 113.25953125 -49.171875 114.1015625 C-48.78515625 114.72804688 -48.3984375 115.35453125 -48 116 C-43.71572537 115.34274187 -40.14617849 113.87129442 -36.203125 112.09375 C-35.56888611 111.80898804 -34.93464722 111.52422607 -34.28118896 111.23083496 C-32.94889037 110.63142993 -31.61770862 110.02953693 -30.28759766 109.42529297 C-28.24508363 108.49776743 -26.19906246 107.57836084 -24.15234375 106.66015625 C-18.16944729 104.41964764 -18.16944729 104.41964764 -13 101 C-9.33967515 100.50086479 -7.6134361 100.53512256 -4.62890625 102.796875 C-0.71455135 106.95320284 1.14352932 112.43232354 3.3125 117.625 C3.76689453 118.67429687 4.22128906 119.72359375 4.68945312 120.8046875 C8 128.57078242 8 128.57078242 8 132 C8.66 132 9.32 132 10 132 C12.84964058 138.07841789 14.72805471 142.37579029 13 149 C11.375 149.71484375 11.375 149.71484375 9 150 C6.1875 148.62890625 6.1875 148.62890625 3 146.5625 C2.43474609 146.20140137 1.86949219 145.84030273 1.28710938 145.46826172 C-3.65108214 142.29469092 -8.51161438 138.99611206 -13.34375 135.6640625 C-15.84556018 134.096752 -18.22781584 132.9943704 -21 132 C-21.37125 133.2065625 -21.37125 133.2065625 -21.75 134.4375 C-23.26078647 138.74324143 -25.10188856 142.85364007 -27 147 C-34.24997422 147.28307925 -40.90961228 146.50974035 -48 145 C-48.10957031 146.10214844 -48.21914062 147.20429688 -48.33203125 148.33984375 C-48.74591341 152.37866997 -49.20617917 156.41067073 -49.69238281 160.44140625 C-49.89391922 162.11767731 -50.08882996 163.79476133 -50.27636719 165.47265625 C-50.54602256 167.80020788 -50.86025528 170.11742861 -51.1875 172.4375 C-51.26395752 173.15220459 -51.34041504 173.86690918 -51.41918945 174.60327148 C-51.73046875 176.62109375 -51.73046875 176.62109375 -53 180 C-57.77833329 182.78274166 -61.51663232 183.33571639 -67 183 C-72.83740625 172.83161492 -78.36840325 162.52098011 -82.15625 151.40234375 C-82.91581443 149.23969503 -83.78528202 147.20182343 -84.75 145.125 C-86.78125 140.046875 -86.78125 140.046875 -86 137 C-81.19403897 131.54536396 -75.05351036 128.95238591 -68.4375 126.3125 C-66.6022337 125.56013084 -64.76758107 124.80626273 -62.93359375 124.05078125 C-62.0813623 123.70225098 -61.22913086 123.3537207 -60.35107422 122.99462891 C-57.49255891 121.78532555 -54.74820794 120.44040849 -52 119 C-54.6781037 117.86383479 -57.23161963 116.94327682 -60.0625 116.25 C-71.63681951 112.98285073 -80.23782262 107.03981002 -86.4375 96.8125 C-90.95901554 86.99750286 -90.8639135 75.47837235 -87.6875 65.23828125 C-79.12489919 42.10130243 -56.26543025 26.52847282 -35 16 C-33.56939772 15.24769021 -32.1412041 14.49079042 -30.71484375 13.73046875 C-4.94265172 0 -4.94265172 0 0 0 Z " fill="#A8E8FB" transform="translate(202,99)"/>
<path d="M0 0 C1.87538498 1.26879145 3.71782569 2.5883198 5.515625 3.96484375 C7.95459846 5.68133719 7.95459846 5.68133719 10.84375 5.11328125 C11.56304687 4.87738281 12.28234375 4.64148438 13.0234375 4.3984375 C13.0234375 4.7284375 13.0234375 5.0584375 13.0234375 5.3984375 C13.85480225 5.35017822 14.68616699 5.30191895 15.54272461 5.25219727 C38.50045691 4.18970913 38.50045691 4.18970913 44.21582031 7.77294922 C47.38954961 11.18252445 49.0329382 15.17684794 50.43554688 19.57324219 C51.1701658 21.85397769 52.23746572 23.8981334 53.3359375 26.0234375 C53.91322956 27.4759788 54.47517105 28.93469358 55.0234375 30.3984375 C55.57837891 31.66300781 55.57837891 31.66300781 56.14453125 32.953125 C59.12476955 40.72855641 59.38649826 48.00671033 59.3984375 56.2734375 C59.40004883 57.35560547 59.40166016 58.43777344 59.40332031 59.55273438 C59.25657461 70.07277063 56.57091194 77.41681222 51.0234375 86.3984375 C49.23137203 86.25758954 47.43978833 86.11060049 45.6484375 85.9609375 C44.15183594 85.83912109 44.15183594 85.83912109 42.625 85.71484375 C40.0234375 85.3984375 40.0234375 85.3984375 38.0234375 84.3984375 C37.9937085 83.53061646 37.9937085 83.53061646 37.96337891 82.64526367 C38.38056392 62.64494408 38.38056392 62.64494408 30.8984375 45.0234375 C27.93470142 42.3174176 24.93346369 39.66347948 21.890625 37.046875 C20.19940287 35.55378768 18.59844925 34.01257997 17.0234375 32.3984375 C17.22839844 33.20667969 17.43335938 34.01492187 17.64453125 34.84765625 C17.91394531 35.91628906 18.18335938 36.98492187 18.4609375 38.0859375 C18.72777344 39.14167969 18.99460937 40.19742188 19.26953125 41.28515625 C19.51832031 42.31253906 19.76710938 43.33992188 20.0234375 44.3984375 C20.21421875 45.16800781 20.405 45.93757813 20.6015625 46.73046875 C22.47875923 58.60199995 21.44222325 70.24554332 17.0234375 81.3984375 C16.68828125 82.35878906 16.353125 83.31914062 16.0078125 84.30859375 C14.29038579 89.04514758 13.20188313 91.46691932 9.0234375 94.3984375 C7.9825309 96.03986713 6.97839424 97.70555965 6.0234375 99.3984375 C5.3634375 100.0584375 4.7034375 100.7184375 4.0234375 101.3984375 C-0.10919509 101.05405145 -3.35764454 99.33413781 -6.9765625 97.3984375 C-6.83522751 95.62723947 -6.68833042 93.85648463 -6.5390625 92.0859375 C-6.45785156 91.09980469 -6.37664062 90.11367188 -6.29296875 89.09765625 C-5.9765625 86.3984375 -5.9765625 86.3984375 -4.9765625 83.3984375 C-4.74711257 80.23627044 -4.78675308 77.06811173 -4.7890625 73.8984375 C-4.78841797 73.00092773 -4.78777344 72.10341797 -4.78710938 71.17871094 C-4.83819742 64.75322845 -5.37227536 58.64369817 -6.9765625 52.3984375 C-7.6365625 52.3984375 -8.2965625 52.3984375 -8.9765625 52.3984375 C-9.25628906 51.86476562 -9.53601563 51.33109375 -9.82421875 50.78125 C-13.11989065 44.65617489 -16.92745455 39.04587754 -20.9765625 33.3984375 C-26.21397319 25.91642223 -29.410268 18.54373355 -32.14453125 9.83984375 C-32.74862335 7.4793078 -32.74862335 7.4793078 -33.9765625 6.3984375 C-34.01737033 4.39885386 -34.01910606 2.39798496 -33.9765625 0.3984375 C-32.69072266 0.43324219 -32.69072266 0.43324219 -31.37890625 0.46875 C-21.18352001 0.62966929 -9.41077887 -5.06354244 0 0 Z " fill="#484047" transform="translate(241.9765625,201.6015625)"/>
<path d="M0 0 C7.13681456 0.68537259 14.09135131 1.87228044 21.125 3.25 C22.25284912 3.46817383 23.38069824 3.68634766 24.54272461 3.91113281 C33.17605467 5.59857013 41.77489625 7.42601848 50.35009766 9.38769531 C55.89920715 10.63535158 61.33532839 11.47091392 67 12 C65.7213859 15.47918832 64.23575102 18.3504008 62.09375 21.37109375 C61.51955322 22.18594238 60.94535645 23.00079102 60.35375977 23.84033203 C59.74201904 24.69739746 59.13027832 25.55446289 58.5 26.4375 C57.872146 27.32550293 57.24429199 28.21350586 56.59741211 29.12841797 C54.73719798 31.75630562 52.86993408 34.37902263 51 37 C50.49742676 37.70560059 49.99485352 38.41120117 49.47705078 39.13818359 C47.38119939 42.07979448 45.28082652 45.01808794 43.17578125 47.953125 C41.1805867 50.74711378 39.21020488 53.55640474 37.25 56.375 C34.26410001 60.65880901 31.16616799 64.84802879 28 69 C25.25942675 65.72899322 23.81941925 62.41522379 22.3125 58.4375 C21.87550781 57.30183594 21.43851562 56.16617188 20.98828125 54.99609375 C20 52 20 52 20 49 C5.85009711 52.8436778 -8.19159098 56.8997233 -22.11303711 61.50976562 C-23.10440674 61.83525391 -24.09577637 62.16074219 -25.1171875 62.49609375 C-26.42598877 62.93199829 -26.42598877 62.93199829 -27.76123047 63.37670898 C-30 64 -30 64 -33 64 C-33.495 64.99 -33.495 64.99 -34 66 C-34 65.34 -34 64.68 -34 64 C-34.54140625 63.73445313 -35.0828125 63.46890625 -35.640625 63.1953125 C-38.37525582 61.80988695 -41.06124141 60.34741542 -43.75 58.875 C-44.73484375 58.33617187 -45.7196875 57.79734375 -46.734375 57.2421875 C-47.48203125 56.83226562 -48.2296875 56.42234375 -49 56 C-48.80664062 55.46632812 -48.61328125 54.93265625 -48.4140625 54.3828125 C-46.63071306 49.27996114 -45.39217527 44.30599593 -44.52734375 38.96875 C-44.35332031 38.3190625 -44.17929688 37.669375 -44 37 C-43.01 36.505 -43.01 36.505 -42 36 C-41.34444881 33.47266765 -41.34444881 33.47266765 -41 31 C-11.9525715 20.95033541 -11.9525715 20.95033541 3 19 C2.7834375 17.96359375 2.566875 16.9271875 2.34375 15.859375 C2.06229463 14.48962552 1.781056 13.11983149 1.5 11.75 C1.35691406 11.06808594 1.21382813 10.38617188 1.06640625 9.68359375 C0.38748951 6.35366879 0 3.41667449 0 0 Z " fill="#5ED4FA" transform="translate(282,52)"/>
<path d="M0 0 C1.01331424 3.63506377 1.09469426 6.36997488 0 10 C-3.45919369 14.17567399 -8.05766116 17.33706398 -12.31640625 20.6484375 C-17.3611283 24.69826077 -20.66385499 29.0278133 -23.1875 34.9375 C-26.30534215 41.64652008 -32.04786933 44.93898933 -38 49 C-39.71986653 50.27626983 -41.42959472 51.56641049 -43.125 52.875 C-43.82882813 53.40867188 -44.53265625 53.94234375 -45.2578125 54.4921875 C-47.24137055 56.07373755 -47.24137055 56.07373755 -49 59 C-49.66 59 -50.32 59 -51 59 C-51.27714844 59.5775 -51.55429688 60.155 -51.83984375 60.75 C-53.32730477 63.63477289 -55.09593345 66.29115112 -56.87890625 69 C-58.00433123 71.00772679 -58.55350843 72.75249188 -59 75 C-59.66 75 -60.32 75 -61 75 C-61.08166849 78.00056084 -61.14081551 80.9988539 -61.1875 84 C-61.21263672 84.83917969 -61.23777344 85.67835938 -61.26367188 86.54296875 C-61.33225846 92.4414154 -60.26961087 96.56723066 -58 102 C-58 102.99 -58 103.98 -58 105 C-57.40445313 105.2371875 -56.80890625 105.474375 -56.1953125 105.71875 C-53.51727546 107.28173247 -52.50086573 108.8781851 -50.875 111.5 C-49.34163619 113.94702618 -48.04652463 115.95347537 -46 118 C-52.70875828 120.51578436 -61.10270418 116.17925023 -67.33984375 113.640625 C-77.02311797 109.09815589 -83.35360642 103.50680558 -87.87890625 93.68359375 C-91.76089396 80.92849128 -89.82622859 67.92445604 -83.66015625 56.26171875 C-72.92935577 38.07427123 -53.52767816 25.17301713 -35 16 C-33.56939772 15.24769021 -32.1412041 14.49079042 -30.71484375 13.73046875 C-4.94265172 0 -4.94265172 0 0 0 Z " fill="#5ED4FA" transform="translate(202,99)"/>
<path d="M0 0 C2.9375 0.375 2.9375 0.375 6 1 C6.495 1.99 6.495 1.99 7 3 C9.02463255 3.65213292 9.02463255 3.65213292 11 4 C11 3.34 11 2.68 11 2 C12.0725 2.020625 13.145 2.04125 14.25 2.0625 C17.14790424 2.0142016 19.28612141 1.86844115 22 1 C21.34 1.33 20.68 1.66 20 2 C19.60442673 4.04819049 19.30827251 6.11598887 19.0625 8.1875 C17.53155564 19.01092057 17.53155564 19.01092057 13.25 22.375 C10.1324378 23.2409895 7.21579473 23.12368441 4 23 C4.04125 24.11375 4.0825 25.2275 4.125 26.375 C4 30 4 30 2 32 C-0.875 32.4375 -0.875 32.4375 -4 32 C-6.375 29.625 -6.375 29.625 -8 27 C-8 26.34 -8 25.68 -8 25 C-9.59040361 25.88322033 -11.17204437 26.78222776 -12.75 27.6875 C-13.63171875 28.18636719 -14.5134375 28.68523437 -15.421875 29.19921875 C-20.36598439 32.65260425 -23.08699351 37.58221784 -26 42.75 C-26.53089233 43.67099487 -26.53089233 43.67099487 -27.07250977 44.6105957 C-29.03053434 48.0619138 -30.60776061 51.45565076 -31.9375 55.1875 C-33.03371963 57.85891811 -33.54089978 58.76204146 -36.1328125 60.10546875 C-38.5625 60.875 -38.5625 60.875 -40.87890625 61.3671875 C-43.33709941 62.10057109 -44.26937274 63.16403022 -46 65 C-46.66 65 -47.32 65 -48 65 C-48 65.66 -48 66.32 -48 67 C-49.42070562 67.94713708 -50.84407785 68.89054051 -52.28125 69.8125 C-60.02839235 75.16507107 -64.14161275 82.86292934 -66 92 C-67.18853844 100.91403828 -64.98080262 107.56142141 -60 115 C-57.83923589 117.31575563 -55.5438521 119.1336872 -53 121 C-51.98385556 121.98359061 -50.97908 122.97950877 -50 124 C-51.74294678 124.86846831 -53.49468663 125.71930627 -55.25 126.5625 C-56.22453125 127.03816406 -57.1990625 127.51382813 -58.203125 128.00390625 C-61 129 -61 129 -63.1328125 128.96484375 C-65.86825871 127.55133912 -66.96967118 125.5668535 -68.625 123 C-70.76464003 119.39688097 -70.76464003 119.39688097 -74 117 C-78.71578141 108.44619211 -78.66185888 99.4613269 -78 90 C-77.67 89.01 -77.34 88.02 -77 87 C-76.34 87 -75.68 87 -75 87 C-74.90203125 86.11441406 -74.8040625 85.22882813 -74.703125 84.31640625 C-73.94918161 80.76030661 -72.87567233 78.85336792 -70.75 75.9375 C-69.87601563 74.71353516 -69.87601563 74.71353516 -68.984375 73.46484375 C-64.06580143 67.35535571 -58.17013747 63.03142834 -51.8828125 58.4609375 C-44.23717231 53.03194025 -44.23717231 53.03194025 -39.25 45.3125 C-35.48952069 37.3420817 -28.97809326 31.64509607 -22 26.5 C-18.13553674 23.50778588 -18.13553674 23.50778588 -16.08203125 19.21484375 C-15.84249167 16.74654456 -15.77854008 14.46696047 -16 12 C-16.66 11.67 -17.32 11.34 -18 11 C-14.37 10.01 -10.74 9.02 -7 8 C-6.505 8.99 -6.505 8.99 -6 10 C-6 7.03 -6 4.06 -6 1 C-5.01 1 -4.02 1 -3 1 C-2.505 1.99 -2.505 1.99 -2 3 C-1.34 2.01 -0.68 1.02 0 0 Z " fill="#48A2C2" transform="translate(218,87)"/>
<path d="M0 0 C6.35574159 1.27114832 11.46804651 3.65324233 15.46875 8.94140625 C18.7695268 15.34255554 18.39162572 21.96161558 18 29 C19.670625 28.9071875 19.670625 28.9071875 21.375 28.8125 C23.169375 28.9053125 23.169375 28.9053125 25 29 C25.66 29.99 26.32 30.98 27 32 C29.40485798 33.44422226 29.40485798 33.44422226 32.125 34.6875 C33.03507812 35.12449219 33.94515625 35.56148437 34.8828125 36.01171875 C35.58148438 36.33785156 36.28015625 36.66398437 37 37 C37 37.66 37 38.32 37 39 C36.37996094 39.20753906 35.75992188 39.41507813 35.12109375 39.62890625 C29.36760319 41.63048448 23.82244671 43.91449988 18.3125 46.5 C17.66941895 46.80172119 17.02633789 47.10344238 16.36376953 47.41430664 C12.96406687 49.02568336 9.62599936 50.71961229 6.3125 52.5 C3 54 3 54 1.1015625 53.81640625 C-2.53477773 52.40377594 -5.39213886 49.85642502 -8.46484375 47.49609375 C-11.31868321 45.81193271 -12.76292367 45.87073295 -16 46 C-6.57371159 55.13337463 1.88784472 56.21839204 14.66796875 56.1328125 C15.72935059 56.10993164 16.79073242 56.08705078 17.88427734 56.06347656 C21.1274206 55.99995259 24.36201394 56.02231671 27.60546875 56.0546875 C41.96028333 56.11846718 41.96028333 56.11846718 54.23779297 49.3984375 C54.81932129 48.93695313 55.40084961 48.47546875 56 48 C56.66 48.33 57.32 48.66 58 49 C49.29927315 57.31900907 42.26331187 60.05071264 30.21359253 59.95306396 C27.24434983 59.87812281 24.27987653 59.75310211 21.3125 59.625 C19.28201213 59.57472033 17.25140293 59.52911411 15.22070312 59.48828125 C10.79053899 59.39085757 6.36442102 59.24953363 1.93696594 59.06729126 C0.29215004 59.01014945 -1.35419183 59 -3 59 C-5.78974464 57.32264961 -8.43486609 55.47802132 -11.11328125 53.62890625 C-14.15951964 51.90998689 -16.54507886 51.36233294 -20 51 C-19.34 50.34 -18.68 49.68 -18 49 C-19.26831693 48.18357746 -20.53975931 47.37200895 -21.8125 46.5625 C-22.52019531 46.11003906 -23.22789062 45.65757812 -23.95703125 45.19140625 C-26.08134552 43.85913661 -26.08134552 43.85913661 -29 43 C-29 39.37 -29 35.74 -29 32 C-27.35 32 -25.7 32 -24 32 C-24 31.34 -24 30.68 -24 30 C-23.01 30 -22.02 30 -21 30 C-21 29.34 -21 28.68 -21 28 C-20.34 28 -19.68 28 -19 28 C-18.938125 27.38125 -18.87625 26.7625 -18.8125 26.125 C-18 24 -18 24 -16 22.9375 C-14.515 22.4734375 -14.515 22.4734375 -13 22 C-11.91525391 21.61134766 -11.91525391 21.61134766 -10.80859375 21.21484375 C-6.92061664 19.83771842 -4.19567655 19 0 19 C0 12.73 0 6.46 0 0 Z " fill="#3E91AA" transform="translate(253,149)"/>
<path d="M0 0 C1.200791 3.60237299 0.39928915 4.56378436 -1.09765625 7.875 C-4.92278862 16.88310394 -6.14404515 26.28683232 -5 36 C-3.16586186 40.17710171 -1.16492003 42.16021148 3 44 C6.82411245 44.8036311 10.69977359 45.22092147 14.58203125 45.640625 C20.52903912 46.44666574 20.52903912 46.44666574 23.0546875 49.4140625 C24 52 24 52 24 55 C24.99 55.33 25.98 55.66 27 56 C26.9175 56.969375 26.835 57.93875 26.75 58.9375 C26.7416942 63.05717922 28.14903151 66.05625777 29.91015625 69.72265625 C34 78.2688172 34 78.2688172 34 83 C32.515 82.505 32.515 82.505 31 82 C31 83.98 31 85.96 31 88 C30.67 87.34 30.34 86.68 30 86 C29.34 86 28.68 86 28 86 C27.731875 85.2471875 27.46375 84.494375 27.1875 83.71875 C24.72377511 77.04075884 21.97374787 70.62431947 18.8125 64.25 C18.46767578 63.54681641 18.12285156 62.84363281 17.76757812 62.11914062 C16.08753312 58.41555892 16.08753312 58.41555892 13 56 C8.17225348 55.58228009 5.29299238 56.52770057 1.0625 58.8125 C-0.49984375 59.62847656 -0.49984375 59.62847656 -2.09375 60.4609375 C-3.53234375 61.22277344 -3.53234375 61.22277344 -5 62 C-9.35605115 64.22537396 -12.14507072 65.41045346 -17 64 C-24.22323203 59.69946301 -28.32112141 52.79221254 -31 45 C-32.64111717 35.84761578 -29.61132731 27.68238 -25.1875 19.75 C-17.35574875 9.90436985 -17.35574875 9.90436985 -12 9 C-12 8.34 -12 7.68 -12 7 C-8.32425747 3.54702974 -4.62322782 1.81303052 0 0 Z " fill="#904CB8" transform="translate(182,145)"/>
<path d="M0 0 C5.58199621 1.52479449 10.0255999 4.26442131 14.875 7.3125 C15.63941406 7.78623047 16.40382812 8.25996094 17.19140625 8.74804688 C19.4650281 10.15892767 21.7330803 11.57838073 24 13 C25.52332674 13.95200017 27.04675752 14.9038339 28.5703125 15.85546875 C29.71357824 16.57025401 30.85682203 17.28507438 32 18 C29.25539042 20.74460958 25.95725625 21.88269986 22.4375 23.375 C20.96610638 24.00902304 19.49475185 24.6431368 18.0234375 25.27734375 C17.31928711 25.57882324 16.61513672 25.88030273 15.88964844 26.19091797 C9.40176553 28.96880479 3.00748737 31.92706234 -3.375 34.9375 C-5.58157845 35.97715866 -7.78825329 37.01661145 -9.99511719 38.05566406 C-11.73940396 38.87725457 -13.48304064 39.700225 -15.2265625 40.5234375 C-20.73165329 43.08214167 -26.20220323 45.19412888 -32 47 C-31.29055688 35.42487534 -29.63372308 24.28738465 -27 13 C-19.99564408 13.6258645 -12.99600901 14.28674095 -6 15 C-5.81824219 14.41992188 -5.63648438 13.83984375 -5.44921875 13.2421875 C-3.9581894 8.60852707 -2.31666424 4.30237645 0 0 Z " fill="#449CB9" transform="translate(181,231)"/>
<path d="M0 0 C8.15868343 0.50037757 15.95864909 1.62021008 23.9375 3.375 C25.49803101 3.70999512 25.49803101 3.70999512 27.09008789 4.05175781 C30.06197592 4.69274872 33.0312661 5.34457882 36 6 C36.7734375 6.16854492 37.546875 6.33708984 38.34375 6.51074219 C48.79116823 8.79116823 48.79116823 8.79116823 50 10 C49.47552766 16.6322515 48.28860431 23.05523792 46.9375 29.5625 C46.75123047 30.47580078 46.56496094 31.38910156 46.37304688 32.33007812 C45.91891897 34.55414045 45.461187 36.77739276 45 39 C43.02 39.495 43.02 39.495 41 40 C33 26.85714286 33 26.85714286 33 21 C32.46890625 21.30035156 31.9378125 21.60070312 31.390625 21.91015625 C30.68421875 22.29042969 29.9778125 22.67070312 29.25 23.0625 C28.55390625 23.44535156 27.8578125 23.82820313 27.140625 24.22265625 C24.57483086 25.15439536 23.50099117 25.03863476 21 24 C19.7625 22.700625 19.7625 22.700625 18.5 21.375 C17.675 20.59125 16.85 19.8075 16 19 C10.75582425 19.4749198 7.79790207 24.17349125 4.50976562 27.87109375 C2.97265625 29.5078125 2.97265625 29.5078125 0 32 C-2.62164 31.9345499 -4.11453431 31.88546569 -6 30 C-5.93558115 20.94915172 -5.0967729 7.64515935 0 0 Z " fill="#A6E7FB" transform="translate(318,135)"/>
<path d="M0 0 C0.33 1.32 0.66 2.64 1 4 C2.3303125 3.9071875 2.3303125 3.9071875 3.6875 3.8125 C7.32413369 3.79789505 10.54267078 4.55108824 14.0625 5.4375 C20.02765396 6.90637606 25.77865991 7.49392628 31.90625 7.7890625 C34.69478674 7.97919001 37.27891976 8.38064965 40 9 C38.68 9.33 37.36 9.66 36 10 C35.89042969 11.10214844 35.78085938 12.20429688 35.66796875 13.33984375 C35.25408659 17.37866997 34.79382083 21.41067073 34.30761719 25.44140625 C34.10608078 27.11767731 33.91117004 28.79476133 33.72363281 30.47265625 C33.45397744 32.80020788 33.13974472 35.11742861 32.8125 37.4375 C32.73604248 38.15220459 32.65958496 38.86690918 32.58081055 39.60327148 C32.26953125 41.62109375 32.26953125 41.62109375 31 45 C26.22166671 47.78274166 22.48336768 48.33571639 17 48 C11.16259375 37.83161492 5.63159675 27.52098011 1.84375 16.40234375 C1.08418557 14.23969503 0.21471798 12.20182343 -0.75 10.125 C-1.96478215 7.08804462 -2.4600516 5.22036118 -2 2 C-1.34 1.34 -0.68 0.68 0 0 Z " fill="#5DD5F8" transform="translate(118,234)"/>
<path d="M0 0 C2.2109375 2.0546875 2.2109375 2.0546875 4.375 4.875 C5.14457031 5.8753125 5.91414063 6.875625 6.70703125 7.90625 C7.46371094 8.9271875 8.22039062 9.948125 9 11 C9.70511719 11.9178125 10.41023438 12.835625 11.13671875 13.78125 C16.42336525 20.90160147 16.42336525 20.90160147 16 26 C10.96286251 25.37035781 6.67778109 23.85198397 2 22 C0.50105382 21.43469777 -0.99891291 20.87209254 -2.5 20.3125 C-3.655 19.879375 -4.81 19.44625 -6 19 C-6.66 22.63 -7.32 26.26 -8 30 C-11.96 30 -15.92 30 -20 30 C-19.90460938 31.49273437 -19.80921875 32.98546875 -19.7109375 34.5234375 C-19.59840927 36.47392673 -19.48646003 38.42444943 -19.375 40.375 C-19.27832031 41.85226563 -19.27832031 41.85226563 -19.1796875 43.359375 C-19.128125 44.30039063 -19.0765625 45.24140625 -19.0234375 46.2109375 C-18.97106934 47.08024902 -18.91870117 47.94956055 -18.86474609 48.84521484 C-19 51 -19 51 -21 53 C-23.5625 53.1875 -23.5625 53.1875 -26 53 C-27.69760298 51.30239702 -27.16615006 49.15265545 -27.24072266 46.88183594 C-27.49586655 39.30388875 -28.6149953 32.85304727 -31.2578125 25.671875 C-32.06596787 22.76251568 -32.06823444 21.76558851 -31 19 C-29.36108398 17.44775391 -29.36108398 17.44775391 -27.24609375 15.9765625 C-26.47330078 15.43 -25.70050781 14.8834375 -24.90429688 14.3203125 C-24.09025391 13.76085937 -23.27621094 13.20140625 -22.4375 12.625 C-20.85237219 11.51372285 -19.26773352 10.40174765 -17.68359375 9.2890625 C-16.90097168 8.74797852 -16.11834961 8.20689453 -15.31201172 7.64941406 C-12.41117624 5.57992679 -9.64883421 3.35412113 -6.90649414 1.07958984 C-4.4311138 -0.32214301 -2.80217128 -0.33786456 0 0 Z " fill="#A6E8FB" transform="translate(328,209)"/>
<path d="M0 0 C1.12148438 0.61488281 1.12148438 0.61488281 2.265625 1.2421875 C3.25046875 1.78101563 4.2353125 2.31984375 5.25 2.875 C6.71179688 3.67550781 6.71179688 3.67550781 8.203125 4.4921875 C9.12609375 4.98976562 10.0490625 5.48734375 11 6 C11.64324219 6.39960938 12.28648437 6.79921875 12.94921875 7.2109375 C20.04947125 9.94284418 30.17777876 6.86581954 37.4453125 5.41015625 C41.33435788 4.78576823 45.06897934 4.87111408 49 5 C46.37358685 7.94158273 43.69505485 9.85823885 40.24609375 11.7421875 C37.32468024 13.37817907 34.47863085 15.12352995 31.625 16.875 C30.01534941 17.86156004 28.40557733 18.8479303 26.79325867 19.8301239 C24.9414438 21.00234653 24.9414438 21.00234653 23.079422 22.49763489 C17.05039941 27.0392742 12.41705999 27.90101626 4.97265625 27.83203125 C3.42921791 27.8441993 3.42921791 27.8441993 1.854599 27.85661316 C-0.30941106 27.86503271 -2.47352809 27.85830824 -4.63745117 27.8371582 C-7.92641482 27.81258283 -11.20948543 27.85731487 -14.49804688 27.90820312 C-33.46850271 27.9903607 -33.46850271 27.9903607 -40.26782227 21.89331055 C-40.83944092 21.26851807 -41.41105957 20.64372559 -42 20 C-42.73726318 19.26370361 -43.47452637 18.52740723 -44.23413086 17.76879883 C-44.81686768 17.18509521 -45.39960449 16.6013916 -46 16 C-42.2318358 15.63927736 -40.42819383 15.72859281 -37.18359375 17.78515625 C-35.35004197 19.30572622 -33.51670927 20.82656039 -31.68359375 22.34765625 C-29.18407978 24.22193494 -29.18407978 24.22193494 -26.59765625 23.9453125 C-23.30508205 22.74711257 -20.14942257 21.33930745 -17 19.8125 C-15.67059492 19.18224525 -14.34116739 18.55203785 -13.01171875 17.921875 C-11.03969178 16.97895942 -9.06905454 16.03329384 -7.10009766 15.08398438 C-5.34053427 14.2372913 -3.57659996 13.39969998 -1.8125 12.5625 C-0.78769531 12.06878906 0.23710937 11.57507813 1.29296875 11.06640625 C4 10 4 10 8 10 C6.71502463 7.43004926 5.50087627 7.09565537 2.9375 5.875 C1.83728516 5.34519531 1.83728516 5.34519531 0.71484375 4.8046875 C0.14894531 4.53914062 -0.41695313 4.27359375 -1 4 C-0.67 2.68 -0.34 1.36 0 0 Z " fill="#60CEED" transform="translate(282,178)"/>
<path d="M0 0 C0.495 2.475 0.495 2.475 1 5 C1.928125 5.2165625 1.928125 5.2165625 2.875 5.4375 C5 6 5 6 7 7 C8.32216345 12.06473903 8.69431919 17.39720472 6 22 C1.68627228 23.87199505 -1.4864042 24.3677563 -6 23 C-6 23.66 -6 24.32 -6 25 C-7.65 24.67 -9.3 24.34 -11 24 C-11 23.34 -11 22.68 -11 22 C-12.98 21.67 -14.96 21.34 -17 21 C-17.66 22.32 -18.32 23.64 -19 25 C-19.33 24.01 -19.66 23.02 -20 22 C-20.99 22 -21.98 22 -23 22 C-22.67 24.97 -22.34 27.94 -22 31 C-22.66 31.33 -23.32 31.66 -24 32 C-24 31.01 -24 30.02 -24 29 C-24.99 29 -25.98 29 -27 29 C-27.10957031 28.40832031 -27.21914062 27.81664063 -27.33203125 27.20703125 C-28.27400671 22.51247061 -29.40021866 19.06922296 -32 15 C-33 12.5 -33 12.5 -33 10 C-30.6875 7.1875 -30.6875 7.1875 -28 5 C-27.34 5 -26.68 5 -26 5 C-25.67 3.68 -25.34 2.36 -25 1 C-16.65667456 -0.19190363 -8.40676978 -0.09283549 0 0 Z " fill="#493F46" transform="translate(235,66)"/>
<path d="M0 0 C2.88041867 1.02987682 3.88216918 1.80083133 5.46386719 4.47436523 C5.90375977 5.49216064 6.34365234 6.50995605 6.796875 7.55859375 C7.28027344 8.66654297 7.76367188 9.77449219 8.26171875 10.91601562 C8.75285156 12.07810547 9.24398437 13.24019531 9.75 14.4375 C10.25660156 15.59572266 10.76320312 16.75394531 11.28515625 17.94726562 C15 26.56350025 15 26.56350025 15 30 C15.66 30 16.32 30 17 30 C19.84964058 36.07841789 21.72805471 40.37579029 20 47 C18.375 47.71484375 18.375 47.71484375 16 48 C13.1875 46.62890625 13.1875 46.62890625 10 44.5625 C9.43474609 44.20140137 8.86949219 43.84030273 8.28710938 43.46826172 C3.34891786 40.29469092 -1.51161438 36.99611206 -6.34375 33.6640625 C-8.84556018 32.096752 -11.22781584 30.9943704 -14 30 C-13.46890625 28.96101563 -12.9378125 27.92203125 -12.390625 26.8515625 C-8.91425271 20.00401311 -5.4837617 13.21827893 -2.7890625 6.015625 C-1.97606122 3.93884947 -1.02535299 1.97937708 0 0 Z " fill="#5FD3F8" transform="translate(195,201)"/>
<path d="M0 0 C2.9375 0.375 2.9375 0.375 6 1 C6.33 1.66 6.66 2.32 7 3 C9.02463255 3.65213292 9.02463255 3.65213292 11 4 C11 3.34 11 2.68 11 2 C12.0725 2.020625 13.145 2.04125 14.25 2.0625 C17.14790424 2.0142016 19.28612141 1.86844115 22 1 C21.01 1.495 21.01 1.495 20 2 C19.60442673 4.04819049 19.30827251 6.11598887 19.0625 8.1875 C17.53155564 19.01092057 17.53155564 19.01092057 13.25 22.375 C10.1324378 23.2409895 7.21579473 23.12368441 4 23 C4.04125 24.11375 4.0825 25.2275 4.125 26.375 C4 30 4 30 2 32 C-0.8125 32.5625 -0.8125 32.5625 -4 32 C-6.90805458 29.45545224 -7.8881794 28.55445678 -9 25 C-8.83661352 19.46371212 -7.81917128 14.1282447 -6.41796875 8.77734375 C-5.8076249 6.18195637 -5.9397009 3.65316059 -6 1 C-5.01 1 -4.02 1 -3 1 C-2.67 1.66 -2.34 2.32 -2 3 C-1.34 2.01 -0.68 1.02 0 0 Z " fill="#AD8A83" transform="translate(218,87)"/>
<path d="M0 0 C6.35574159 1.27114832 11.46804651 3.65324233 15.46875 8.94140625 C18.7695268 15.34255554 18.39162572 21.96161558 18 29 C14.901466 30.20258256 11.79541934 31.38440783 8.6875 32.5625 C7.36588867 33.07586914 7.36588867 33.07586914 6.01757812 33.59960938 C5.17001953 33.91865234 4.32246094 34.23769531 3.44921875 34.56640625 C2.27879028 35.01415405 2.27879028 35.01415405 1.0847168 35.47094727 C-1 36 -1 36 -4 35 C-3.14535156 34.65066406 -2.29070312 34.30132812 -1.41015625 33.94140625 C-0.30542969 33.48636719 0.79929688 33.03132813 1.9375 32.5625 C3.03964844 32.11003906 4.14179688 31.65757812 5.27734375 31.19140625 C7.86568916 30.25575392 7.86568916 30.25575392 9 29 C5.30789287 25.68380474 5.30789287 25.68380474 0.55078125 25.109375 C-3.83777944 25.97527935 -7.88092916 27.2525154 -12 29 C-12.99 29 -13.98 29 -15 29 C-15 29.66 -15 30.32 -15 31 C-14.46375 31.268125 -13.9275 31.53625 -13.375 31.8125 C-10.58333333 33.20833333 -7.79166667 34.60416667 -5 36 C-5.33 36.66 -5.66 37.32 -6 38 C-11.4964926 37.48869836 -11.4964926 37.48869836 -14.125 34.9375 C-18.71199817 31.8462621 -23.62544199 32.69141294 -29 33 C-29 32.67 -29 32.34 -29 32 C-27.35 32 -25.7 32 -24 32 C-24 31.34 -24 30.68 -24 30 C-23.01 30 -22.02 30 -21 30 C-21 29.34 -21 28.68 -21 28 C-20.34 28 -19.68 28 -19 28 C-18.938125 27.38125 -18.87625 26.7625 -18.8125 26.125 C-18 24 -18 24 -16 22.9375 C-14.515 22.4734375 -14.515 22.4734375 -13 22 C-11.91525391 21.61134766 -11.91525391 21.61134766 -10.80859375 21.21484375 C-6.92061664 19.83771842 -4.19567655 19 0 19 C0 12.73 0 6.46 0 0 Z " fill="#CBD8E7" transform="translate(253,149)"/>
<path d="M0 0 C1 2 1 2 2 4 C2.474375 4.825 2.94875 5.65 3.4375 6.5 C6.18533491 12.6551502 8 19.24615311 8 26 C8.99 26.33 9.98 26.66 11 27 C11 27.66 11 28.32 11 29 C14.96 28.34 18.92 27.68 23 27 C22.67 28.32 22.34 29.64 22 31 C21.34 31 20.68 31 20 31 C20 31.66 20 32.32 20 33 C19.01 33 18.02 33 17 33 C17 33.66 17 34.32 17 35 C15.35 35 13.7 35 12 35 C12 38.3 12 41.6 12 45 C11.67 45 11.34 45 11 45 C11 41.7 11 38.4 11 35 C10.030625 35.061875 9.06125 35.12375 8.0625 35.1875 C0.34140706 35.15636656 -6.9978206 31.72113872 -13 27 C-15 24 -15 24 -14.8125 21.0625 C-13.97591428 17.90921535 -13.0653613 16.46254617 -11 14 C-10.525625 13.13375 -10.05125 12.2675 -9.5625 11.375 C-7.84554745 8.76523212 -6.70183368 8.35091684 -4 7 C-3.40929986 5.05396726 -3.40929986 5.05396726 -3 3 C-1.4375 1.25 -1.4375 1.25 0 0 Z " fill="#E6E7E7" transform="translate(212,146)"/>
<path d="M0 0 C1.80078125 0.98828125 1.80078125 0.98828125 4.23828125 3.61328125 C6.53960356 6.29962316 6.53960356 6.29962316 9.42578125 5.92578125 C12.0056508 5.00369774 12.0056508 5.00369774 14.80078125 2.98828125 C15.79078125 2.98828125 16.78078125 2.98828125 17.80078125 2.98828125 C21.05721764 9.15225013 23.52479491 15.40244844 25.80078125 21.98828125 C21.0485269 22.11115523 16.83911998 21.7452021 12.203125 20.7109375 C10.98947266 20.44474609 9.77582031 20.17855469 8.52539062 19.90429688 C7.27564453 19.62263672 6.02589844 19.34097656 4.73828125 19.05078125 C2.24764558 18.49887175 -0.24323183 17.94805176 -2.734375 17.3984375 C-3.83144775 17.15230713 -4.92852051 16.90617676 -6.05883789 16.65258789 C-9.09587366 16.01014256 -12.13369377 15.47464828 -15.19921875 14.98828125 C-13.57860842 10.99395344 -10.80582702 8.19269804 -7.82421875 5.17578125 C-7.34210938 4.66080078 -6.86 4.14582031 -6.36328125 3.61523438 C-2.78665297 -0.01484895 -2.78665297 -0.01484895 0 0 Z " fill="#439CBA" transform="translate(333.19921875,153.01171875)"/>
<path d="M0 0 C7.00161879 1.32530641 14.08471413 2.85929989 20 7 C15.98222516 11.13462288 11.59406763 14.53356715 7 18 C6.04609375 18.72445312 5.0921875 19.44890625 4.109375 20.1953125 C3.14515625 20.91460937 2.1809375 21.63390625 1.1875 22.375 C0.29417969 23.04273438 -0.59914063 23.71046875 -1.51953125 24.3984375 C-3.78095692 25.85857061 -5.37267254 26.57129855 -8 27 C-8 27.66 -8 28.32 -8 29 C-10.5 30.625 -10.5 30.625 -13 32 C-14.10087193 24.98194143 -14.09733092 18.09434233 -14 11 C-10.04 11 -6.08 11 -2 11 C-1.7834375 9.1128125 -1.7834375 9.1128125 -1.5625 7.1875 C-1.26251314 4.57332877 -0.84186703 2.52560108 0 0 Z " fill="#459CBA" transform="translate(322,228)"/>
<path d="M0 0 C0 0.99 0 1.98 0 3 C-0.99 3 -1.98 3 -3 3 C-3 3.66 -3 4.32 -3 5 C-5.31 5.66 -7.62 6.32 -10 7 C-0.57371159 16.13337463 7.88784472 17.21839204 20.66796875 17.1328125 C21.72935059 17.10993164 22.79073242 17.08705078 23.88427734 17.06347656 C27.1274206 16.99995259 30.36201394 17.02231671 33.60546875 17.0546875 C47.96028333 17.11846718 47.96028333 17.11846718 60.23779297 10.3984375 C60.81932129 9.93695313 61.40084961 9.47546875 62 9 C62.66 9.33 63.32 9.66 64 10 C55.29927315 18.31900907 48.26331187 21.05071264 36.21359253 20.95306396 C33.24434983 20.87812281 30.27987653 20.75310211 27.3125 20.625 C25.28201213 20.57472033 23.25140293 20.52911411 21.22070312 20.48828125 C16.79053899 20.39085757 12.36442102 20.24953363 7.93696594 20.06729126 C6.29215004 20.01014945 4.64580817 20 3 20 C0.21025536 18.32264961 -2.43486609 16.47802132 -5.11328125 14.62890625 C-8.15951964 12.90998689 -10.54507886 12.36233294 -14 12 C-13.34 11.34 -12.68 10.68 -12 10 C-13.26831693 9.18357746 -14.53975931 8.37200895 -15.8125 7.5625 C-16.52019531 7.11003906 -17.22789062 6.65757812 -17.95703125 6.19140625 C-20.08134552 4.85913661 -20.08134552 4.85913661 -23 4 C-23 0.7 -23 -2.6 -23 -6 C-13.09786168 -7.51049568 -8.31969728 -5.54646485 0 0 Z " fill="#39788A" transform="translate(247,188)"/>
<path d="M0 0 C1.30517578 0.02030273 1.30517578 0.02030273 2.63671875 0.04101562 C4.75808627 0.07598322 6.87912974 0.1297747 9 0.1875 C9 1.5075 9 2.8275 9 4.1875 C8.31035156 4.55101562 7.62070312 4.91453125 6.91015625 5.2890625 C5.97042969 5.79179687 5.03070313 6.29453125 4.0625 6.8125 C3.14597656 7.29976562 2.22945313 7.78703125 1.28515625 8.2890625 C-1.86061318 9.971804 -1.86061318 9.971804 -3.78735352 11.72412109 C-11.14401352 17.72119583 -19.09528501 16.86725306 -28.0625 16.5625 C-29.61127606 16.53235114 -31.1601089 16.50498403 -32.70898438 16.48046875 C-36.47407729 16.41488421 -40.23640161 16.31164813 -44 16.1875 C-40.64042588 13.41512436 -37.96944838 11.58243397 -33.8125 10.25 C-29.16519838 8.66342122 -24.9102418 6.74551007 -20.58203125 4.43359375 C-13.48804484 1.01002088 -7.91494628 -0.23708364 0 0 Z " fill="#F6FDFD" transform="translate(309,186.8125)"/>
<path d="M0 0 C1.8125 0.1875 1.8125 0.1875 4 1 C4.474375 1.825 4.94875 2.65 5.4375 3.5 C6.76251838 6.18785859 6.76251838 6.18785859 9.375 6.875 C12.10938015 7.00520858 14.35566698 6.67997135 17 6 C21.5981327 12.52638189 22.12957943 16.22523442 22 24 C18.51083925 25.74458037 14.81498426 25.43366378 11 25 C4.89828672 22.47515312 0.75473121 18.41648899 -3 13 C-4.1875 9.9375 -4.1875 9.9375 -4 7 C-2.87275524 4.45077218 -1.54694553 2.34385686 0 0 Z " fill="#F8FAFA" transform="translate(229,306)"/>
<path d="M0 0 C2.02951535 1.28796166 4.03501678 2.61558 6 4 C3.44008376 6.01136276 0.95409701 7.62845496 -2 9 C1.465 8.505 1.465 8.505 5 8 C5.99 9.485 5.99 9.485 7 11 C6.51789063 11.44730469 6.03578125 11.89460937 5.5390625 12.35546875 C2.02915402 15.71495258 -0.51301525 18.26868488 -2 23 C-4 25 -4 25 -6.75 25.4375 C-11.20046302 24.83839921 -12.78333782 23.06348779 -16 20 C-15.01 19.67 -14.02 19.34 -13 19 C-13 18.34 -13 17.68 -13 17 C-12.01 17 -11.02 17 -10 17 C-10.185625 16.360625 -10.37125 15.72125 -10.5625 15.0625 C-10.706875 14.381875 -10.85125 13.70125 -11 13 C-10.67 12.67 -10.34 12.34 -10 12 C-10.6496875 11.59007812 -11.299375 11.18015625 -11.96875 10.7578125 C-12.8040625 10.21898437 -13.639375 9.68015625 -14.5 9.125 C-15.3353125 8.59132812 -16.170625 8.05765625 -17.03125 7.5078125 C-17.6809375 7.01023438 -18.330625 6.51265625 -19 6 C-19 5.34 -19 4.68 -19 4 C-16.58732675 3.132758 -14.17095531 2.28103064 -11.75 1.4375 C-11.06808594 1.19064453 -10.38617188 0.94378906 -9.68359375 0.68945312 C-3.31341024 -1.50609556 -3.31341024 -1.50609556 0 0 Z " fill="#2D7187" transform="translate(257,174)"/>
<path d="M0 0 C5.66666667 5.66666667 11.33333333 11.33333333 17 17 C16.2884375 17.37640625 15.576875 17.7528125 14.84375 18.140625 C11.00549387 20.65025401 8.12491366 23.91571371 5.10546875 27.32421875 C3.71875 28.796875 3.71875 28.796875 1 31 C-3.16374269 30.83625731 -3.16374269 30.83625731 -5 29 C-4.93740674 20.20564761 -3.98578294 7.97156589 0 0 Z " fill="#62D0F6" transform="translate(317,136)"/>
<path d="M0 0 C0.99 0.33 1.98 0.66 3 1 C3.268125 1.825 3.53625 2.65 3.8125 3.5 C4.204375 4.325 4.59625 5.15 5 6 C7.94171315 6.78445684 10.65437477 6.98392441 13.6875 7.125 C16 8 16 8 17.8125 11.0625 C19.30583718 15.10625573 19.22483742 18.72808901 19 23 C13.2027383 23.57546348 8.43580823 23.91252431 3.5625 20.375 C-0.27224286 17.02845849 -3.47517537 13.62412316 -4.5 8.5 C-3.81116688 5.05583442 -2.07546548 2.78890674 0 0 Z " fill="#F6F9FA" transform="translate(278,289)"/>
<path d="M0 0 C4.87150047 4.56703169 8.93109214 9.716366 13 15 C13.46277344 15.59554687 13.92554688 16.19109375 14.40234375 16.8046875 C16.69042084 19.94774002 17.45693989 22.11601093 17 26 C11.96047622 25.37005953 7.68022424 23.8437247 3 22 C0.33566143 20.99369884 -2.33214494 19.99696463 -5 19 C-4.35861776 16.01980994 -3.7121269 13.04089324 -3.0625 10.0625 C-2.88009766 9.21236328 -2.69769531 8.36222656 -2.50976562 7.48632812 C-2.33251953 6.67744141 -2.15527344 5.86855469 -1.97265625 5.03515625 C-1.72914429 3.91185913 -1.72914429 3.91185913 -1.48071289 2.76586914 C-1 1 -1 1 0 0 Z " fill="#61D2F6" transform="translate(327,209)"/>
<path d="M0 0 C-0.64036937 6.62613779 -1.70971164 13.04712709 -3.0625 19.5625 C-3.24876953 20.47580078 -3.43503906 21.38910156 -3.62695312 22.33007812 C-4.08108103 24.55414045 -4.538813 26.77739276 -5 29 C-6.32 29.33 -7.64 29.66 -9 30 C-17 16.85714286 -17 16.85714286 -17 11 C-17.66 10.67 -18.32 10.34 -19 10 C-18.45472656 9.78085938 -17.90945313 9.56171875 -17.34765625 9.3359375 C-12.06057121 7.11265046 -7.44499949 4.46489547 -2.75 1.171875 C-1 0 -1 0 0 0 Z " fill="#61D2F8" transform="translate(368,145)"/>
<path d="M0 0 C6.35393969 1.27078794 11.70561703 3.63775261 15.46875 9.15234375 C17.73289308 13.88278554 18.4428747 17.79622223 18 23 C17.401875 22.46375 16.80375 21.9275 16.1875 21.375 C11.16689184 19.20924746 7.2596362 20.79598689 2 22 C1.34 14.74 0.68 7.48 0 0 Z " fill="#8A4FAF" transform="translate(253,149)"/>
<path d="M0 0 C0 0.99 0 1.98 0 3 C-0.99 3 -1.98 3 -3 3 C-3 3.66 -3 4.32 -3 5 C-5.83917223 5.94639074 -7.56413754 6.10653794 -10.5 6.0625 C-11.2734375 6.05347656 -12.046875 6.04445312 -12.84375 6.03515625 C-13.5553125 6.02355469 -14.266875 6.01195312 -15 6 C-15.99 6 -16.98 6 -18 6 C-19.68236471 5.37400383 -21.3523962 4.71247732 -23 4 C-23 0.7 -23 -2.6 -23 -6 C-13.09786168 -7.51049568 -8.31969728 -5.54646485 0 0 Z " fill="#AE8B86" transform="translate(247,188)"/>
<path d="M0 0 C-2.62641315 2.94158273 -5.30494515 4.85823885 -8.75390625 6.7421875 C-11.67531976 8.37817907 -14.52136915 10.12352995 -17.375 11.875 C-18.98790422 12.8635542 -20.60143588 13.85124268 -22.22583008 14.82080078 C-24.063947 15.97937551 -24.063947 15.97937551 -25.7487793 17.58154297 C-33.44376899 24.02496662 -42.59601825 22.66036745 -52.0625 22.375 C-53.8039903 22.34485976 -55.5455309 22.31749112 -57.28710938 22.29296875 C-61.52599496 22.2272991 -65.76243623 22.12400764 -70 22 C-68.94799805 20.49633789 -68.94799805 20.49633789 -67 19 C-63.79223633 18.81811523 -63.79223633 18.81811523 -59.83203125 19.05859375 C-58.37335071 19.12376241 -56.91451694 19.18556972 -55.45556641 19.24438477 C-54.31586395 19.29431076 -54.31586395 19.29431076 -53.15313721 19.34524536 C-38.18544449 19.93518689 -28.7342715 18.94862149 -17 9 C-14.6171875 8.18359375 -14.6171875 8.18359375 -13 8 C-13 6.68 -13 5.36 -13 4 C-17.95 4 -22.9 4 -28 4 C-28 3.67 -28 3.34 -28 3 C-25.02211984 2.49106423 -22.0430746 1.99269364 -19.0625 1.5 C-18.23169922 1.35691406 -17.40089844 1.21382812 -16.54492188 1.06640625 C-10.95396627 0.15270923 -5.66506422 -0.13719631 0 0 Z " fill="#7BD6ED" transform="translate(331,183)"/>
<path d="M0 0 C0.33 0 0.66 0 1 0 C1.25910156 1.16402344 1.51820312 2.32804688 1.78515625 3.52734375 C2.8587044 7.81681538 4.49049636 11.60648624 6.4375 15.5625 C7.04145689 16.81327523 7.64432742 18.06457563 8.24609375 19.31640625 C8.5404834 19.92709961 8.83487305 20.53779297 9.13818359 21.16699219 C10.50626305 24.07677704 11.74675998 27.0393485 13 30 C13.82585107 31.87830761 14.65866793 33.75357546 15.5 35.625 C15.9021875 36.52476562 16.304375 37.42453125 16.71875 38.3515625 C19.41672478 43.95552102 19.41672478 43.95552102 24 48 C21.69 48 19.38 48 17 48 C11.16259375 37.83161492 5.63159675 27.52098011 1.84375 16.40234375 C1.08418557 14.23969503 0.21471798 12.20182343 -0.75 10.125 C-1.96478215 7.08804462 -2.4600516 5.22036118 -2 2 C-1.34 1.34 -0.68 0.68 0 0 Z " fill="#4899BF" transform="translate(118,234)"/>
<path d="M0 0 C2.97 0 5.94 0 9 0 C9.22527296 3.45745022 9.42733544 6.91587025 9.625 10.375 C9.68945312 11.35984375 9.75390625 12.3446875 9.8203125 13.359375 C9.871875 14.30039063 9.9234375 15.24140625 9.9765625 16.2109375 C10.02893066 17.08024902 10.08129883 17.94956055 10.13525391 18.84521484 C10 21 10 21 8 23 C5.4375 23.1875 5.4375 23.1875 3 23 C0.99581594 20.99581594 1.63201975 17.07269064 1.5 14.3125 C1.26187702 9.46625629 0.90343572 4.78068068 0 0 Z " fill="#5FCEEF" transform="translate(299,239)"/>
<path d="M0 0 C6.6 0.33 13.2 0.66 20 1 C20.33 3.64 20.66 6.28 21 9 C21.66 9.33 22.32 9.66 23 10 C17.18698824 11.55013647 10.78531587 11.94819264 5.0625 10 C3 8 3 8 0 0 Z " fill="#E2E0E3" transform="translate(203,192)"/>
<path d="M0 0 C2.02951535 1.28796166 4.03501678 2.61558 6 4 C2.16225557 7.33716907 -2.38151872 9.02065088 -7 11 C-7.99 11.495 -7.99 11.495 -9 12 C-12.49181927 10.15885893 -15.71739341 8.18840439 -19 6 C-19 5.34 -19 4.68 -19 4 C-16.58732675 3.132758 -14.17095531 2.28103064 -11.75 1.4375 C-11.06808594 1.19064453 -10.38617188 0.94378906 -9.68359375 0.68945312 C-3.31341024 -1.50609556 -3.31341024 -1.50609556 0 0 Z " fill="#37849C" transform="translate(257,174)"/>
<path d="M0 0 C0.33 0.66 0.66 1.32 1 2 C2.98636298 2.70626239 4.98848259 3.36893571 7 4 C9.15234375 4.7734375 9.15234375 4.7734375 11 6 C11.609375 8.1640625 11.609375 8.1640625 11.75 10.625 C11.80671875 11.44226563 11.8634375 12.25953125 11.921875 13.1015625 C11.96054688 14.04128906 11.96054688 14.04128906 12 15 C8.24928186 16.82177738 5.99362668 17.36624071 2 16 C-0.47189851 14.05779403 -0.97912836 13.06261493 -2 10 C-2.66 9.34 -3.32 8.68 -4 8 C-2.68 5.36 -1.36 2.72 0 0 Z " fill="#B28885" transform="translate(234,297)"/>
<path d="M0 0 C1.75 1.8125 1.75 1.8125 1.859375 4.92578125 C1.82328125 5.87839844 1.7871875 6.83101562 1.75 7.8125 C-1.348534 9.01508256 -4.45458066 10.19690783 -7.5625 11.375 C-8.88411133 11.88836914 -8.88411133 11.88836914 -10.23242188 12.41210938 C-11.07998047 12.73115234 -11.92753906 13.05019531 -12.80078125 13.37890625 C-13.58106689 13.67740479 -14.36135254 13.97590332 -15.1652832 14.28344727 C-17.25 14.8125 -17.25 14.8125 -20.25 13.8125 C-19.39535156 13.46316406 -18.54070312 13.11382812 -17.66015625 12.75390625 C-16.00306641 12.07134766 -16.00306641 12.07134766 -14.3125 11.375 C-13.21035156 10.92253906 -12.10820312 10.47007812 -10.97265625 10.00390625 C-8.38431084 9.06825392 -8.38431084 9.06825392 -7.25 7.8125 C-11.04692186 4.98688373 -13.43569279 3.24611092 -18.25 3.8125 C-16.79987453 0.91224906 -14.93687091 0.72543145 -11.9375 -0.375 C-10.97199219 -0.73980469 -10.00648438 -1.10460937 -9.01171875 -1.48046875 C-5.22347179 -2.45030284 -3.37621888 -1.7818933 0 0 Z " fill="#62CCF3" transform="translate(269.25,170.1875)"/>
<path d="M0 0 C0.96679688 0.00902344 1.93359375 0.01804688 2.9296875 0.02734375 C3.65414062 0.03894531 4.37859375 0.05054688 5.125 0.0625 C4.3828125 4.8671875 4.3828125 4.8671875 2.0625 6.625 C1.093125 7.099375 0.12375 7.57375 -0.875 8.0625 C-2.23036128 8.7267346 -3.58445868 9.39355233 -4.9375 10.0625 C-5.62714844 10.39894531 -6.31679688 10.73539063 -7.02734375 11.08203125 C-9.00148912 12.05769595 -9.00148912 12.05769595 -11 13.75 C-13.51976543 15.5138358 -15.8581733 15.71967878 -18.875 16.0625 C-13.66392713 10.49496938 -6.81089852 6.16540197 0.125 3.0625 C-5.94145444 2.89514953 -11.53248266 3.51108028 -17.5 4.5625 C-28.33547687 6.45359738 -28.33547687 6.45359738 -32.875 6.0625 C-33.535 5.4025 -34.195 4.7425 -34.875 4.0625 C-34.20968262 3.97685791 -33.54436523 3.89121582 -32.85888672 3.80297852 C-29.82244268 3.4114607 -26.78622075 3.01824546 -23.75 2.625 C-22.70328125 2.49029297 -21.6565625 2.35558594 -20.578125 2.21679688 C-14.52544138 1.43366585 -14.52544138 1.43366585 -8.5 0.46875 C-5.6273245 0.02416927 -2.90481292 -0.03542455 0 0 Z " fill="#7664B8" transform="translate(329.875,180.9375)"/>
<path d="M0 0 C3.375 -0.1875 3.375 -0.1875 7 0 C9.67927341 4.01891012 9.15601248 6.24161923 9 11 C4.82262526 12.59138085 1.46839215 13.21278058 -3 13 C-2.67 9.7 -2.34 6.4 -2 3 C-1.34 3 -0.68 3 0 3 C0 2.01 0 1.02 0 0 Z " fill="#B4897F" transform="translate(271,178)"/>
<path d="M0 0 C0.99 0.33 1.98 0.66 3 1 C2.55720703 1.4125 2.11441406 1.825 1.65820312 2.25 C-2.59317866 6.21382735 -6.83437365 10.18821758 -11.06396484 14.17529297 C-12.61967407 15.64154401 -14.17847964 17.10450945 -15.73828125 18.56640625 C-19.48734861 22.1742658 -21.81030223 25.22247759 -24 30 C-24.95774446 31.28705488 -25.93923254 32.55661513 -26.9375 33.8125 C-29.68104268 37.34379255 -31.4309915 40.86077715 -33.04296875 45.01953125 C-34.07312192 47.15131761 -35.24445112 48.43236902 -37 50 C-36.23757784 46.38944909 -34.87526626 43.14165375 -33.4375 39.75 C-32.98246094 38.67234375 -32.52742188 37.5946875 -32.05859375 36.484375 C-31.70925781 35.66453125 -31.35992187 34.8446875 -31 34 C-30.34 34 -29.68 34 -29 34 C-28.5359375 32.824375 -28.5359375 32.824375 -28.0625 31.625 C-27 29 -27 29 -26 27 C-25.34 27 -24.68 27 -24 27 C-23.9175 26.443125 -23.835 25.88625 -23.75 25.3125 C-22.76104459 22.26322081 -21.15242534 20.34810037 -19 18 C-18.34 18 -17.68 18 -17 18 C-17 17.01 -17 16.02 -17 15 C-16.01 15 -15.02 15 -14 15 C-13.7525 14.443125 -13.505 13.88625 -13.25 13.3125 C-10.86695599 8.90386857 -8.51940967 6.11847328 -4 4 C-2.62913085 2.70529025 -1.28659163 1.37849103 0 0 Z " fill="#A33BBC" transform="translate(49,79)"/>
<path d="M0 0 C1.69772436 3.29231593 3.17976612 6.65225514 4.625 10.0625 C5.07101563 11.10535156 5.51703125 12.14820313 5.9765625 13.22265625 C7 16 7 16 7 19 C6.01 18.67 5.02 18.34 4 18 C4 19.98 4 21.96 4 24 C3.67 23.34 3.34 22.68 3 22 C2.34 22 1.68 22 1 22 C0.49339844 20.67935547 0.49339844 20.67935547 -0.0234375 19.33203125 C-0.46945313 18.17058594 -0.91546875 17.00914062 -1.375 15.8125 C-2.03628906 14.08966797 -2.03628906 14.08966797 -2.7109375 12.33203125 C-3.78852143 9.54664006 -4.8836443 6.77002279 -6 4 C-5.34 4 -4.68 4 -4 4 C-4 4.66 -4 5.32 -4 6 C-2.68 5.67 -1.36 5.34 0 5 C0 3.35 0 1.7 0 0 Z " fill="#864DAF" transform="translate(209,209)"/>
<path d="M0 0 C0.66 0 1.32 0 2 0 C2 0.99 2 1.98 2 3 C1.34 3 0.68 3 0 3 C-0.33 6.3 -0.66 9.6 -1 13 C0.051875 12.67 1.10375 12.34 2.1875 12 C5.38873357 11.16033218 7.7411008 10.80249096 11 11 C11 8.69 11 6.38 11 4 C14.94120709 4.56302958 17.7508723 5.6791945 21 8 C21 8.66 21 9.32 21 10 C12.83073644 13.6671644 5.91208829 14.51007183 -3 14 C-3.34615998 8.34605369 -2.43425238 4.96993194 0 0 Z " fill="#838D91" transform="translate(269,178)"/>
<path d="M0 0 C0.66 0.33 1.32 0.66 2 1 C-5.87218112 8.40911164 -12.09863858 11.93907371 -23.125 11.6875 C-27.9028312 11.52884377 -32.36667516 11.18570727 -37 10 C-39.24707241 9.7801777 -41.49771238 9.59516013 -43.75 9.4375 C-44.92046875 9.35371094 -46.0909375 9.26992187 -47.296875 9.18359375 C-48.63492187 9.09271484 -48.63492187 9.09271484 -50 9 C-50 8.67 -50 8.34 -50 8 C-48.8761792 8.00636475 -47.7523584 8.01272949 -46.59448242 8.01928711 C-42.37634224 8.03384981 -38.15954229 8.00212653 -33.94165039 7.95727539 C-32.12529084 7.94423354 -30.30879829 7.94331078 -28.49243164 7.95532227 C-14.19604407 8.06715801 -14.19604407 8.06715801 -1.8918457 1.40063477 C-1.26753662 0.93842529 -0.64322754 0.47621582 0 0 Z " fill="#4994BA" transform="translate(309,197)"/>
<path d="M0 0 C1.18414294 3.55242882 0.69535532 4.69830562 -0.4375 8.1875 C-0.72496094 9.08855469 -1.01242187 9.98960937 -1.30859375 10.91796875 C-1.53675781 11.60503906 -1.76492188 12.29210937 -2 13 C-2.33 13 -2.66 13 -3 13 C-3.27429625 7.60550707 -3.36055646 4.48074195 0 0 Z M-5 13 C-4.34 13 -3.68 13 -3 13 C-3.13277344 13.55945313 -3.26554688 14.11890625 -3.40234375 14.6953125 C-6.756144 29.92205523 -6.12415601 45.50150962 -6 61 C-8.87526398 58.12473602 -8.4112123 55.82299895 -8.625 51.8125 C-8.69976562 50.51957031 -8.77453125 49.22664063 -8.8515625 47.89453125 C-9.31463701 35.74491844 -7.97870585 24.7836854 -5 13 Z " fill="#A43BBA" transform="translate(11,129)"/>
<path d="M0 0 C5.94 0.99 5.94 0.99 12 2 C12.33 4.64 12.66 7.28 13 10 C5.73584906 11.45283019 5.73584906 11.45283019 2.5625 9.5 C0.59124923 6.34599877 0.282782 3.67616603 0 0 Z " fill="#AE8986" transform="translate(280,286)"/>
<path d="M0 0 C0.66 0.33 1.32 0.66 2 1 C0 4 0 4 -2.5 4.5625 C-5.17362501 5.72480298 -5.17362501 5.72480298 -5.6640625 8.1015625 C-5.97839674 9.86503085 -6.27182147 11.63232336 -6.546875 13.40234375 C-7.39450612 18.26160835 -9.38188501 22.11697859 -12.1875 26.125 C-14.1430162 29.22685328 -14.64024767 30.43290585 -14 34 C-12.6446674 36.53673288 -12.6446674 36.53673288 -11 39 C-8.94743868 43.10512263 -8.82096826 46.43469058 -9 51 C-9.66 51 -10.32 51 -11 51 C-11.10957031 50.34773438 -11.21914063 49.69546875 -11.33203125 49.0234375 C-12.07018734 44.95457713 -12.73452686 41.52073577 -14.625 37.8125 C-16.40915584 34.16309033 -16.5556896 32.02874959 -16 28 C-14.8636699 25.94618857 -13.57848456 24.05785483 -12.2421875 22.12890625 C-10.49586758 19.13599946 -9.94034757 16.17222633 -9.359375 12.78515625 C-9 11 -9 11 -8 10 C-7.76807135 8.48530552 -7.58784762 6.96245438 -7.4375 5.4375 C-7.35371094 4.61121094 -7.26992188 3.78492188 -7.18359375 2.93359375 C-7.12300781 2.29550781 -7.06242187 1.65742188 -7 1 C-5.5459375 1.0309375 -5.5459375 1.0309375 -4.0625 1.0625 C-1.12534105 1.35618499 -1.12534105 1.35618499 0 0 Z " fill="#804E9E" transform="translate(308,260)"/>
<path d="M0 0 C0.33 0 0.66 0 1 0 C1.185625 1.010625 1.37125 2.02125 1.5625 3.0625 C3.21842372 8.8937171 7.83161094 12.1832416 12.3125 15.9375 C16.47068355 17.58143303 20.58450726 17.23149185 25 17 C25 17.66 25 18.32 25 19 C21.51083925 20.74458037 17.81498426 20.43366378 14 20 C7.92924605 17.48796388 3.69622634 13.42948502 0 8 C-1.48837209 2.97674419 -1.48837209 2.97674419 0 0 Z " fill="#7CCAF1" transform="translate(226,311)"/>
<path d="M0 0 C0 0.66 0 1.32 0 2 C-1.65071396 3.02611949 -3.31970006 4.02308143 -5 5 C-5.556875 5.556875 -6.11375 6.11375 -6.6875 6.6875 C-7.120625 7.120625 -7.55375 7.55375 -8 8 C-8.66 8 -9.32 8 -10 8 C-10.33 8.99 -10.66 9.98 -11 11 C-13.04630396 12.83461735 -14.49447023 13.88445034 -17.1875 14.5 C-17.785625 14.665 -18.38375 14.83 -19 15 C-19.33 15.99 -19.66 16.98 -20 18 C-21.32 18 -22.64 18 -24 18 C-25.50930183 21.3863251 -25.50930183 21.3863251 -26 25 C-26.66 25 -27.32 25 -28 25 C-28.33 23.35 -28.66 21.7 -29 20 C-28.46632813 19.60731934 -27.93265625 19.21463867 -27.3828125 18.81005859 C-24.92159953 16.99874637 -22.46079776 15.18687628 -20 13.375 C-19.16082031 12.75753906 -18.32164062 12.14007813 -17.45703125 11.50390625 C-16.62558594 10.89160156 -15.79414063 10.27929688 -14.9375 9.6484375 C-14.11121094 9.0409668 -13.28492188 8.43349609 -12.43359375 7.80761719 C-10.83252837 6.61838283 -9.24100145 5.41617933 -7.66015625 4.20019531 C-6.94730469 3.65202148 -6.23445313 3.10384766 -5.5 2.5390625 C-4.8709375 2.04873535 -4.241875 1.5584082 -3.59375 1.05322266 C-2 0 -2 0 0 0 Z " fill="#C0DDFA" transform="translate(325,209)"/>
<path d="M0 0 C1.97652566 1.09049691 3.25312553 2.38352168 4.8125 4 C3.95785156 4.33773437 3.10320312 4.67546875 2.22265625 5.0234375 C0.56556641 5.69246094 0.56556641 5.69246094 -1.125 6.375 C-2.22714844 6.81585938 -3.32929688 7.25671875 -4.46484375 7.7109375 C-7.29980186 8.71041432 -7.29980186 8.71041432 -8.1875 11 C-13.9375 9.25 -13.9375 9.25 -16.1875 7 C-14.99125 6.773125 -13.795 6.54625 -12.5625 6.3125 C-9.32145501 5.53373301 -7.38389624 4.57071191 -4.9375 2.3125 C-2.1875 0 -2.1875 0 0 0 Z " fill="#429AB8" transform="translate(258.1875,175)"/>
<path d="M0 0 C0.66 0.33 1.32 0.66 2 1 C3.58076074 6.70756468 3.2628528 12.68758119 3.3125 18.5625 C3.34150391 19.67947266 3.37050781 20.79644531 3.40039062 21.94726562 C3.47478667 31.81904907 1.56486235 40.70424142 -4 49 C-4.99 49.495 -4.99 49.495 -6 50 C-5.5875 48.783125 -5.175 47.56625 -4.75 46.3125 C-4.48058594 45.48105469 -4.21117187 44.64960938 -3.93359375 43.79296875 C-3.3026621 41.90545357 -2.62665131 40.03250501 -1.91015625 38.17578125 C2.56964639 25.72479955 1.58446753 12.93337727 0 0 Z " fill="#7B499A" transform="translate(261,242)"/>
<path d="M0 0 C-2.90600261 1.25664978 -4.79604584 2 -8 2 C-8 2.66 -8 3.32 -8 4 C-7.46375 4.268125 -6.9275 4.53625 -6.375 4.8125 C-3.58333333 6.20833333 -0.79166667 7.60416667 2 9 C1.67 9.66 1.34 10.32 1 11 C-4.4964926 10.48869836 -4.4964926 10.48869836 -7.125 7.9375 C-11.71199817 4.8462621 -16.62544199 5.69141294 -22 6 C-22 5.67 -22 5.34 -22 5 C-20.35 5 -18.7 5 -17 5 C-17 4.34 -17 3.68 -17 3 C-14.92085336 2.29994051 -12.83648414 1.61537756 -10.75 0.9375 C-9.58984375 0.55464844 -8.4296875 0.17179688 -7.234375 -0.22265625 C-4.19922915 -0.95211763 -2.84296787 -1.11889082 0 0 Z " fill="#7DCFE1" transform="translate(246,176)"/>
<path d="M0 0 C2.77879865 1.45388621 5.29184959 3.15822136 7.8515625 4.96875 C4.81630764 6.99225324 3.65730048 7.28999018 0.1640625 7.59375 C-0.64417969 7.66851562 -1.45242187 7.74328125 -2.28515625 7.8203125 C-3.20748047 7.89378906 -3.20748047 7.89378906 -4.1484375 7.96875 C-4.4784375 5.32875 -4.8084375 2.68875 -5.1484375 -0.03125 C-6.1384375 -0.36125 -7.1284375 -0.69125 -8.1484375 -1.03125 C-4.59434271 -2.21594826 -3.30636015 -1.51951871 0 0 Z " fill="#F4F7F7" transform="translate(228.1484375,193.03125)"/>
<path d="M0 0 C-3.23775731 3.88530878 -6.14647942 4.83155986 -11 6 C-11.99 6.495 -11.99 6.495 -13 7 C-13 6.01 -13 5.02 -13 4 C-17.95 4 -22.9 4 -28 4 C-28 3.67 -28 3.34 -28 3 C-25.02211984 2.49106423 -22.0430746 1.99269364 -19.0625 1.5 C-18.23169922 1.35691406 -17.40089844 1.21382812 -16.54492188 1.06640625 C-10.95396627 0.15270923 -5.66506422 -0.13719631 0 0 Z " fill="#BAE2F6" transform="translate(331,183)"/>
<path d="M0 0 C2.87575868 0.11454804 5.75012112 0.2412847 8.625 0.375 C9.83736328 0.42140625 9.83736328 0.42140625 11.07421875 0.46875 C15.75171238 0.69692042 19.57714753 1.34750567 24 3 C26.28541881 3.56745023 28.5773718 4.10920591 30.875 4.625 C32.02742188 4.88539063 33.17984375 5.14578125 34.3671875 5.4140625 C35.23601562 5.60742188 36.10484375 5.80078125 37 6 C37 6.66 37 7.32 37 8 C11.0298471 3.84363246 11.0298471 3.84363246 0 1 C0 0.67 0 0.34 0 0 Z " fill="#835FAE" transform="translate(330,136)"/>
<path d="M0 0 C0.76937785 2.25817396 1.14360917 3.55611711 0.3984375 5.859375 C0.06070313 6.48328125 -0.27703125 7.1071875 -0.625 7.75 C-0.99238281 8.44351562 -1.35976562 9.13703125 -1.73828125 9.8515625 C-3.00817784 12.01392512 -4.3973007 14.05571699 -5.8125 16.125 C-7.46088801 18.75627776 -7.98899655 19.82394473 -8.1875 23 C-6.51053513 27.23654282 -3.89422855 30.51276438 -1 34 C-4.36748512 32.48052501 -5.60840337 31.47899158 -7 28 C-7.99 28 -8.98 28 -10 28 C-10.33 25.03 -10.66 22.06 -11 19 C-10.34 19 -9.68 19 -9 19 C-8.938125 18.29875 -8.87625 17.5975 -8.8125 16.875 C-7.91738402 13.70766654 -6.44950895 12.10282443 -4.27734375 9.69140625 C-2.05782453 6.75240985 -1.13958973 3.47874759 0 0 Z " fill="#9057A5" transform="translate(234,293)"/>
<path d="M0 0 C0.33 0 0.66 0 1 0 C1.16974564 8.14779056 0.85173713 15.46332573 -2.23828125 23.10546875 C-2.9415838 24.85470842 -3.53858834 26.6456866 -4.125 28.4375 C-5 31 -5 31 -6 32 C-7.69141656 31.91036938 -9.37959602 31.75422324 -11.0625 31.5625 C-11.98160156 31.46066406 -12.90070313 31.35882813 -13.84765625 31.25390625 C-14.55792969 31.17011719 -15.26820313 31.08632812 -16 31 C-16 30.67 -16 30.34 -16 30 C-12.7 29.67 -9.4 29.34 -6 29 C-4.02 19.43 -2.04 9.86 0 0 Z " fill="#775BB2" transform="translate(368,145)"/>
<path d="M0 0 C-0.69867188 0.23074219 -1.39734375 0.46148437 -2.1171875 0.69921875 C-3.02726562 1.02535156 -3.93734375 1.35148437 -4.875 1.6875 C-5.77992188 2.00074219 -6.68484375 2.31398438 -7.6171875 2.63671875 C-10.19563216 3.8367752 -10.19563216 3.8367752 -11.3828125 6.51953125 C-12.28050604 8.9806102 -12.28050604 8.9806102 -11 11 C-14.33727786 9.82744291 -16.77437487 8.81131596 -19 6 C-19 5.34 -19 4.68 -19 4 C-16.58732675 3.132758 -14.17095531 2.28103064 -11.75 1.4375 C-11.06808594 1.19064453 -10.38617188 0.94378906 -9.68359375 0.68945312 C-3.41657839 -1.47053761 -3.41657839 -1.47053761 0 0 Z " fill="#8258B2" transform="translate(268,112)"/>
<path d="M0 0 C-1.77945087 4.04420651 -4.39529673 7.46078487 -7 11 C-8.98 10.34 -10.96 9.68 -13 9 C-12.01 8.67 -11.02 8.34 -10 8 C-10 7.34 -10 6.68 -10 6 C-9.01 6 -8.02 6 -7 6 C-7.33 4.68 -7.66 3.36 -8 2 C-4.91190305 0.23537317 -3.76687864 0 0 0 Z " fill="#30626F" transform="translate(254,185)"/>
<path d="M0 0 C5.21126597 2.78742133 7.26190125 5.6758232 9.82421875 10.9765625 C10.97738125 13.30321909 10.97738125 13.30321909 14 15 C11.69 15 9.38 15 7 15 C4.15543212 10.11429181 1.54545146 5.47932789 0 0 Z " fill="#4A99C0" transform="translate(128,267)"/>
<path d="M0 0 C0.99 1.485 0.99 1.485 2 3 C5.38711355 7.96844668 8.42076145 12.37447598 14 15 C17.03397807 15.2989141 19.96407411 15.24287407 23 15 C23 15.66 23 16.32 23 17 C17.2027383 17.57546348 12.43580823 17.91252431 7.5625 14.375 C3.62236469 10.93648356 0.21991151 7.52898232 -0.25 2.125 C-0.1675 1.42375 -0.085 0.7225 0 0 Z " fill="#82C8EE" transform="translate(274,295)"/>
<path d="M0 0 C0.99 0.66 1.98 1.32 3 2 C-13.8671024 16 -13.8671024 16 -17 16 C-15.84334866 12.53004599 -14.81924446 12.11443335 -12 10 C-11.67 9.01 -11.34 8.02 -11 7 C-10.01 7.33 -9.02 7.66 -8 8 C-7.236875 7.195625 -6.47375 6.39125 -5.6875 5.5625 C-3 3 -3 3 0 2 C0 1.34 0 0.68 0 0 Z " fill="#8455AE" transform="translate(318,209)"/>
<path d="M0 0 C0.99 0.33 1.98 0.66 3 1 C2.27683594 1.67095703 2.27683594 1.67095703 1.5390625 2.35546875 C-1.97084598 5.71495258 -4.51301525 8.26868488 -6 13 C-8 15 -8 15 -11.125 15.125 C-12.548125 15.063125 -12.548125 15.063125 -14 15 C-13.0409375 14.5978125 -13.0409375 14.5978125 -12.0625 14.1875 C-9.66868314 13.11332248 -9.66868314 13.11332248 -9 10 C-8.34 10 -7.68 10 -7 10 C-6.773125 9.278125 -6.54625 8.55625 -6.3125 7.8125 C-4.75168987 4.46790687 -2.6968713 2.48396041 0 0 Z " fill="#368097" transform="translate(261,184)"/>
<path d="M0 0 C2.64 1.32 5.28 2.64 8 4 C8 4.66 8 5.32 8 6 C3.05 7.485 3.05 7.485 -2 9 C-1.34 6.03 -0.68 3.06 0 0 Z " fill="#5099B4" transform="translate(282,182)"/>
<path d="M0 0 C6.14357032 -0.43882645 11.44586278 0.3913791 17.375 1.875 C18.07689453 2.04870117 18.77878906 2.22240234 19.50195312 2.40136719 C22.78385387 3.25910067 25.15114359 4.10076239 28 6 C22.92543235 5.31102476 17.90476416 4.46031414 12.875 3.5 C12.18535156 3.36980469 11.49570312 3.23960937 10.78515625 3.10546875 C7.18588981 2.42415445 3.59042422 1.72646716 0 1 C0 0.67 0 0.34 0 0 Z " fill="#6182BC" transform="translate(328,169)"/>
<path d="M0 0 C1.87620422 3.16609462 2.09662822 5.35832401 2 9 C-0.9550405 9.86585625 -3.91445682 10.71566785 -6.875 11.5625 C-7.71675781 11.80935547 -8.55851562 12.05621094 -9.42578125 12.31054688 C-10.23144531 12.53935547 -11.03710938 12.76816406 -11.8671875 13.00390625 C-12.61081543 13.21861572 -13.35444336 13.4333252 -14.12060547 13.65454102 C-16 14 -16 14 -18 13 C-11.91026866 9.50404312 -7.00004889 8.28688725 0 8 C0 5.36 0 2.72 0 0 Z " fill="#7568BC" transform="translate(283,62)"/>
<path d="M0 0 C0.33 0.66 0.66 1.32 1 2 C0.59007812 2.60328125 0.18015625 3.2065625 -0.2421875 3.828125 C-1.05042969 5.02695313 -1.05042969 5.02695313 -1.875 6.25 C-2.40867187 7.03890625 -2.94234375 7.8278125 -3.4921875 8.640625 C-4.81822015 10.71555692 -5.94928175 12.77614972 -7 15 C-7.66 15 -8.32 15 -9 15 C-9 15.66 -9 16.32 -9 17 C-9.99 17 -10.98 17 -12 17 C-12.33 15.02 -12.66 13.04 -13 11 C-12.01 11.99 -11.02 12.98 -10 14 C-6.7 9.38 -3.4 4.76 0 0 Z " fill="#7765BD" transform="translate(320,106)"/>
<path d="M0 0 C0 0.66 0 1.32 0 2 C0.66 2 1.32 2 2 2 C3.6875 4.375 3.6875 4.375 5 7 C4.67 7.66 4.34 8.32 4 9 C2.0625 8.25 2.0625 8.25 0 7 C-0.33 5.68 -0.66 4.36 -1 3 C-7.93 2.505 -7.93 2.505 -15 2 C-15 1.67 -15 1.34 -15 1 C-9.92928099 0.28832014 -5.11791642 -0.10662326 0 0 Z " fill="#6F4484" transform="translate(236,64)"/>
<path d="M0 0 C0.66 0.33 1.32 0.66 2 1 C0.9171875 1.5878125 0.9171875 1.5878125 -0.1875 2.1875 C-3.09900148 3.90702212 -3.09900148 3.90702212 -5.375 6.5 C-8.52529806 9.50028387 -10.90340666 10.60870415 -15 12 C-15.66 11.67 -16.32 11.34 -17 11 C-15.10515026 9.72770057 -13.20907718 8.45722296 -11.3125 7.1875 C-10.25675781 6.47980469 -9.20101563 5.77210938 -8.11328125 5.04296875 C-7.08589844 4.36878906 -6.05851562 3.69460937 -5 3 C-4.08605469 2.39800781 -3.17210937 1.79601562 -2.23046875 1.17578125 C-1.49441406 0.78777344 -0.75835937 0.39976562 0 0 Z " fill="#5382BA" transform="translate(328,185)"/>
<path d="M0 0 C0.66 0.33 1.32 0.66 2 1 C-4.84810513 9.37775061 -4.84810513 9.37775061 -9 12 C-11.3125 11.75 -11.3125 11.75 -13 11 C-7.25 6 -7.25 6 -5 6 C-5 5.34 -5 4.68 -5 4 C-3.37373596 2.61767557 -1.7074998 1.28062485 0 0 Z " fill="#7761B6" transform="translate(175,148)"/>
<path d="M0 0 C0 3 0 3 -1.75 5.1875 C-4 7 -4 7 -8 7 C-8.66 8.32 -9.32 9.64 -10 11 C-11.32 10.67 -12.64 10.34 -14 10 C-12.22970554 8.70759488 -10.45874502 7.41610207 -8.6875 6.125 C-7.70136719 5.40570313 -6.71523438 4.68640625 -5.69921875 3.9453125 C-3.82476885 2.5944065 -1.92247007 1.28164671 0 0 Z " fill="#725BAA" transform="translate(332,243)"/>
<path d="M0 0 C3 1 3 1 5 3 C5.33 3 5.66 3 6 3 C6.33 5.97 6.66 8.94 7 12 C6.01 12.495 6.01 12.495 5 13 C5 12.01 5 11.02 5 10 C4.01 10 3.02 10 2 10 C1.34 6.7 0.68 3.4 0 0 Z " fill="#614768" transform="translate(206,85)"/>
<path d="M0 0 C4.19567905 6.29351857 5.40735632 12.53180074 5 20 C4.67 20 4.34 20 4 20 C3.67 17.36 3.34 14.72 3 12 C2.34 12 1.68 12 1 12 C0.63762737 10.37681021 0.28534843 8.7513642 -0.0625 7.125 C-0.25972656 6.22007812 -0.45695313 5.31515625 -0.66015625 4.3828125 C-1 2 -1 2 0 0 Z " fill="#A33BBB" transform="translate(5,190)"/>
<path d="M0 0 C0 0.99 0 1.98 0 3 C-0.99 3.495 -0.99 3.495 -2 4 C-1.34 2.68 -0.68 1.36 0 0 Z M-6 5 C-5.01 5.33 -4.02 5.66 -3 6 C-11.23529412 16.11764706 -11.23529412 16.11764706 -15 18 C-13.59718164 13.53648705 -11.35914958 11.1911921 -8 8 C-7.34 7.01 -6.68 6.02 -6 5 Z " fill="#8633A1" transform="translate(423,288)"/>
<path d="M0 0 C3.76024616 2.50683077 4.39192086 4.86493934 6 9 C10.47427924 9.08948558 14.60563789 8.85743651 19 8 C17.85546875 9.48828125 17.85546875 9.48828125 16 11 C13.30078125 11.29296875 13.30078125 11.29296875 10.3125 11.1875 C9.31863281 11.16042969 8.32476562 11.13335937 7.30078125 11.10546875 C6.54152344 11.07066406 5.78226563 11.03585937 5 11 C4.16151196 9.54462432 3.32936066 8.08559627 2.5 6.625 C1.80390625 5.40683594 1.80390625 5.40683594 1.09375 4.1640625 C0 2 0 2 0 0 Z " fill="#7C5DB5" transform="translate(129,272)"/>
<path d="M0 0 C-0.99 0.66 -1.98 1.32 -3 2 C-3 2.66 -3 3.32 -3 4 C-6.3 4.33 -9.6 4.66 -13 5 C-13 4.01 -13 3.02 -13 2 C-11.5882217 1.46605821 -10.17029756 0.94834896 -8.75 0.4375 C-7.96109375 0.14746094 -7.1721875 -0.14257812 -6.359375 -0.44140625 C-3.80896548 -1.04522837 -2.44677771 -0.8473932 0 0 Z " fill="#E7E8E8" transform="translate(253,169)"/>
<path d="M0 0 C0.66 0.33 1.32 0.66 2 1 C1.34 2.32 0.68 3.64 0 5 C-1.32 5 -2.64 5 -4 5 C-5.50930183 8.3863251 -5.50930183 8.3863251 -6 12 C-6.66 12 -7.32 12 -8 12 C-8.33 10.35 -8.66 8.7 -9 7 C-6.03 4.69 -3.06 2.38 0 0 Z " fill="#B7D9F5" transform="translate(305,222)"/>
<path d="M0 0 C0.47308594 0.34933594 0.94617188 0.69867188 1.43359375 1.05859375 C6.60032163 4.61386654 10.74807789 5.84080754 17 6 C17 6.33 17 6.66 17 7 C6.55479452 8.36986301 6.55479452 8.36986301 3 6 C3 5.01 3 4.02 3 3 C2.01 2.67 1.02 2.34 0 2 C0 1.34 0 0.68 0 0 Z " fill="#3F92A8" transform="translate(242,199)"/>
<path d="M0 0 C-2.88711871 0.82020418 -5.50013311 1.16181621 -8.5 1.1875 C-9.2528125 1.20167969 -10.005625 1.21585938 -10.78125 1.23046875 C-13.24864173 0.97417278 -14.86356256 0.22845153 -17 -1 C-4.54918033 -3.03278689 -4.54918033 -3.03278689 0 0 Z " fill="#9F3DB6" transform="translate(142,62)"/>
<path d="M0 0 C0.66 0 1.32 0 2 0 C2.20625 0.99 2.4125 1.98 2.625 3 C3.95025073 7.76505595 6.89391291 11.23948575 10 15 C6.63251488 13.48052501 5.39159663 12.47899158 4 9 C3.01 9 2.02 9 1 9 C0.67 6.03 0.34 3.06 0 0 Z " fill="#7B5EBB" transform="translate(223,312)"/>
<path d="M0 0 C2.97 0.33 5.94 0.66 9 1 C9 1.33 9 1.66 9 2 C7.02 2 5.04 2 3 2 C3 5.96 3 9.92 3 14 C1.18751015 10.3750203 0.68111085 8.62740416 0.375 4.75 C0.30023438 3.85796875 0.22546875 2.9659375 0.1484375 2.046875 C0.09945313 1.37140625 0.05046875 0.6959375 0 0 Z " fill="#73BBF6" transform="translate(282,52)"/>
<path d="M0 0 C0.66 0 1.32 0 2 0 C2.33 2.31 2.66 4.62 3 7 C5.64 6.67 8.28 6.34 11 6 C7.87740563 9.12259437 4.28533288 9.14293342 0 10 C0 6.7 0 3.4 0 0 Z " fill="#7854A6" transform="translate(242,73)"/>
<path d="M0 0 C0.33 0 0.66 0 1 0 C1.66 3.3 2.32 6.6 3 10 C2.34 10 1.68 10 1 10 C0.67 10.66 0.34 11.32 0 12 C-1.58969234 8.52254801 -2.41465662 5.83557374 -2 2 C-1.34 1.34 -0.68 0.68 0 0 Z " fill="#4A9DC2" transform="translate(118,234)"/>
<path d="M0 0 C0.66 0.33 1.32 0.66 2 1 C0.68 1.33 -0.64 1.66 -2 2 C-2 2.66 -2 3.32 -2 4 C-6.44428622 7.70357185 -11.46325415 7.68822208 -17 8 C-14.31765469 6.2117698 -12.04485923 5.14809618 -9.0625 4 C-6.55792284 3.03292345 -4.17009754 2.09217407 -1.80859375 0.8125 C-1.21175781 0.544375 -0.61492187 0.27625 0 0 Z " fill="#D2F5FC" transform="translate(287,192)"/>
<path d="M0 0 C4.12751449 0.60698743 7.3321148 2.03810791 11 4 C10.67 4.66 10.34 5.32 10 6 C5.8333396 5.52651586 3.07115285 4.95303159 0 2 C0 1.34 0 0.68 0 0 Z " fill="#72C2DD" transform="translate(237,181)"/>
<path d="M0 0 C5.41538462 -0.36923077 5.41538462 -0.36923077 8.375 1.5 C8.91125 1.995 9.4475 2.49 10 3 C9.67 3.99 9.34 4.98 9 6 C7.68397477 5.38245741 6.37226444 4.75571258 5.0625 4.125 C4.33160156 3.77695313 3.60070312 3.42890625 2.84765625 3.0703125 C1 2 1 2 0 0 Z " fill="#62C7E3" transform="translate(236,194)"/>
<path d="M0 0 C-2.125 2.0625 -2.125 2.0625 -5 4 C-8.3125 3.75 -8.3125 3.75 -11 3 C-11 2.34 -11 1.68 -11 1 C-9.5437328 0.63743142 -8.08488815 0.28520207 -6.625 -0.0625 C-5.40683594 -0.35833984 -5.40683594 -0.35833984 -4.1640625 -0.66015625 C-2 -1 -2 -1 0 0 Z " fill="#25657C" transform="translate(249,177)"/>
<path d="M0 0 C0.66 2.64 1.32 5.28 2 8 C-0.51083114 6.74458443 -0.87125446 5.49936512 -2 3 C-2.99 3.495 -2.99 3.495 -4 4 C-6.3400417 3.71758117 -8.67504723 3.38749213 -11 3 C-7.25593545 0.50395696 -4.45848315 0 0 0 Z " fill="#7559AF" transform="translate(302,101)"/>
<path d="M0 0 C2.31 0 4.62 0 7 0 C4.19350765 1.8709949 1.50039527 3.23017952 -1.5625 4.625 C-2.53316406 5.07101563 -3.50382813 5.51703125 -4.50390625 5.9765625 C-7 7 -7 7 -9 7 C-8.67 6.01 -8.34 5.02 -8 4 C-4.535 3.505 -4.535 3.505 -1 3 C-0.67 2.01 -0.34 1.02 0 0 Z " fill="#855BB4" transform="translate(137,221)"/>
<path d="M0 0 C3.3 1.65 6.6 3.3 10 5 C10 5.33 10 5.66 10 6 C8.54119891 5.85892253 7.08296449 5.71197585 5.625 5.5625 C4.40683594 5.44068359 4.40683594 5.44068359 3.1640625 5.31640625 C1 5 1 5 -1 4 C-0.67 2.68 -0.34 1.36 0 0 Z " fill="#6FC8F5" transform="translate(282,178)"/>
<path d="M0 0 C12.66970387 -0.55353075 12.66970387 -0.55353075 18 3 C14.02549507 4.51553092 10.79518851 3.49888623 6.75 2.5625 C5.48671875 2.27503906 4.2234375 1.98757812 2.921875 1.69140625 C1.95765625 1.46324219 0.9934375 1.23507813 0 1 C0 0.67 0 0.34 0 0 Z " fill="#735DB5" transform="translate(313,57)"/>
<path d="M0 0 C0 0.66 0 1.32 0 2 C-1.96147874 3.38938077 -3.96166576 4.7260411 -6 6 C-6 5.34 -6 4.68 -6 4 C-7.11375 4.515625 -8.2275 5.03125 -9.375 5.5625 C-10.57125 6.036875 -11.7675 6.51125 -13 7 C-13.66 6.67 -14.32 6.34 -15 6 C-14.22914063 5.65066406 -13.45828125 5.30132812 -12.6640625 4.94140625 C-11.66117188 4.48636719 -10.65828125 4.03132813 -9.625 3.5625 C-8.62726563 3.11003906 -7.62953125 2.65757812 -6.6015625 2.19140625 C-1.81639344 0 -1.81639344 0 0 0 Z " fill="#7D57B4" transform="translate(173,268)"/>
<path d="M0 0 C1.39195915 4.17587745 -0.17676781 6.13474776 -2 10 C-2.33 10 -2.66 10 -3 10 C-3 8.35 -3 6.7 -3 5 C-3.99 4.67 -4.98 4.34 -6 4 C-4.02 2.68 -2.04 1.36 0 0 Z " fill="#8756AE" transform="translate(182,145)"/>
<path d="M0 0 C0 0.66 0 1.32 0 2 C-3.3 2 -6.6 2 -10 2 C-9.67 2.99 -9.34 3.98 -9 5 C-10.98 5.99 -12.96 6.98 -15 8 C-14.67 7.01 -14.34 6.02 -14 5 C-13.34 5 -12.68 5 -12 5 C-11.67 3.68 -11.34 2.36 -11 1 C-9.54182203 0.83197949 -8.0834516 0.66562857 -6.625 0.5 C-5.81289062 0.4071875 -5.00078125 0.314375 -4.1640625 0.21875 C-2 0 -2 0 0 0 Z " fill="#624173" transform="translate(221,66)"/>
<path d="M0 0 C-0.99 0.495 -0.99 0.495 -2 1 C-1.34 2.65 -0.68 4.3 0 6 C-0.721875 5.505 -1.44375 5.01 -2.1875 4.5 C-5.14848659 2.92080715 -6.71253029 2.71821688 -10 3 C-9 1 -9 1 -6.6875 -0.1875 C-3.88010429 -1.03624754 -2.698065 -0.99928333 0 0 Z " fill="#67C7EA" transform="translate(261,171)"/>
<path d="M0 0 C3 1.5625 3 1.5625 6 4 C6.375 7.75 6.375 7.75 6 11 C3.46166551 9.73083275 3.10599099 8.58375191 1.875 6.0625 C1.52179688 5.35222656 1.16859375 4.64195312 0.8046875 3.91015625 C0 2 0 2 0 0 Z " fill="#528FBD" transform="translate(128,267)"/>
<path d="M0 0 C1.32 0 2.64 0 4 0 C4 2.31 4 4.62 4 7 C2.68 6.34 1.36 5.68 0 5 C0 3.35 0 1.7 0 0 Z " fill="#946963" transform="translate(217,110)"/>
<path d="M0 0 C0.66 0.33 1.32 0.66 2 1 C-2.30769231 6.78461538 -2.30769231 6.78461538 -5.8125 7.875 C-6.8953125 7.936875 -6.8953125 7.936875 -8 8 C-5.58443874 4.80800833 -3.31996462 2.25283313 0 0 Z " fill="#6FB9F3" transform="translate(145,128)"/>
<path d="M0 0 C2.57075841 3.01447835 3.52207066 5.35979771 4.1875 9.25 C4.34605469 10.14203125 4.50460937 11.0340625 4.66796875 11.953125 C4.83232422 12.96632813 4.83232422 12.96632813 5 14 C4.01 14.495 4.01 14.495 3 15 C2.86722656 14.36191406 2.73445313 13.72382812 2.59765625 13.06640625 C2.42105469 12.24011719 2.24445313 11.41382812 2.0625 10.5625 C1.88847656 9.73878906 1.71445312 8.91507813 1.53515625 8.06640625 C1.19247006 6.02338796 1.19247006 6.02338796 0 5 C-0.04063832 3.33382885 -0.042721 1.66611905 0 0 Z " fill="#8532A0" transform="translate(439,95)"/>
<path d="M0 0 C0 0.66 0 1.32 0 2 C-2.2727675 3.49524178 -4.5679943 4.78399715 -7 6 C-7.99 5.34 -8.98 4.68 -10 4 C-8.71086513 3.32845067 -7.41859796 2.66291141 -6.125 2 C-5.40570313 1.62875 -4.68640625 1.2575 -3.9453125 0.875 C-2 0 -2 0 0 0 Z " fill="#8157B6" transform="translate(158,275)"/>
<path d="M0 0 C3.27286682 2.7819368 4.96427697 6.27954067 7 10 C6.01 10 5.02 10 4 10 C0 3.375 0 3.375 0 0 Z " fill="#9E36B7" transform="translate(22,238)"/>
<path d="M0 0 C1.9375 0.0625 1.9375 0.0625 4 1 C5.25 4.0625 5.25 4.0625 6 7 C4.35 7 2.7 7 1 7 C1.66 6.34 2.32 5.68 3 5 C1.68 3.68 0.36 2.36 -1 1 C-0.67 0.67 -0.34 0.34 0 0 Z " fill="#608F98" transform="translate(232,193)"/>
<path d="M0 0 C0.33 0 0.66 0 1 0 C1.433125 1.6396875 1.433125 1.6396875 1.875 3.3125 C2.81893204 7.04013845 2.81893204 7.04013845 5 10 C3.125 9.6875 3.125 9.6875 1 9 C-1 6 -1 6 -0.625 2.8125 C-0.41875 1.884375 -0.2125 0.95625 0 0 Z " fill="#97D1F1" transform="translate(226,311)"/>
<path d="M0 0 C0.99 0.99 1.98 1.98 3 3 C1.37660195 4.70884005 -0.29319053 6.37446717 -2 8 C-2.66 8 -3.32 8 -4 8 C-2.66666667 5.33333333 -1.33333333 2.66666667 0 0 Z " fill="#7958B8" transform="translate(349,64)"/>
<path d="M0 0 C0.33 0 0.66 0 1 0 C1 3.63 1 7.26 1 11 C-0.32 11.33 -1.64 11.66 -3 12 C-2.67 11.484375 -2.34 10.96875 -2 10.4375 C-0.68451922 7.23101561 -0.935199 4.43445297 -1 1 C-0.67 0.67 -0.34 0.34 0 0 Z " fill="#805AB5" transform="translate(216,238)"/>
<path d="M0 0 C1.65 1.32 3.3 2.64 5 4 C0.99799622 5.60080151 -2.04556236 4.29279692 -6 3 C-6 2.67 -6 2.34 -6 2 C-4.02 2 -2.04 2 0 2 C0 1.34 0 0.68 0 0 Z " fill="#70C7ED" transform="translate(151,213)"/>
<path d="M0 0 C0 0.66 0 1.32 0 2 C-6.28571429 4.42857143 -6.28571429 4.42857143 -10 3 C-3.375 0 -3.375 0 0 0 Z " fill="#BDDBF9" transform="translate(180,206)"/>
<path d="M0 0 C4.95 0.99 4.95 0.99 10 2 C10 3.32 10 4.64 10 6 C6.40992874 4.66654496 3.20429093 3.1056769 0 1 C0 0.67 0 0.34 0 0 Z " fill="#7C5EBC" transform="translate(285,179)"/>
<path d="M0 0 C0.99 0.33 1.98 0.66 3 1 C-0.0684847 3.97550031 -1.46236331 4.96474513 -5.8125 5.25 C-6.864375 5.1675 -7.91625 5.085 -9 5 C-9 4.67 -9 4.34 -9 4 C-7.88625 3.71125 -6.7725 3.4225 -5.625 3.125 C-1.99708908 2.30758671 -1.99708908 2.30758671 0 0 Z " fill="#3E88A3" transform="translate(250,177)"/>
<path d="M0 0 C2 2 2 2 3 6 C-1.455 5.01 -1.455 5.01 -6 4 C-6 3.67 -6 3.34 -6 3 C-4.02 3 -2.04 3 0 3 C0 2.01 0 1.02 0 0 Z " fill="#4CA2CC" transform="translate(356,169)"/>
<path d="M0 0 C0.66 0.33 1.32 0.66 2 1 C-2.82142857 7.29464286 -2.82142857 7.29464286 -7 8 C-6.02133662 6.85373678 -5.04205413 5.70800212 -4.0625 4.5625 C-3.51722656 3.92441406 -2.97195312 3.28632813 -2.41015625 2.62890625 C-1.63204305 1.73008851 -0.84063472 0.84063472 0 0 Z " fill="#73B5F4" transform="translate(135,136)"/>
<path d="M0 0 C-2.40436026 3.60654039 -3.94679607 3.85452932 -8 5 C-8 3.68 -8 2.36 -8 1 C-2.25 -1.125 -2.25 -1.125 0 0 Z " fill="#7859B5" transform="translate(310,261)"/>
<path d="M0 0 C6.75 -0.125 6.75 -0.125 9 1 C8.67 1.99 8.34 2.98 8 4 C7.01 4 6.02 4 5 4 C4.34 3.34 3.68 2.68 3 2 C2.01 1.34 1.02 0.68 0 0 Z " fill="#BCE5F8" transform="translate(358,143)"/>
<path d="M0 0 C0 3 0 3 -2 5.1875 C-2.66 5.785625 -3.32 6.38375 -4 7 C-4.99 6.67 -5.98 6.34 -7 6 C-6.34 6 -5.68 6 -5 6 C-5 5.01 -5 4.02 -5 3 C-2.5 1.3125 -2.5 1.3125 0 0 Z " fill="#7A4FA8" transform="translate(332,243)"/>
<path d="M0 0 C2.96052484 3.36423277 3.92289822 6.69159287 5 11 C4.01 10.67 3.02 10.34 2 10 C0.47839986 6.3962102 0 3.94779314 0 0 Z " fill="#76B9F1" transform="translate(203,214)"/>
<path d="M0 0 C4.455 0.99 4.455 0.99 9 2 C7.1875 3.5625 7.1875 3.5625 5 5 C4.01 4.67 3.02 4.34 2 4 C2.66 4 3.32 4 4 4 C4 3.34 4 2.68 4 2 C2.68 1.67 1.36 1.34 0 1 C0 0.67 0 0.34 0 0 Z " fill="#7A66BB" transform="translate(143,215)"/>
<path d="M0 0 C0.53625 0.144375 1.0725 0.28875 1.625 0.4375 C4.39915827 1.09453748 7.18525388 1.55219948 10 2 C10 2.33 10 2.66 10 3 C6.37 3 2.74 3 -1 3 C-0.67 2.01 -0.34 1.02 0 0 Z " fill="#334A51" transform="translate(251,206)"/>
<path d="M0 0 C0.99 0.33 1.98 0.66 3 1 C3 1.66 3 2.32 3 3 C-1.625 5.125 -1.625 5.125 -5 4 C-2.6875 1.9375 -2.6875 1.9375 0 0 Z " fill="#41A1C2" transform="translate(287,185)"/>
<path d="M0 0 C0.66 0.33 1.32 0.66 2 1 C0.02 3.31 -1.96 5.62 -4 8 C-4.33 7.34 -4.66 6.68 -5 6 C-3.35 4.02 -1.7 2.04 0 0 Z " fill="#D8F1F5" transform="translate(200,117)"/>
<path d="M0 0 C-3.6441774 2.4294516 -5.71241272 2.16179575 -10 2 C-6.80505194 -1.19494806 -4.22040044 -1.35655728 0 0 Z " fill="#7462B6" transform="translate(291,105)"/>
</svg>
