<?xml version="1.0" encoding="UTF-8"?>
<svg version="1.1" xmlns="http://www.w3.org/2000/svg" width="583" height="454">
<path d="M0 0 C192.39 0 384.78 0 583 0 C583 149.82 583 299.64 583 454 C390.61 454 198.22 454 0 454 C0 304.18 0 154.36 0 0 Z " fill="#E7F9FE" transform="translate(0,0)"/>
<path d="M0 0 C4.37076868 2.0011757 7.1518608 4.55671416 10.3515625 8.078125 C11.99158002 9.65339467 11.99158002 9.65339467 15.4140625 9.68359375 C18.8515625 10.30859375 18.8515625 10.30859375 20.44140625 11.95703125 C22.54269928 15.08859815 23.8515625 17.30446748 23.8515625 21.12109375 C22.78162837 23.46157466 21.88705791 24.74282805 19.8515625 26.30859375 C18.3665625 26.80359375 18.3665625 26.80359375 16.8515625 27.30859375 C16.79097656 28.41976562 16.73039062 29.5309375 16.66796875 30.67578125 C16.22662362 38.57648075 15.72569966 46.44135933 14.8515625 54.30859375 C18.97437794 55.88275965 23.07178029 57.38425504 27.2890625 58.68359375 C33.20757094 60.63249601 39.81692579 63.3773711 43.8515625 68.30859375 C43.60703126 71.65052067 43.24612693 72.91402932 40.8515625 75.30859375 C40.209039 77.37733409 40.209039 77.37733409 39.8515625 79.30859375 C39.1915625 79.30859375 38.5315625 79.30859375 37.8515625 79.30859375 C37.6246875 80.09234375 37.3978125 80.87609375 37.1640625 81.68359375 C34.22833307 89.79179885 30.63207872 96.07142398 24.62109375 102.30078125 C22.9208198 104.23001041 21.87656106 105.96423807 20.8515625 108.30859375 C20.1915625 108.30859375 19.5315625 108.30859375 18.8515625 108.30859375 C18.8515625 108.96859375 18.8515625 109.62859375 18.8515625 110.30859375 C17.5637085 110.14488281 16.27585449 109.98117188 14.94897461 109.8125 C10.04440065 109.26962845 5.22250991 109.19634218 0.29296875 109.24609375 C-0.57739517 109.24988037 -1.44775909 109.25366699 -2.34449768 109.25756836 C-5.09169763 109.26966845 -7.83878652 109.28831779 -10.5859375 109.30859375 C-14.23046557 109.33513388 -17.87494339 109.35511459 -21.51953125 109.37109375 C-22.35592636 109.37939209 -23.19232147 109.38769043 -24.05406189 109.39624023 C-29.92289745 109.42136377 -29.92289745 109.42136377 -32.1484375 108.30859375 C-32.5625 105.8046875 -32.5625 105.8046875 -32.7734375 102.74609375 C-32.84820312 101.73417969 -32.92296875 100.72226563 -33 99.6796875 C-33.04898438 98.89722656 -33.09796875 98.11476563 -33.1484375 97.30859375 C-35.11723849 100.01019908 -37.08358911 102.71342278 -39.04296875 105.421875 C-40.25129512 107.07855995 -41.47107801 108.72730588 -42.72265625 110.3515625 C-45.89740303 114.51782179 -46.6021552 116.8966057 -48.1484375 122.30859375 C-30.9884375 122.30859375 -13.8284375 122.30859375 3.8515625 122.30859375 C4.1815625 122.96859375 4.5115625 123.62859375 4.8515625 124.30859375 C4.23039551 124.31223938 3.60922852 124.31588501 2.96923828 124.31964111 C-3.52039443 124.36158717 -10.00932787 124.43101755 -16.49853516 124.51611328 C-18.91740918 124.54426606 -21.33637423 124.56550877 -23.75537109 124.57958984 C-27.24103199 124.60109742 -30.72560502 124.64779068 -34.2109375 124.69921875 C-35.82234619 124.70106171 -35.82234619 124.70106171 -37.46630859 124.70294189 C-44.16500057 124.8323833 -48.35494298 125.94468321 -54.1484375 129.30859375 C-54.8084375 129.30859375 -55.4684375 129.30859375 -56.1484375 129.30859375 C-56.1484375 129.96859375 -56.1484375 130.62859375 -56.1484375 131.30859375 C-57.1384375 131.30859375 -58.1284375 131.30859375 -59.1484375 131.30859375 C-58.36713679 133.80411859 -58.36713679 133.80411859 -57.1484375 136.30859375 C-56.1584375 136.63859375 -55.1684375 136.96859375 -54.1484375 137.30859375 C-52.67783106 140.24980663 -52.71445634 143.32899514 -52.46484375 146.5625 C-52.40441391 147.29621323 -52.34398407 148.02992645 -52.28172302 148.78587341 C-52.08755313 151.14731443 -51.8987463 153.50913892 -51.7109375 155.87109375 C-50.76351268 167.71953598 -49.61717586 179.51286158 -48.1484375 191.30859375 C-48.03411377 192.23115967 -47.91979004 193.15372559 -47.80200195 194.10424805 C-47.70749756 194.86390869 -47.61299316 195.62356934 -47.515625 196.40625 C-47.35320312 197.71464844 -47.19078125 199.02304688 -47.0234375 200.37109375 C-46.93707031 201.03818359 -46.85070312 201.70527344 -46.76171875 202.39257812 C-46.1894813 207.07493373 -46.07498501 211.60238809 -46.1484375 216.30859375 C-45.32980225 216.27830078 -44.51116699 216.24800781 -43.66772461 216.21679688 C-26.4821222 215.59199696 -9.34900084 215.19617177 7.8515625 215.30859375 C7.8515625 202.43859375 7.8515625 189.56859375 7.8515625 176.30859375 C8.1815625 176.30859375 8.5115625 176.30859375 8.8515625 176.30859375 C8.98433594 177.57574219 9.11710937 178.84289062 9.25390625 180.1484375 C9.43227744 181.84765774 9.61066366 183.54687641 9.7890625 185.24609375 C9.87607422 186.07689453 9.96308594 186.90769531 10.05273438 187.76367188 C10.13974609 188.59189453 10.22675781 189.42011719 10.31640625 190.2734375 C10.4033374 191.1099585 10.49026855 191.94647949 10.57983398 192.80834961 C10.75839445 194.45133045 10.95022701 196.09293318 11.15649414 197.73266602 C11.69374821 202.05930975 11.91069257 206.01178532 11.4140625 210.37109375 C11.31222656 211.31082031 11.21039063 212.25054687 11.10546875 213.21875 C10.97978516 214.25322266 10.97978516 214.25322266 10.8515625 215.30859375 C13.48057538 213.78653366 15.69522214 212.46493411 17.8515625 210.30859375 C23.07942465 210.66302508 27.90204404 211.59141388 32.8515625 213.30859375 C33.1815625 213.96859375 33.5115625 214.62859375 33.8515625 215.30859375 C35.1715625 215.30859375 36.4915625 215.30859375 37.8515625 215.30859375 C37.8515625 215.96859375 37.8515625 216.62859375 37.8515625 217.30859375 C40.4915625 217.63859375 43.1315625 217.96859375 45.8515625 218.30859375 C45.8515625 218.63859375 45.8515625 218.96859375 45.8515625 219.30859375 C54.1015625 219.30859375 62.3515625 219.30859375 70.8515625 219.30859375 C70.5215625 219.96859375 70.1915625 220.62859375 69.8515625 221.30859375 C59.9515625 221.30859375 50.0515625 221.30859375 39.8515625 221.30859375 C40.1815625 223.96921875 40.5115625 226.62984375 40.8515625 229.37109375 C43.35730096 253.53314256 42.74172717 278.25969293 39.58203125 302.30859375 C38.71164521 309.0035383 38.36919673 315.6845076 38.14282227 322.42822266 C38.01465139 326.18920024 37.81778064 329.89501389 37.37109375 333.6328125 C36.7144476 339.24860716 36.36321804 344.84636549 36.1640625 350.49609375 C36.08478516 351.54990234 36.00550781 352.60371094 35.92382812 353.68945312 C35.83808041 356.85414194 35.88381615 359.28915679 36.8515625 362.30859375 C39.23045399 364.46581945 41.49290362 365.75908836 44.39526367 367.1184082 C46.78993107 368.27873059 48.24070671 369.20297753 49.8515625 371.30859375 C49.5390625 373.99609375 49.5390625 373.99609375 48.8515625 376.30859375 C45.53913938 376.36749335 42.22685399 376.40248773 38.9140625 376.43359375 C37.98787109 376.45035156 37.06167969 376.46710938 36.10742188 376.484375 C30.22785286 376.52563513 24.43733006 376.32972451 18.8515625 374.30859375 C16.7265625 372.12109375 16.7265625 372.12109375 15.8515625 369.30859375 C16.12242111 364.43313882 17.43001607 359.95231208 18.8515625 355.30859375 C18.1915625 355.30859375 17.5315625 355.30859375 16.8515625 355.30859375 C16.55786692 347.08725469 16.26950209 338.86573591 15.98434448 330.64409637 C15.9143355 328.62895186 15.84390376 326.61382242 15.7734375 324.59869385 C15.28640805 310.62987154 14.82416371 296.6628513 14.56640625 282.6875 C14.54683365 281.65218643 14.52726105 280.61687286 14.50709534 279.55018616 C14.41832935 274.73707303 14.34148898 269.92415132 14.28149414 265.1105957 C14.25299597 263.39273707 14.22428179 261.674882 14.1953125 259.95703125 C14.19011093 259.20639908 14.18490936 258.45576691 14.17955017 257.68238831 C14.09211229 253.0675675 13.44245524 248.84109349 12.33877563 244.35820007 C11.58438898 241.18464921 11.16558834 237.97606955 10.7265625 234.74609375 C10.55898438 233.52792969 10.39140625 232.30976563 10.21875 231.0546875 C10.09757812 230.14847656 9.97640625 229.24226562 9.8515625 228.30859375 C7.2115625 228.63859375 4.5715625 228.96859375 1.8515625 229.30859375 C-0.63868382 240.6625335 -2.9217973 252.05539565 -5.19265747 263.45480347 C-5.84672432 266.73773563 -6.50217503 270.02038895 -7.15795898 273.30297852 C-9.09970803 283.02499342 -11.0377654 292.74773611 -12.96983337 302.47167969 C-13.70904997 306.1909652 -14.4496043 309.90998369 -15.19033813 313.62896729 C-15.70282627 316.20531745 -16.21313471 318.78209329 -16.72338867 321.35888672 C-17.03292839 322.91375928 -17.34257362 324.46861083 -17.65234375 326.0234375 C-17.85946487 327.07453453 -17.85946487 327.07453453 -18.07077026 328.14686584 C-18.62984555 330.94287915 -19.24537296 333.59940012 -20.1484375 336.30859375 C-20.26039075 338.29265415 -20.36759658 340.27723162 -20.43847656 342.26318359 C-21.27222921 365.40221544 -21.27222921 365.40221544 -26.3828125 370.56640625 C-31.73215423 373.93618932 -36.37792463 374.60197633 -42.6484375 374.62109375 C-43.916875 374.63785156 -45.1853125 374.65460938 -46.4921875 374.671875 C-50.36994025 374.28658546 -52.80887936 373.26182297 -56.1484375 371.30859375 C-55.58116715 367.96959737 -54.69082149 366.51315097 -52.0859375 364.37109375 C-51.46203125 363.84128906 -50.838125 363.31148438 -50.1953125 362.765625 C-48.1484375 361.30859375 -48.1484375 361.30859375 -45.9765625 360.4453125 C-43.33374866 359.35057027 -42.03778404 358.49109691 -40.1484375 356.30859375 C-39.56038343 353.61230732 -39.20470405 351.20164539 -38.984375 348.47265625 C-38.90913101 347.68365936 -38.83388702 346.89466248 -38.75636292 346.08175659 C-37.8693893 336.22012821 -37.48285474 326.32452922 -37.0859375 316.43359375 C-36.96988951 313.59970664 -36.85199419 310.76594314 -36.72914124 307.93234253 C-36.65375687 306.18961653 -36.58228968 304.44671519 -36.5153656 302.7036438 C-36.48185501 301.92117279 -36.44834442 301.13870178 -36.41381836 300.33251953 C-36.3865416 299.64956818 -36.35926483 298.96661682 -36.3311615 298.26296997 C-36.1484375 296.30859375 -36.1484375 296.30859375 -35.66189575 294.45266724 C-34.98533159 291.6275042 -34.84467873 288.87925644 -34.66772461 285.97949219 C-34.54771339 284.05795319 -34.54771339 284.05795319 -34.42527771 282.09759521 C-34.34203213 280.70439118 -34.25886856 279.31118224 -34.17578125 277.91796875 C-34.08785578 276.48876977 -33.99959941 275.0595911 -33.911026 273.63043213 C-33.67922029 269.8758068 -33.45190377 266.12092271 -33.2255249 262.3659668 C-32.9935584 258.53157168 -32.75734197 254.69743864 -32.52148438 250.86328125 C-32.05964513 243.34530197 -31.6025487 235.82704421 -31.1484375 228.30859375 C-31.75840576 228.33477783 -32.36837402 228.36096191 -32.99682617 228.38793945 C-35.77626508 228.49225094 -38.55529189 228.55702357 -41.3359375 228.62109375 C-42.77549805 228.68393555 -42.77549805 228.68393555 -44.24414062 228.74804688 C-51.41467064 228.87210449 -51.41467064 228.87210449 -55.24609375 225.9296875 C-61.30001051 217.58845928 -60.2990128 207.19637188 -60.1484375 197.30859375 C-60.8084375 197.30859375 -61.4684375 197.30859375 -62.1484375 197.30859375 C-62.17491867 196.62478638 -62.20139984 195.940979 -62.22868347 195.2364502 C-62.5097415 188.09700596 -62.82331804 180.95950917 -63.15551758 173.82226562 C-63.27773605 171.16097854 -63.38654255 168.50010313 -63.48950195 165.83789062 C-63.63922246 162.0038995 -63.81872473 158.17226602 -64.00390625 154.33984375 C-64.04372116 153.15620239 -64.08353607 151.97256104 -64.1245575 150.75305176 C-64.56717248 142.44310762 -66.25894725 136.88271993 -72.4609375 131.18359375 C-74.1484375 129.30859375 -74.1484375 129.30859375 -74.4140625 126.54296875 C-74.12020767 122.96485405 -73.25456136 120.84657266 -71.5859375 117.68359375 C-71.03679687 116.64074219 -70.48765625 115.59789062 -69.921875 114.5234375 C-58.08704208 93.06954434 -58.08704208 93.06954434 -52.015625 85.73046875 C-49.8936546 83.2681458 -49.8936546 83.2681458 -48.9609375 79.49609375 C-46.19522869 71.79265349 -39.34660341 67.70416425 -32.30371094 64.26000977 C-23.87158992 60.30859375 -23.87158992 60.30859375 -20.1484375 60.30859375 C-20.1484375 59.64859375 -20.1484375 58.98859375 -20.1484375 58.30859375 C-19.1584375 58.30859375 -18.1684375 58.30859375 -17.1484375 58.30859375 C-17.19484375 58.86546875 -17.24125 59.42234375 -17.2890625 59.99609375 C-17.64763302 67.57729901 -15.30161516 72.04409859 -11.2109375 78.24609375 C-8.84740033 80.60963092 -7.43425506 81.03477562 -4.1484375 81.30859375 C-4.1484375 76.98719738 -4.54073557 76.31135819 -6.9609375 72.99609375 C-11.88286711 65.8337575 -13.50136221 60.14225363 -13.9375 51.4921875 C-14.1441014 48.37403667 -14.58490882 45.38028699 -15.1484375 42.30859375 C-16.1384375 42.30859375 -17.1284375 42.30859375 -18.1484375 42.30859375 C-20.1484375 39.30859375 -20.1484375 39.30859375 -20.4609375 35.37109375 C-20.79806226 31.90443349 -20.95387929 31.49342405 -23.6484375 28.93359375 C-24.4734375 28.39734375 -25.2984375 27.86109375 -26.1484375 27.30859375 C-27.26289248 25.0796838 -27.31324036 23.77804269 -27.3359375 21.30859375 C-27.35011719 20.60734375 -27.36429687 19.90609375 -27.37890625 19.18359375 C-27.1484375 17.30859375 -27.1484375 17.30859375 -25.1484375 15.30859375 C-22.0234375 15.18359375 -22.0234375 15.18359375 -19.1484375 15.30859375 C-19.2103125 14.09171875 -19.2721875 12.87484375 -19.3359375 11.62109375 C-19.32204679 7.69002264 -18.71957712 5.41169329 -16.1484375 2.30859375 C-11.45061641 -1.6983713 -5.72452847 -1.84225734 0 0 Z " fill="#5CD3F5" transform="translate(299.1484375,43.69140625)"/>
<path d="M0 0 C4.62783477 4.20712252 6.78437317 9.22944952 9 15 C9.67289063 16.65902344 9.67289063 16.65902344 10.359375 18.3515625 C14.7726129 30.1284614 15.6718723 40.75149166 12 53 C11.40500418 55.86276052 10.91897783 58.74122803 10.4375 61.625 C10.18668678 63.09643758 9.93539687 64.567794 9.68359375 66.0390625 C9.57587646 66.68053223 9.46815918 67.32200195 9.35717773 67.98291016 C8.9416064 70.32976616 8.47013902 72.66352697 8 75 C8.60482712 74.98747192 9.20965424 74.97494385 9.83280945 74.96203613 C16.24289973 74.82969065 22.65304709 74.70041051 29.06323242 74.57275391 C31.44182842 74.52500573 33.82040989 74.47652735 36.19897461 74.42724609 C41.93773841 74.30857151 47.67609766 74.20185462 53.41552734 74.12109375 C57.67682647 74.05805009 61.92520721 73.92347788 66.18212891 73.72265625 C68.06542539 73.65872741 69.94872594 73.59491821 71.83203125 73.53125 C73.10103523 73.44611145 73.10103523 73.44611145 74.39567566 73.35925293 C77.89553837 73.27057681 80.08097753 73.26165772 82.87435913 75.50585938 C85.13514506 78.06080209 86.7557807 80.13413158 87.6875 83.4375 C86.29938787 88.61137248 83.60525248 92.8053935 79.3125 96 C77 97 77 97 75 97 C75.54140625 97.8353125 75.54140625 97.8353125 76.09375 98.6875 C79.38305892 104.09658578 81.03908309 107.66159315 80 114 C77.25027378 118.16387113 74.42619634 120.72367045 70 123 C70.44832963 125.51064595 70.87411692 126.85397562 72.5625 128.8125 C74.60978082 131.92792733 74.26550108 134.34936012 74 138 C72.91931197 141.2420641 72.17869541 141.95597066 69.625 144.0625 C69.01914062 144.56910156 68.41328125 145.07570312 67.7890625 145.59765625 C66.24789069 146.80569267 64.62932413 147.91378391 63 149 C64.20381448 151.49361571 65.45428722 153.68143083 67 156 C67.80461658 159.94262124 67.50758119 162.19653025 65.3515625 165.609375 C59.43754897 173.21624743 59.43754897 173.21624743 55 175 C52.46994019 175.2784729 52.46994019 175.2784729 49.57763672 175.31884766 C48.48532242 175.3386821 47.39300812 175.35851654 46.26759338 175.37895203 C45.08358444 175.39053848 43.8995755 175.40212494 42.6796875 175.4140625 C41.44423691 175.43374588 40.20878632 175.45342926 38.93589783 175.47370911 C35.60330809 175.5243196 32.2708755 175.56618533 28.93811417 175.60230637 C26.87785628 175.62496858 24.81763798 175.64987701 22.75741577 175.67556763 C17.29441222 175.74357885 11.83141704 175.81070016 6.36827087 175.86628723 C-0.32316539 175.93605635 -7.01155955 176.03084111 -13.70111084 176.20526123 C-16.8355651 176.28515328 -19.97013625 176.34294128 -23.10516357 176.3949585 C-25.12481466 176.43621936 -27.14379679 176.50694721 -29.16259766 176.57861328 C-36.08525675 176.65961817 -40.31648117 176.15005596 -45.5402832 171.39477539 C-49.42474732 169.1921011 -53.60152607 169.24185826 -58 169 C-58.80680756 154.04497754 -59.21361459 139.1197799 -59.24023438 124.14282227 C-59.25018537 120.74928383 -59.28146795 117.35629426 -59.3125 113.96289062 C-59.31901065 111.79427435 -59.32426866 109.62565387 -59.328125 107.45703125 C-59.3404718 106.44784134 -59.3528186 105.43865143 -59.36553955 104.39888 C-59.36253845 103.46907822 -59.35953735 102.53927643 -59.35644531 101.58129883 C-59.36009094 100.76607254 -59.36373657 99.95084625 -59.36749268 99.11091614 C-58.79751551 95.83690803 -56.88275933 94.62312423 -54.2734375 92.78125 C-53.64695312 92.3584375 -53.02046875 91.935625 -52.375 91.5 C-43.54501605 84.93826881 -37.57571733 75.31991004 -32 66 C-31.6169873 65.36255859 -31.23397461 64.72511719 -30.83935547 64.06835938 C-29.5536633 61.92403183 -28.27518337 59.77559253 -27 57.625 C-26.41327515 56.63669189 -26.41327515 56.63669189 -25.81469727 55.62841797 C-24.99629422 54.23412655 -24.19193164 52.83152899 -23.39941406 51.42236328 C-22.36966894 49.63989101 -21.27868915 47.89244991 -20.15527344 46.16748047 C-14.48406871 36.90816478 -14.05726123 29.38506845 -14.25 18.875 C-14.26880955 16.63907471 -14.27749909 14.40399267 -14.26971436 12.16799927 C-14.26584127 10.16645417 -14.29265897 8.16491829 -14.32128906 6.16357422 C-14 3 -14 3 -12.67089844 1.12158203 C-8.64769169 -1.57897493 -4.48049632 -1.39686062 0 0 Z " fill="#FAFBFB" transform="translate(375,76)"/>
<path d="M0 0 C3.23499388 2.49760557 4.44136784 5.81824717 6.0625 9.5 C7.56055552 12.88491934 8.94506513 15.9175977 11 19 C11.59063596 21.30101925 12.00790946 23.60550768 12.4375 25.94140625 C12.87275231 28.20323279 12.87275231 28.20323279 15 30 C15.4657363 32.55867474 15.83484248 35.04687908 16.125 37.625 C16.21136719 38.33140625 16.29773438 39.0378125 16.38671875 39.765625 C16.59881183 41.50950141 16.80040991 43.2546484 17 45 C18.11375 44.34 19.2275 43.68 20.375 43 C23.75 41 23.75 41 26 41 C26.309375 40.195625 26.61875 39.39125 26.9375 38.5625 C28 36 28 36 29 35 C29.39148761 33.48834346 29.73972457 31.96530368 30.0625 30.4375 C30.23910156 29.61121094 30.41570312 28.78492188 30.59765625 27.93359375 C30.73042969 27.29550781 30.86320313 26.65742187 31 26 C31.99 26 32.98 26 34 26 C34.33 27.98 34.66 29.96 35 32 C38.3 31.67 41.6 31.34 45 31 C44.76254565 34.03941562 44.43959274 36.9883221 44 40 C43.92007813 40.72703125 43.84015625 41.4540625 43.7578125 42.203125 C43.21134659 44.71495076 42.70129014 46.04634458 41 48 C38.00390625 49.22265625 38.00390625 49.22265625 34.375 50.3125 C26.2016247 52.79490944 22.61773101 57.03476138 18 64 C16.66695053 66.00018922 15.33365249 68.00021281 14 70 C15.09541107 69.99333817 15.09541107 69.99333817 16.21295166 69.98654175 C23.09883988 69.94644914 29.98471062 69.91600749 36.87068558 69.89637566 C40.41074864 69.88594339 43.95071516 69.87179446 47.49072266 69.84912109 C51.56153281 69.82321149 55.63224172 69.81352262 59.703125 69.8046875 C60.97303284 69.79436493 62.24294067 69.78404236 63.55133057 69.77340698 C64.73225281 69.77325592 65.91317505 69.77310486 67.12988281 69.77294922 C68.16912903 69.768508 69.20837524 69.76406677 70.27911377 69.75949097 C73.02368182 70.00209332 74.66137358 70.58831989 77 72 C77 72.66 77 73.32 77 74 C77.556875 74.226875 78.11375 74.45375 78.6875 74.6875 C82.63101111 76.92570901 85.38923526 79.51338166 87.125 83.73828125 C88.92078443 90.43238837 89.56988274 98.26536556 86.0625 104.375 C85.50755859 105.13103516 85.50755859 105.13103516 84.94140625 105.90234375 C83.49480957 109.12567328 83.6039648 112.45940497 83.5 115.9375 C83.26616669 123.24646118 82.36515201 128.63484799 77 134 C76.74010195 137.51976211 76.63357709 140.99988863 76.609375 144.52734375 C76.4280517 150.29946875 75.18344688 153.81655312 71 158 C70.90513967 159.78969826 70.81617148 161.57996227 70.76147461 163.37133789 C70.48698705 171.50178608 70.0949229 177.93810068 64.0625 183.921875 C62.70293489 185.13148808 61.31776625 186.31328293 59.90234375 187.45703125 C58.02044107 188.92047237 58.02044107 188.92047237 56.58374023 190.46264648 C49.61868351 197.22370124 40.97100762 196.66258982 31.875 196.75 C30.4224197 196.77718015 28.96986359 196.80568253 27.51733398 196.83544922 C23.011718 196.9198953 18.50620901 196.96219726 14 197 C12.52001785 197.01513614 11.04003735 197.03043384 9.56005859 197.04589844 C5.39422809 197.08668393 1.22850094 197.11090359 -2.9375 197.125 C-4.22221191 197.12983398 -5.50692383 197.13466797 -6.83056641 197.13964844 C-8.00925293 197.13739258 -9.18793945 197.13513672 -10.40234375 197.1328125 C-11.43866943 197.13168457 -12.47499512 197.13055664 -13.54272461 197.12939453 C-16 197 -16 197 -18 196 C-19.7404417 195.91550372 -21.48409722 195.89276976 -23.2265625 195.90234375 C-24.2578125 195.90556641 -25.2890625 195.90878906 -26.3515625 195.91210938 C-27.43179688 195.92048828 -28.51203125 195.92886719 -29.625 195.9375 C-30.71296875 195.94201172 -31.8009375 195.94652344 -32.921875 195.95117188 C-35.61463789 195.96298224 -38.30729188 195.97945222 -41 196 C-41 195.67 -41 195.34 -41 195 C-43.31 194.34 -45.62 193.68 -48 193 C-48 192.34 -48 191.68 -48 191 C-49.65 191.33 -51.3 191.66 -53 192 C-53 191.01 -53 190.02 -53 189 C-54.64084807 188.76070966 -56.28223935 188.52471542 -57.92578125 188.3046875 C-59.32533322 188.09910359 -60.71946657 187.85317009 -62.10546875 187.5703125 C-64.46080029 187.08978735 -64.46080029 187.08978735 -68 187 C-70.33454661 188.83358335 -70.33454661 188.83358335 -72 191 C-72.99 191 -73.98 191 -75 191 C-74.97679687 190.30777344 -74.95359375 189.61554688 -74.9296875 188.90234375 C-74.77243145 180.37681922 -75.75294224 172.41763991 -77 164 C-77.33 172.91 -77.66 181.82 -78 191 C-96.02597526 191.94253465 -113.95681684 192.11542239 -132 192 C-133.8993874 176.97777135 -135.56883514 161.93604273 -137.125 146.875 C-137.25412781 145.63833084 -137.25412781 145.63833084 -137.38586426 144.37667847 C-138.47446818 133.92621073 -139.38754465 123.49001009 -140 113 C-141.32 112.67 -142.64 112.34 -144 112 C-144.495 109.525 -144.495 109.525 -145 107 C-144.01 107 -143.02 107 -142 107 C-142 106.34 -142 105.68 -142 105 C-134.60093791 100.5283263 -128.66514578 99.25970037 -120.0859375 99.29296875 C-119.11309814 99.27834595 -118.14025879 99.26372314 -117.13793945 99.24865723 C-113.55054148 99.20176771 -109.96269176 99.19702281 -106.375 99.1875 C-98.33125 99.125625 -90.2875 99.06375 -82 99 C-99.16 98.67 -116.32 98.34 -134 98 C-132.87439252 90.12074766 -132.87439252 90.12074766 -130.890625 87.4296875 C-130.46523437 86.84316406 -130.03984375 86.25664062 -129.6015625 85.65234375 C-129.15554687 85.06582031 -128.70953125 84.47929687 -128.25 83.875 C-127.81945312 83.28074219 -127.38890625 82.68648438 -126.9453125 82.07421875 C-124.22801081 78.38877664 -121.31334516 75.15840456 -118 72 C-118 75.96 -118 79.92 -118 84 C-116.16223999 83.98428955 -116.16223999 83.98428955 -114.28735352 83.96826172 C-109.7082821 83.93185023 -105.12922328 83.90902303 -100.55004883 83.89013672 C-98.57444094 83.8801271 -96.59884769 83.86651531 -94.62329102 83.84912109 C-91.77095918 83.82464991 -88.91882453 83.81346624 -86.06640625 83.8046875 C-85.19415909 83.79436493 -84.32191193 83.78404236 -83.42323303 83.77340698 C-77.66058495 83.77237089 -72.58718125 84.57422041 -67 86 C-67 85.34 -67 84.68 -67 84 C-66.34 83.67 -65.68 83.34 -65 83 C-63.98904036 81.33995832 -62.99087774 79.67210618 -62 78 C-60.68947056 76.35655381 -59.35523738 74.73177765 -58 73.125 C-54.77202518 69.1475685 -52.74813807 65.78437787 -51 61 C-50.01462479 58.9927542 -49.01936943 56.99019747 -48 55 C-47.34 55 -46.68 55 -46 55 C-45.87625 54.21625 -45.7525 53.4325 -45.625 52.625 C-45 50 -45 50 -43 48 C-42.30251417 46.68252676 -41.63040043 45.35085807 -41 44 C-40.67 44.66 -40.34 45.32 -40 46 C-37.13736577 43.13736577 -37.74531437 41.1246171 -37.7265625 37.12109375 C-37.70624751 35.7102789 -37.6853963 34.29947169 -37.6640625 32.88867188 C-37.64161244 30.67270495 -37.62505213 28.4570416 -37.61914062 26.2409668 C-37.54553077 9.86461393 -37.54553077 9.86461393 -33 3 C-31.0625 1.125 -31.0625 1.125 -29 0 C-27.7625 -0.804375 -27.7625 -0.804375 -26.5 -1.625 C-18.0088887 -6.29511121 -8.18185578 -4.48876124 0 0 Z M-24 11 C-23.99923696 13.15806109 -23.94053414 15.31612166 -23.859375 17.47265625 C-23.40045968 37.62548141 -26.3879978 50.98870131 -38 68 C-38.92913326 69.45715671 -39.85280818 70.91781656 -40.76953125 72.3828125 C-43.06844025 76.00586108 -45.49934701 79.5141462 -48 83 C-48.39171387 83.5563916 -48.78342773 84.1127832 -49.18701172 84.68603516 C-59.02030504 98.61484446 -59.02030504 98.61484446 -66.13671875 102.0234375 C-68.17328984 102.8594039 -68.17328984 102.8594039 -69 105 C-69.09484632 106.48686023 -69.12794448 107.97789188 -69.12939453 109.46777344 C-69.13254669 110.39765076 -69.13569885 111.32752808 -69.13894653 112.2855835 C-69.1369223 113.29993469 -69.13489807 114.31428589 -69.1328125 115.359375 C-69.13376923 116.41417053 -69.13472595 117.46896606 -69.13571167 118.5557251 C-69.13639422 120.80537983 -69.13453474 123.05503651 -69.13037109 125.3046875 C-69.12512984 128.66671502 -69.13025715 132.02860227 -69.13671875 135.390625 C-69.14057088 149.2875728 -68.76467863 163.12430537 -68 177 C-67.3275676 177.03697495 -66.65513519 177.07394989 -65.96232605 177.11204529 C-57.35237692 177.7452079 -57.35237692 177.7452079 -53.73828125 181.03515625 C-47.87846153 185.29348711 -42.19909631 184.68682225 -35.1875 184.4375 C-33.76803955 184.40782871 -32.34851734 184.38100705 -30.92895508 184.35668945 C-27.62271381 184.29597428 -24.31739229 184.21688523 -21.01171875 184.13085938 C-14.55260988 183.97537045 -8.09342072 183.9267119 -1.63277245 183.87626457 C2.45959394 183.8423668 6.55185632 183.79797597 10.64411449 183.75304508 C14.06819485 183.71554031 17.49222288 183.68138868 20.91641235 183.65548706 C24.80523796 183.62488585 28.69350774 183.56928372 32.58203125 183.51171875 C33.76087891 183.50529358 34.93972656 183.49886841 36.15429688 183.49224854 C37.79265503 183.46261017 37.79265503 183.46261017 39.46411133 183.43237305 C40.41635086 183.42126999 41.36859039 183.41016693 42.34968567 183.39872742 C48.60345996 182.45787627 52.01549011 178.16693907 55.6015625 173.34375 C57.60614058 169.98412193 57.80549152 167.80777809 57 164 C55.71937515 162.2925002 54.3927289 160.61736259 53 159 C54.34209166 154.97372501 56.48701801 154.24830847 60 152 C63.26683416 149.18376365 63.91010418 146.97087483 64.3125 142.625 C63.94748979 138.39088158 62.75984692 137.10482778 60 134 C60 133.01 60 132.02 60 131 C61.66666667 130 63.33333333 129 65 128 C68.41908428 124.73287502 69.85428774 122.88884479 70.625 118.1875 C70.33194803 113.1372378 67.69261118 109.15431439 65 105 C65.721875 104.773125 66.44375 104.54625 67.1875 104.3125 C71.23230788 102.42492299 73.87280348 99.7176328 76.3125 96 C77.24591643 93.28460675 77.53389252 91.86967227 77 89 C75.0352906 85.63939563 72.84166334 82.52394184 68.97817993 81.42480469 C66.56324616 81.28637348 64.24566176 81.36931749 61.83203125 81.53125 C60.92524124 81.56190552 60.01845123 81.59256104 59.08418274 81.62414551 C57.1054483 81.69131401 55.12714979 81.77242522 53.1494751 81.86572266 C48.77199684 82.05235571 44.39560948 82.10730278 40.01486206 82.16894531 C34.23855564 82.25255966 28.46315149 82.38033483 22.6875 82.5 C20.27799863 82.54836857 17.86849343 82.59654672 15.45898438 82.64453125 C9.6392771 82.76083393 3.81962088 82.87945538 -2 83 C-1.6882148 81.11055899 -1.37553954 79.22126485 -1.0625 77.33203125 C-0.80146484 75.7538562 -0.80146484 75.7538562 -0.53515625 74.14379883 C0.41148228 68.58272933 1.35641946 63.06674354 3.03515625 57.67578125 C7.21928711 41.73542844 1.58591462 27.54835001 -5.5703125 13.390625 C-6.90168879 11.16438924 -7.96698755 9.59591477 -10 8 C-15.89911621 6.6679415 -19.46022273 6.46022273 -24 11 Z " fill="#8BDEF5" transform="translate(385,68)"/>
<path d="M0 0 C7.06564241 -0.12658532 14.13099346 -0.21426063 21.19750977 -0.2746582 C23.60224332 -0.29983101 26.00690015 -0.33397182 28.41137695 -0.37719727 C31.86428733 -0.43772467 35.31618795 -0.46618244 38.76953125 -0.48828125 C40.38683891 -0.52699089 40.38683891 -0.52699089 42.03681946 -0.56648254 C43.53803596 -0.56704903 43.53803596 -0.56704903 45.06958008 -0.56762695 C46.39195427 -0.58428154 46.39195427 -0.58428154 47.74104309 -0.60127258 C50 0 50 0 51.78686523 2.0123291 C53.341816 5.8418139 53.39700737 9.3059717 53.34057617 13.37036133 C53.34123329 14.61503677 53.34123329 14.61503677 53.34190369 15.88485718 C53.33981982 18.61749095 53.3165079 21.34950514 53.29296875 24.08203125 C53.28737136 25.98060267 53.28310194 27.87917843 53.28010559 29.77775574 C53.26866806 34.76732409 53.2392102 39.75662919 53.20599365 44.74609375 C53.17526928 49.84045857 53.16159519 54.93486605 53.14648438 60.02929688 C53.11433952 70.01964672 53.06315629 80.00980144 53 90 C39.67897939 90.65649213 26.39992972 91.14941057 13.0625 91.0625 C11.67382983 91.05745029 10.28515778 91.0528938 8.89648438 91.04882812 C5.59760402 91.03733377 2.2988303 91.02110264 -1 91 C-2.8993874 75.97777135 -4.56883514 60.93604273 -6.125 45.875 C-6.21108521 45.05055389 -6.29717041 44.22610779 -6.38586426 43.37667847 C-7.47446818 32.92621073 -8.38754465 22.49001009 -9 12 C-6.525 12.495 -6.525 12.495 -4 13 C-4 13.66 -4 14.32 -4 15 C-2.97519531 14.938125 -1.95039063 14.87625 -0.89453125 14.8125 C3.36990775 15.017809 5.58625239 15.99534375 9.3125 18 C15.21806591 20.88159072 19.51676357 21.80473739 26 21 C26.71671875 20.91878906 27.4334375 20.83757812 28.171875 20.75390625 C29.78716013 20.54391918 31.39521113 20.27909372 33 20 C33 16.7 33 13.4 33 10 C31.55625 9.690625 30.1125 9.38125 28.625 9.0625 C26.21076314 8.54516353 24.21029533 8.10514766 22 7 C19.12175912 6.87485909 16.68651497 6.77116168 13.9375 7.6875 C10.91949578 8.17427487 9.48777922 6.67780459 7 5 C5.73442348 4.26174703 4.46339919 3.53276567 3.1875 2.8125 C2.135625 2.214375 1.08375 1.61625 0 1 C0 0.67 0 0.34 0 0 Z " fill="#F4F6F5" transform="translate(254,169)"/>
<path d="M0 0 C3.08964868 0.93407983 5.75367088 1.8460443 8.5 3.5625 C11.35964629 5.20679662 13.7594534 5.53261347 17 6 C20.6291248 32.73239247 20.23954954 60.29188067 16.73046875 87 C15.86008271 93.69494455 15.51763423 100.37591385 15.29125977 107.11962891 C15.16308889 110.88060649 14.96621814 114.58642014 14.51953125 118.32421875 C13.8628851 123.94001341 13.51165554 129.53777174 13.3125 135.1875 C13.23322266 136.24130859 13.15394531 137.29511719 13.07226562 138.38085938 C12.98651791 141.54554819 13.03225365 143.98056304 14 147 C16.37889149 149.1572257 18.64134112 150.45049461 21.54370117 151.80981445 C23.93836857 152.97013684 25.38914421 153.89438378 27 156 C26.6875 158.6875 26.6875 158.6875 26 161 C22.68757688 161.0588996 19.37529149 161.09389398 16.0625 161.125 C15.13630859 161.14175781 14.21011719 161.15851563 13.25585938 161.17578125 C7.37629036 161.21704138 1.58576756 161.02113076 -4 159 C-6.125 156.8125 -6.125 156.8125 -7 154 C-6.72914139 149.12454507 -5.42154643 144.64371833 -4 140 C-4.66 140 -5.32 140 -6 140 C-6.29369558 131.77866094 -6.58206041 123.55714216 -6.86721802 115.33550262 C-6.937227 113.32035811 -7.00765874 111.30522867 -7.078125 109.2901001 C-7.56515445 95.32127779 -8.02739879 81.35425755 -8.28515625 67.37890625 C-8.30472885 66.34359268 -8.32430145 65.30827911 -8.34446716 64.24159241 C-8.43323315 59.42847928 -8.51007352 54.61555757 -8.57006836 49.80200195 C-8.59856653 48.08414332 -8.62728071 46.36628825 -8.65625 44.6484375 C-8.66145157 43.89780533 -8.66665314 43.14717316 -8.67201233 42.37379456 C-8.75954938 37.75373989 -9.414058 33.53419191 -10.53414917 29.04960632 C-11.25735697 25.86770519 -11.43560611 22.68876171 -11.625 19.4375 C-11.69976562 18.21933594 -11.77453125 17.00117188 -11.8515625 15.74609375 C-11.90054687 14.83988281 -11.94953125 13.93367188 -12 13 C-5.25 9 -5.25 9 -3 9 C-2.01 6.03 -1.02 3.06 0 0 Z " fill="#515253" transform="translate(322,259)"/>
<path d="M0 0 C10.56 0 21.12 0 32 0 C31.35942996 5.12456032 30.67551346 10.06379398 29.72265625 15.1171875 C29.59585983 15.79149811 29.46906342 16.46580872 29.33842468 17.16055298 C28.91613589 19.39928565 28.489633 21.63718682 28.0625 23.875 C27.91437866 24.65480225 27.76625732 25.43460449 27.61364746 26.23803711 C24.74255541 41.34178567 21.75777759 56.42295813 18.75 71.5 C18.53594513 72.57554138 18.32189026 73.65108276 18.10134888 74.75921631 C17.48131507 77.87119183 16.85878948 80.98265064 16.234375 84.09375 C15.94130714 85.55488976 15.94130714 85.55488976 15.64231873 87.04554749 C14.59994827 92.1941129 13.47574864 97.30611551 12.234375 102.41015625 C11.07495966 107.30340498 10.58149293 111.92102832 10.5 116.9375 C9.70907606 137.26250706 9.70907606 137.26250706 4.765625 142.2578125 C-0.58371673 145.62759557 -5.22948713 146.29338258 -11.5 146.3125 C-12.7684375 146.32925781 -14.036875 146.34601563 -15.34375 146.36328125 C-19.22150275 145.97799171 -21.66044186 144.95322922 -25 143 C-24.43272965 139.66100362 -23.54238399 138.20455722 -20.9375 136.0625 C-20.31359375 135.53269531 -19.6896875 135.00289062 -19.046875 134.45703125 C-17 133 -17 133 -14.828125 132.13671875 C-12.18531116 131.04197652 -10.88934654 130.18250316 -9 128 C-8.41194593 125.30371357 -8.05626655 122.89305164 -7.8359375 120.1640625 C-7.76069351 119.37506561 -7.68544952 118.58606873 -7.60792542 117.77316284 C-6.7209518 107.91153446 -6.33441724 98.01593547 -5.9375 88.125 C-5.82145201 85.29111289 -5.70355669 82.45734939 -5.58070374 79.62374878 C-5.50531937 77.88102278 -5.43385218 76.13812144 -5.3669281 74.39505005 C-5.33341751 73.61257904 -5.29990692 72.83010803 -5.26538086 72.02392578 C-5.2381041 71.34097443 -5.21082733 70.65802307 -5.182724 69.95437622 C-5 68 -5 68 -4.51345825 66.14407349 C-3.83689409 63.31891045 -3.69624123 60.57066269 -3.51928711 57.67089844 C-3.43927963 56.38987244 -3.35927216 55.10884644 -3.27684021 53.78900146 C-3.19359463 52.39579743 -3.11043106 51.00258849 -3.02734375 49.609375 C-2.93941828 48.18017602 -2.85116191 46.75099735 -2.7625885 45.32183838 C-2.53078279 41.56721305 -2.30346627 37.81232896 -2.0770874 34.05737305 C-1.80430937 29.54836536 -1.52595006 25.03969919 -1.24852753 20.53097534 C-0.82807814 13.68756884 -0.41471532 6.84376724 0 0 Z " fill="#515455" transform="translate(268,272)"/>
<path d="M0 0 C4.37076868 2.0011757 7.1518608 4.55671416 10.3515625 8.078125 C11.99158002 9.65339467 11.99158002 9.65339467 15.4140625 9.68359375 C18.8515625 10.30859375 18.8515625 10.30859375 20.44140625 11.95703125 C22.54269928 15.08859815 23.8515625 17.30446748 23.8515625 21.12109375 C22.78162837 23.46157466 21.88705791 24.74282805 19.8515625 26.30859375 C18.8615625 26.63859375 17.8715625 26.96859375 16.8515625 27.30859375 C16.76068359 28.95794922 16.76068359 28.95794922 16.66796875 30.640625 C16.45404212 34.47221148 16.21892157 38.3022576 15.97949219 42.13232422 C15.86886208 44.01430279 15.78363488 45.89774249 15.703125 47.78125 C15.64898437 48.73902344 15.59484375 49.69679687 15.5390625 50.68359375 C15.50167969 51.51632813 15.46429688 52.3490625 15.42578125 53.20703125 C14.64799806 56.05361192 13.35602755 56.85196305 10.8515625 58.30859375 C10.1915625 58.30859375 9.5315625 58.30859375 8.8515625 58.30859375 C8.81289063 59.34306641 8.81289063 59.34306641 8.7734375 60.3984375 C8.36615341 67.14639443 7.02041832 72.33935371 3.8515625 78.30859375 C0.6015625 78.62109375 0.6015625 78.62109375 -3.1484375 78.30859375 C-10.32074782 70.64069193 -13.76959737 61.70451865 -14.04296875 51.31640625 C-14.15098761 48.23586833 -14.58369553 45.33561073 -15.1484375 42.30859375 C-16.1384375 42.30859375 -17.1284375 42.30859375 -18.1484375 42.30859375 C-20.1484375 39.30859375 -20.1484375 39.30859375 -20.4609375 35.37109375 C-20.79806226 31.90443349 -20.95387929 31.49342405 -23.6484375 28.93359375 C-24.4734375 28.39734375 -25.2984375 27.86109375 -26.1484375 27.30859375 C-27.26289248 25.0796838 -27.31324036 23.77804269 -27.3359375 21.30859375 C-27.35011719 20.60734375 -27.36429687 19.90609375 -27.37890625 19.18359375 C-27.1484375 17.30859375 -27.1484375 17.30859375 -25.1484375 15.30859375 C-22.0234375 15.18359375 -22.0234375 15.18359375 -19.1484375 15.30859375 C-19.2103125 14.09171875 -19.2721875 12.87484375 -19.3359375 11.62109375 C-19.32204679 7.69002264 -18.71957712 5.41169329 -16.1484375 2.30859375 C-11.45061641 -1.6983713 -5.72452847 -1.84225734 0 0 Z " fill="#BC856D" transform="translate(299.1484375,43.69140625)"/>
<path d="M0 0 C0.433125 0.639375 0.86625 1.27875 1.3125 1.9375 C2.91239177 4.26746003 2.91239177 4.26746003 6 5 C7.47060644 7.94121288 7.43398116 11.02040139 7.68359375 14.25390625 C7.74402359 14.98761948 7.80445343 15.7213327 7.86671448 16.47727966 C8.06088437 18.83872068 8.2496912 21.20054517 8.4375 23.5625 C9.38492482 35.41094223 10.53126164 47.20426783 12 59 C12.11432373 59.92256592 12.22864746 60.84513184 12.34643555 61.7956543 C12.48819214 62.93514526 12.48819214 62.93514526 12.6328125 64.09765625 C12.87644531 66.06025391 12.87644531 66.06025391 13.125 68.0625 C13.21136719 68.72958984 13.29773438 69.39667969 13.38671875 70.08398438 C13.9589562 74.76633998 14.07345249 79.29379434 14 84 C14.81863525 83.96970703 15.63727051 83.93941406 16.48071289 83.90820312 C33.6663153 83.28340321 50.79943666 82.88757802 68 83 C68 70.13 68 57.26 68 44 C68.33 44 68.66 44 69 44 C69.13277344 45.26714844 69.26554687 46.53429687 69.40234375 47.83984375 C69.58071494 49.53906399 69.75910116 51.23828266 69.9375 52.9375 C70.02451172 53.76830078 70.11152344 54.59910156 70.20117188 55.45507812 C70.28818359 56.28330078 70.37519531 57.11152344 70.46484375 57.96484375 C70.59524048 59.21962524 70.59524048 59.21962524 70.72827148 60.49975586 C70.90683195 62.1427367 71.09866451 63.78433943 71.30493164 65.42407227 C71.84218571 69.750716 72.05913007 73.70319157 71.5625 78.0625 C71.46066406 79.00222656 71.35882813 79.94195312 71.25390625 80.91015625 C71.12822266 81.94462891 71.12822266 81.94462891 71 83 C73.62901288 81.47793991 75.84365964 80.15634036 78 78 C83.22786215 78.35443133 88.05048154 79.28282013 93 81 C93.33 81.66 93.66 82.32 94 83 C95.32 83 96.64 83 98 83 C98 83.66 98 84.32 98 85 C100.64 85.33 103.28 85.66 106 86 C106 86.33 106 86.66 106 87 C114.25 87 122.5 87 131 87 C130.67 87.66 130.34 88.32 130 89 C125.07459415 89.14982515 120.15055241 89.25789768 115.22338867 89.32958984 C113.55225482 89.35951484 111.88127462 89.40027153 110.21069336 89.45263672 C99.69019989 89.77382509 91.82107103 89.55209211 83 83 C82.88011719 83.93328125 82.76023437 84.8665625 82.63671875 85.828125 C81.80199229 89.98639424 80.28080064 91.37535949 77 94 C75.01985568 94.72351427 73.02178685 95.40265389 71 96 C70.67 96.66 70.34 97.32 70 98 C70 97.34 70 96.68 70 96 C68.76862305 96.16387207 67.53724609 96.32774414 66.26855469 96.49658203 C60.40755782 97.14347131 54.59336713 97.11561955 48.703125 97.0546875 C47.55132751 97.04293488 46.39953003 97.03118225 45.21282959 97.01907349 C42.79239607 96.99048795 40.3720021 96.95835464 37.95166016 96.92285156 C35.47684159 96.89085945 33.00185901 96.8697619 30.52685547 96.859375 C26.9390743 96.84417052 23.35299616 96.7968525 19.765625 96.7421875 C18.66035461 96.74298309 17.55508423 96.74377869 16.4163208 96.74459839 C8.75426746 96.57474107 8.75426746 96.57474107 4.84277344 93.59423828 C-1.11660313 85.20468669 -0.15060745 74.88988951 0 65 C-0.66 65 -1.32 65 -2 65 C-2.03092239 64.30953079 -2.06184479 63.61906158 -2.09370422 62.90766907 C-2.41827715 55.72055993 -2.76203555 48.53455067 -3.11694336 41.34887695 C-3.24841155 38.66716929 -3.3730759 35.98527355 -3.49194336 33.30297852 C-3.66535082 29.44733863 -3.85634032 25.59291055 -4.05078125 21.73828125 C-4.10091873 20.53915604 -4.15105621 19.34003082 -4.20271301 18.10456848 C-4.26254868 16.98378403 -4.32238434 15.86299957 -4.3840332 14.70825195 C-4.43066605 13.72452103 -4.47729889 12.7407901 -4.52534485 11.72724915 C-5.06997072 8.59796586 -6.29316308 6.64899109 -8 4 C-8 3.34 -8 2.68 -8 2 C-5.03 2.495 -5.03 2.495 -2 3 C-2 2.34 -2 1.68 -2 1 C-1.34 0.67 -0.68 0.34 0 0 Z " fill="#71D0EB" transform="translate(239,176)"/>
<path d="M0 0 C4.37076868 2.0011757 7.1518608 4.55671416 10.3515625 8.078125 C11.99158002 9.65339467 11.99158002 9.65339467 15.4140625 9.68359375 C18.8515625 10.30859375 18.8515625 10.30859375 20.44140625 11.95703125 C22.54269928 15.08859815 23.8515625 17.30446748 23.8515625 21.12109375 C22.0739039 25.00972195 19.70851322 26.63495264 15.8515625 28.30859375 C10.01681187 29.35663186 5.71489239 28.66458151 0.7265625 25.43359375 C-1.53125 23.81640625 -1.53125 23.81640625 -3.1484375 22.30859375 C-3.1484375 21.64859375 -3.1484375 20.98859375 -3.1484375 20.30859375 C-8.0984375 20.80359375 -8.0984375 20.80359375 -13.1484375 21.30859375 C-13.8084375 24.27859375 -14.4684375 27.24859375 -15.1484375 30.30859375 C-17.8359375 31.05859375 -17.8359375 31.05859375 -21.1484375 31.30859375 C-23.89560137 29.53819926 -25.67989672 28.24567531 -27.1484375 25.30859375 C-27.31640625 23.43359375 -27.31640625 23.43359375 -27.3359375 21.30859375 C-27.35011719 20.60734375 -27.36429687 19.90609375 -27.37890625 19.18359375 C-27.1484375 17.30859375 -27.1484375 17.30859375 -25.1484375 15.30859375 C-22.0234375 15.18359375 -22.0234375 15.18359375 -19.1484375 15.30859375 C-19.2103125 14.09171875 -19.2721875 12.87484375 -19.3359375 11.62109375 C-19.32204679 7.69002264 -18.71957712 5.41169329 -16.1484375 2.30859375 C-11.45061641 -1.6983713 -5.72452847 -1.84225734 0 0 Z " fill="#636465" transform="translate(299.1484375,43.69140625)"/>
<path d="M0 0 C2.98050507 1.39513004 5.64830127 2.72645654 8.25 4.75 C11.35905476 6.16320671 12.34129417 5.95025533 15.625 5.4375 C21.65931954 4.58452852 26.63028055 6.24204972 32 9 C33.36952673 11.73905345 33.12621361 13.97087332 33 17 C32 19 32 19 29.0625 20.125 C19.80132674 22.41681164 13.5908582 20.843005 5.17578125 16.41015625 C1.74149438 14.8852146 -1.27619591 14.37003839 -5 14 C-5 13.34 -5 12.68 -5 12 C-6.918125 11.814375 -6.918125 11.814375 -8.875 11.625 C-12.75 11.25 -12.75 11.25 -15 9 C-15 7.68 -15 6.36 -15 5 C-14.01 5 -13.02 5 -12 5 C-12 4.34 -12 3.68 -12 3 C-10.75823305 2.29773859 -9.50614401 1.61370891 -8.25 0.9375 C-7.20585937 0.36322266 -7.20585937 0.36322266 -6.140625 -0.22265625 C-3.58188378 -1.15183418 -2.52076125 -0.92924193 0 0 Z " fill="#BC8870" transform="translate(255,170)"/>
<path d="M0 0 C0.66 0.33 1.32 0.66 2 1 C2.625 4.0625 2.625 4.0625 3 7 C6.3 6.67 9.6 6.34 13 6 C12.76254565 9.03941562 12.43959274 11.9883221 12 15 C11.88011719 16.09054688 11.88011719 16.09054688 11.7578125 17.203125 C11.21134659 19.71495076 10.70129014 21.04634458 9 23 C6.00390625 24.22265625 6.00390625 24.22265625 2.375 25.3125 C-4.76377849 27.45855841 -7.89303605 30.45509011 -12.1328125 36.4765625 C-13.91047012 38.87900355 -15.52573388 40.36148599 -18 42 C-17.69003741 39.27052356 -17.37712025 36.54144015 -17.0625 33.8125 C-16.97548828 33.04357422 -16.88847656 32.27464844 -16.79882812 31.48242188 C-16.54817184 29.31935099 -16.27746255 27.15977272 -16 25 C-15.88398438 24.0409375 -15.76796875 23.081875 -15.6484375 22.09375 C-15 20 -15 20 -13.44140625 18.63671875 C-8.22222222 16 -8.22222222 16 -6 16 C-5.690625 15.195625 -5.38125 14.39125 -5.0625 13.5625 C-4 11 -4 11 -3 10 C-2.63272554 8.50794753 -2.3050154 7.00601352 -2 5.5 C-1.11111111 1.11111111 -1.11111111 1.11111111 0 0 Z " fill="#BB8971" transform="translate(417,93)"/>
<path d="M0 0 C1.72089844 -0.00386719 1.72089844 -0.00386719 3.4765625 -0.0078125 C6.375 0.125 6.375 0.125 8.375 1.125 C8.66531128 4.50551357 8.7940008 7.75177836 8.375 11.125 C4.56157831 15.61137846 -0.54018579 16.95349285 -6.28125 17.42578125 C-8.18390625 17.43158203 -8.18390625 17.43158203 -10.125 17.4375 C-11.3934375 17.45425781 -12.661875 17.47101563 -13.96875 17.48828125 C-17.84650275 17.10299171 -20.28544186 16.07822922 -23.625 14.125 C-22.79513578 9.06937981 -19.53271409 7.07860131 -15.625 4.125 C-10.31982997 0.54709463 -6.36885342 -0.01437664 0 0 Z " fill="#454846" transform="translate(266.625,400.875)"/>
<path d="M0 0 C3.87676974 1.45264303 6.88333679 3.29186347 10 6 C10.59941406 6.45761719 11.19882812 6.91523438 11.81640625 7.38671875 C13 9 13 9 12.6875 11.6875 C12.460625 12.450625 12.23375 13.21375 12 14 C8.68757688 14.0588996 5.37529149 14.09389398 2.0625 14.125 C0.67321289 14.15013672 0.67321289 14.15013672 -0.74414062 14.17578125 C-6.60752332 14.2169278 -12.43932728 14.05705259 -18 12 C-20.34668147 9.36887229 -20.89243329 7.77089478 -21.375 4.3125 C-21.25125 3.549375 -21.1275 2.78625 -21 2 C-15.36536525 -1.75642317 -6.6140253 -0.92050868 0 0 Z " fill="#4D4F51" transform="translate(336,406)"/>
<path d="M0 0 C1.00546875 0.22816406 1.00546875 0.22816406 2.03125 0.4609375 C3.9375 0.9375 3.9375 0.9375 7 2 C7.495 2.99 7.495 2.99 8 4 C9.32 4 10.64 4 12 4 C12 4.66 12 5.32 12 6 C14.64 6.33 17.28 6.66 20 7 C20 7.33 20 7.66 20 8 C28.25 8 36.5 8 45 8 C44.67 8.66 44.34 9.32 44 10 C39.07459415 10.14982515 34.15055241 10.25789768 29.22338867 10.32958984 C27.55225482 10.35951484 25.88127462 10.40027153 24.21069336 10.45263672 C13.69019989 10.77382509 5.82107103 10.55209211 -3 4 C-3.11988281 4.93328125 -3.23976563 5.8665625 -3.36328125 6.828125 C-4.19800771 10.98639424 -5.71919936 12.37535949 -9 15 C-10.98014432 15.72351427 -12.97821315 16.40265389 -15 17 C-15.33 17.66 -15.66 18.32 -16 19 C-16 18.34 -16 17.68 -16 17 C-18.97 17.33 -21.94 17.66 -25 18 C-25 17.34 -25 16.68 -25 16 C-27.64 16 -30.28 16 -33 16 C-32 14 -32 14 -30.109375 13.2890625 C-28.94148438 12.96035156 -28.94148438 12.96035156 -27.75 12.625 C-23.74671566 11.38150756 -21.20090789 9.74363533 -18 7 C-15.6875 6.25 -15.6875 6.25 -14 6 C-14 5.34 -14 4.68 -14 4 C-9.43842314 -0.90369513 -6.57075325 -1.69323257 0 0 Z " fill="#6BD5F2" transform="translate(325,255)"/>
<path d="M0 0 C1.12864471 -0.00570007 2.25728943 -0.01140015 3.4201355 -0.01727295 C5.79521763 -0.02667954 8.17031255 -0.03323956 10.54541016 -0.03710938 C14.17503366 -0.04686249 17.80410169 -0.07794657 21.43359375 -0.109375 C23.74739249 -0.11590148 26.06119525 -0.12115334 28.375 -0.125 C29.99705856 -0.1435202 29.99705856 -0.1435202 31.65188599 -0.16241455 C37.16902258 -0.14609863 41.35508116 -0.0484423 46.0546875 3.203125 C47.10573133 4.83808207 48.11457068 6.50196124 49.0546875 8.203125 C50.0446875 8.533125 51.0346875 8.863125 52.0546875 9.203125 C56.00621247 13.75900085 55.53580214 18.86857188 55.4921875 24.578125 C55.51216797 25.49851563 55.53214844 26.41890625 55.55273438 27.3671875 C55.54959282 31.76536286 55.45604179 35.08846582 53.06640625 38.859375 C50.62872578 42.91113127 50.46458269 45.71323616 50.4296875 50.328125 C50.31791579 56.30791144 50.17910048 60.89102892 45.9765625 65.46484375 C43.30750718 69.26770509 43.38847875 72.47185412 43.3046875 77.015625 C43.27503906 77.80388672 43.24539063 78.59214844 43.21484375 79.40429688 C43.14457457 81.33669946 43.09731616 83.26991515 43.0546875 85.203125 C42.0646875 85.533125 41.0746875 85.863125 40.0546875 86.203125 C40.5496875 84.718125 40.5496875 84.718125 41.0546875 83.203125 C41.24984265 79.58914067 41.39981294 75.98132934 41.484375 72.36328125 C41.66511702 68.01794177 41.90617843 66.11379881 45.0546875 63.203125 C47.70349115 58.11742199 48.43281667 53.93957598 48.4921875 48.203125 C48.76555614 39.78489504 48.76555614 39.78489504 51.1171875 36.578125 C54.82227905 30.12409455 53.74351057 21.60799974 52.3046875 14.453125 C51.39319403 11.17990437 51.39319403 11.17990437 49.1796875 9.890625 C48.4784375 9.66375 47.7771875 9.436875 47.0546875 9.203125 C44.8046875 7.703125 44.8046875 7.703125 43.0546875 6.203125 C43.0546875 5.543125 43.0546875 4.883125 43.0546875 4.203125 C39.72314962 3.20931021 36.65383903 3.04969351 33.18457031 2.99780273 C32.00364807 2.97785751 30.82272583 2.95791229 29.60601807 2.93736267 C28.33611023 2.92065018 27.06620239 2.90393768 25.7578125 2.88671875 C24.45390564 2.86593765 23.14999878 2.84515656 21.80657959 2.82374573 C18.34772942 2.76867264 14.8888211 2.7191986 11.42987061 2.67089844 C7.89720512 2.62057528 4.36462361 2.56494578 0.83203125 2.50976562 C-6.09367713 2.40236479 -13.01946144 2.30088003 -19.9453125 2.203125 C-19.9453125 1.873125 -19.9453125 1.543125 -19.9453125 1.203125 C-13.27542072 0.20409273 -6.73861208 0.02658279 0 0 Z " fill="#C3F1FC" transform="translate(418.9453125,135.796875)"/>
<path d="M0 0 C2.475 0.495 2.475 0.495 5 1 C5 1.66 5 2.32 5 3 C6.02480469 2.938125 7.04960937 2.87625 8.10546875 2.8125 C12.36990775 3.017809 14.58625239 3.99534375 18.3125 6 C26.24578927 9.8754574 32.46734111 9.79634924 41 8 C39.17070628 11.65858745 35.52655388 12.81415745 31.8125 14.125 C30.4203125 14.558125 30.4203125 14.558125 29 15 C28.01 15.495 28.01 15.495 27 16 C18.99808236 16.66682647 11.70705333 14.33985804 5 10 C3.68 9.67 2.36 9.34 1 9 C0.67 6.03 0.34 3.06 0 0 Z " fill="#D6D7D8" transform="translate(245,181)"/>
<path d="M0 0 C0.33 0 0.66 0 1 0 C1.19916016 1.90072266 1.19916016 1.90072266 1.40234375 3.83984375 C1.58071494 5.53906399 1.75910116 7.23828266 1.9375 8.9375 C2.06801758 10.18370117 2.06801758 10.18370117 2.20117188 11.45507812 C2.33168945 12.69741211 2.33168945 12.69741211 2.46484375 13.96484375 C2.55241943 14.80265381 2.63999512 15.64046387 2.73022461 16.50366211 C2.90632061 18.13314772 3.09161867 19.76167263 3.28735352 21.38891602 C3.83617943 25.97382815 4.11120526 30.43550041 4.0625 35.0625 C4.05347656 36.18785156 4.04445313 37.31320312 4.03515625 38.47265625 C4.02355469 39.30667969 4.01195312 40.14070313 4 41 C1.38478215 42.30760893 -0.53113401 42.11997548 -3.45947266 42.11352539 C-4.60050446 42.11344986 -5.74153625 42.11337433 -6.91714478 42.11329651 C-8.15362762 42.10813522 -9.39011047 42.10297394 -10.6640625 42.09765625 C-11.92640717 42.0962413 -13.18875183 42.09482635 -14.48934937 42.09336853 C-17.84638299 42.08871078 -21.203349 42.07972408 -24.56036377 42.06866455 C-27.98554906 42.0584377 -31.41074134 42.05386818 -34.8359375 42.04882812 C-41.55731284 42.03778238 -48.27864714 42.02050924 -55 42 C-55.33 36.72 -55.66 31.44 -56 26 C-55.67 26 -55.34 26 -55 26 C-54.04602713 30.76986433 -53.96001195 35.16144615 -54 40 C-53.18136475 39.96970703 -52.36272949 39.93941406 -51.51928711 39.90820312 C-34.3336847 39.28340321 -17.20056334 38.88757802 0 39 C0 26.13 0 13.26 0 0 Z " fill="#7EC4D7" transform="translate(307,220)"/>
<path d="M0 0 C6.76281727 3.76433207 8.74800015 10.61109382 11.44140625 17.47265625 C12.62078523 20.40328927 12.62078523 20.40328927 14.3046875 23.05078125 C15.9510969 25.81805128 16.20672012 28.21558937 16.6875 31.375 C17.3475 32.365 18.0075 33.355 18.6875 34.375 C19.21140998 36.9404957 19.57170561 39.50419171 19.9296875 42.09765625 C20.47824858 44.54859205 20.47824858 44.54859205 22.7578125 45.68359375 C23.39460938 45.91175781 24.03140625 46.13992187 24.6875 46.375 C22.7075 47.035 20.7275 47.695 18.6875 48.375 C18.50574219 47.35019531 18.32398438 46.32539062 18.13671875 45.26953125 C17.88333322 43.9087571 17.6293978 42.54808527 17.375 41.1875 C17.19807617 40.17719727 17.19807617 40.17719727 17.01757812 39.14648438 C16.22107888 34.95975759 15.0107424 31.92231635 12.6875 28.375 C12.378125 27.281875 12.06875 26.18875 11.75 25.0625 C10.73413766 21.53686012 9.45448557 18.6441517 7.7421875 15.42578125 C6.6875 13.375 6.6875 13.375 5.8203125 11.23046875 C3.78254298 6.37047861 1.72257443 4.10095069 -3.17578125 2.0546875 C-10.26798896 -0.2013347 -18.3319243 -0.57105923 -25.125 2.75 C-26.2078125 3.554375 -26.2078125 3.554375 -27.3125 4.375 C-28.01375 4.74625 -28.715 5.1175 -29.4375 5.5 C-32.88351018 8.94601018 -34.18484388 13.82627958 -34.42578125 18.63671875 C-34.40902344 19.33410156 -34.39226562 20.03148438 -34.375 20.75 C-34.3125 24.375 -34.3125 24.375 -36.3125 27.375 C-36.86478231 12.62701686 -36.86478231 12.62701686 -33.3125 6.375 C-32.9825 5.715 -32.6525 5.055 -32.3125 4.375 C-31.6525 4.375 -30.9925 4.375 -30.3125 4.375 C-30.3125 3.715 -30.3125 3.055 -30.3125 2.375 C-21.87370066 -3.37056551 -9.47130276 -3.74446853 0 0 Z " fill="#C2EFFA" transform="translate(383.3125,64.625)"/>
<path d="M0 0 C0.99 0.495 0.99 0.495 2 1 C2 2.32 2 3.64 2 5 C2.495 5.598125 2.99 6.19625 3.5 6.8125 C5.82834145 10.20799795 5.72114403 11.93537001 5 16 C1.86831973 20.93813414 -1.44454866 25.76688647 -7 28 C-9.53005981 28.2784729 -9.53005981 28.2784729 -12.42236328 28.31884766 C-13.5146524 28.33869217 -14.60694153 28.35853668 -15.73233032 28.37898254 C-16.91636444 28.39055893 -18.10039856 28.40213531 -19.3203125 28.4140625 C-21.17382828 28.44345161 -21.17382828 28.44345161 -23.06478882 28.47343445 C-26.39748468 28.52385717 -29.73003433 28.56553822 -33.06289673 28.60190201 C-35.80732704 28.63264287 -38.55167915 28.66863224 -41.29604721 28.70444202 C-47.39162586 28.78372027 -53.48724109 28.85337791 -59.58300781 28.91650391 C-64.99923407 28.9738993 -70.41446398 29.0533162 -75.83004761 29.15368652 C-79.01319831 29.21011718 -82.1963643 29.25063325 -85.37982178 29.28509521 C-86.78377247 29.30324226 -88.18765512 29.32793286 -89.59136963 29.35943604 C-91.48768373 29.40036368 -93.38453118 29.41395036 -95.28125 29.42578125 C-96.30283203 29.44036377 -97.32441406 29.45494629 -98.37695312 29.4699707 C-101.69560102 28.87536933 -102.87986005 27.54713009 -105 25 C-101.30581799 25 -99.22163822 26.28179295 -96 28 C-96 27.34 -96 26.68 -96 26 C-94.90641174 26.00666183 -93.81282349 26.01332367 -92.68609619 26.02018738 C-82.38607255 26.08097093 -72.08608523 26.12595941 -61.785923 26.15543652 C-56.49034405 26.17110039 -51.19490976 26.19235195 -45.89941406 26.22631836 C-40.79010341 26.25888589 -35.680932 26.27684758 -30.57152557 26.28463173 C-28.62104856 26.29017991 -26.67057926 26.30101401 -24.72016144 26.31719017 C-21.99068155 26.33892975 -19.26177893 26.34196838 -16.53222656 26.34057617 C-15.72374268 26.351362 -14.91525879 26.36214783 -14.08227539 26.3732605 C-9.75999586 26.34936454 -7.10410086 26.12745987 -4 23 C-3.34 22.34 -2.68 21.68 -2 21 C-1.67 20.34 -1.34 19.68 -1 19 C-0.01 18.34 0.98 17.68 2 17 C2.58976305 11.79042641 1.63644798 9.35587057 -1 5 C-0.6875 2.1875 -0.6875 2.1875 0 0 Z " fill="#D6E8F0" transform="translate(437,223)"/>
<path d="M0 0 C0.33 0 0.66 0 1 0 C1.02505615 0.57443848 1.0501123 1.14887695 1.07592773 1.74072266 C1.19269875 4.36899721 1.31505419 6.99698395 1.4375 9.625 C1.47681641 10.52863281 1.51613281 11.43226563 1.55664062 12.36328125 C1.77578458 16.98216146 2.1008851 21.45153636 3 26 C4.794375 25.9690625 4.794375 25.9690625 6.625 25.9375 C10.18004869 25.93117429 13.50555624 26.30111125 17 27 C17.33 24.03 17.66 21.06 18 18 C18.33 18 18.66 18 19 18 C19 23.61 19 29.22 19 35 C9.595 35.495 9.595 35.495 0 36 C0.66 33.36 1.32 30.72 2 28 C1.34 28 0.68 28 0 28 C0 18.76 0 9.52 0 0 Z " fill="#8D7E77" transform="translate(316,371)"/>
<path d="M0 0 C0.33 0 0.66 0 1 0 C1.020625 1.19625 1.04125 2.3925 1.0625 3.625 C1.56301983 8.31643959 3.274042 12.2033993 5.375 16.375 C5.67929932 16.98166504 5.98359863 17.58833008 6.29711914 18.21337891 C7.87384586 21.22866339 9.39650574 23.77984232 12 26 C11.34 27.32 10.68 28.64 10 30 C6.20614979 29.78320856 5.0563797 29.0563797 2.3125 26.3125 C-1.95510963 20.64919414 -2.60283249 14.89779481 -2 8 C-1.47392671 5.26532591 -0.7793755 2.67910328 0 0 Z " fill="#F4F7F5" transform="translate(285,96)"/>
<path d="M0 0 C1.64767247 0.28109113 3.29313145 0.57518526 4.9375 0.875 C5.85402344 1.03742188 6.77054687 1.19984375 7.71484375 1.3671875 C8.46894531 1.57601563 9.22304688 1.78484375 10 2 C10.33 2.66 10.66 3.32 11 4 C12.32 4 13.64 4 15 4 C15 4.66 15 5.32 15 6 C17.64 6.33 20.28 6.66 23 7 C23 7.33 23 7.66 23 8 C31.25 8 39.5 8 48 8 C47.67 8.66 47.34 9.32 47 10 C42.07459415 10.14982515 37.15055241 10.25789768 32.22338867 10.32958984 C30.55225482 10.35951484 28.88127462 10.40027153 27.21069336 10.45263672 C16.69019989 10.77382509 8.82107103 10.55209211 0 4 C0 2.68 0 1.36 0 0 Z " fill="#6DD3EE" transform="translate(322,255)"/>
<path d="M0 0 C0.33 0 0.66 0 1 0 C1.28307925 7.24997422 0.50974035 13.90961228 -1 21 C-1.33 21 -1.66 21 -2 21 C-2 18.69 -2 16.38 -2 14 C-7.61 14 -13.22 14 -19 14 C-18.67 13.34 -18.34 12.68 -18 12 C-17.77532169 10.46331135 -17.59203195 8.92031946 -17.4375 7.375 C-17.35371094 6.55773437 -17.26992188 5.74046875 -17.18359375 4.8984375 C-17.12300781 4.27195312 -17.06242187 3.64546875 -17 3 C-16.67 3.99 -16.34 4.98 -16 6 C-15.195625 5.979375 -14.39125 5.95875 -13.5625 5.9375 C-11 6 -11 6 -10 7 C-8.48530552 7.23192865 -6.96245438 7.41215238 -5.4375 7.5625 C-4.61121094 7.64628906 -3.78492188 7.73007812 -2.93359375 7.81640625 C-2.29550781 7.87699219 -1.65742188 7.93757813 -1 8 C-0.67 5.36 -0.34 2.72 0 0 Z " fill="#AEA5A0" transform="translate(277,388)"/>
<path d="M0 0 C-2.31 0.99 -4.62 1.98 -7 3 C-4.69 3.33 -2.38 3.66 0 4 C0 4.33 0 4.66 0 5 C-16.83 5 -33.66 5 -51 5 C-51 4.67 -51 4.34 -51 4 C-49.35 3.67 -47.7 3.34 -46 3 C-46.33 2.34 -46.66 1.68 -47 1 C-46.00871094 1.16371094 -45.01742187 1.32742188 -43.99609375 1.49609375 C-40.00645421 2.06604226 -36.09378059 2.09817505 -32.0625 2.0625 C-31.37865234 2.05798828 -30.69480469 2.05347656 -29.99023438 2.04882812 C-28.32678396 2.0371956 -26.6633795 2.01926694 -25 2 C-25 2.66 -25 3.32 -25 4 C-23.35 4 -21.7 4 -20 4 C-20 3.34 -20 2.68 -20 2 C-12.57142857 1.85714286 -12.57142857 1.85714286 -9 3 C-9 2.34 -9 1.68 -9 1 C-5.57367167 -0.61798838 -3.61944899 -1.34053666 0 0 Z " fill="#63CCEA" transform="translate(300,267)"/>
<path d="M0 0 C0.99 0 1.98 0 3 0 C4.50156874 3.00313748 4.09281204 5.79067522 4.0625 9.125 C4.05347656 10.40632813 4.04445313 11.68765625 4.03515625 13.0078125 C4.02355469 13.99523437 4.01195312 14.98265625 4 16 C3.01 16.33 2.02 16.66 1 17 C0.67 18.65 0.34 20.3 0 22 C-1.65 21.67 -3.3 21.34 -5 21 C-4.36982209 17.60067495 -3.54121726 14.35795263 -2.5 11.0625 C-1.37447558 7.38944712 -0.5024476 3.81860176 0 0 Z " fill="#ECF6F6" transform="translate(308,102)"/>
<path d="M0 0 C0.33 0 0.66 0 1 0 C1.02685095 2.47923801 1.04676547 4.9581884 1.0625 7.4375 C1.07087891 8.14455078 1.07925781 8.85160156 1.08789062 9.58007812 C1.09653588 11.38693559 1.05220011 13.19387603 1 15 C0 16 0 16 -2.06640625 16.09765625 C-2.89011719 16.08605469 -3.71382813 16.07445312 -4.5625 16.0625 C-5.38878906 16.05347656 -6.21507812 16.04445312 -7.06640625 16.03515625 C-8.02353516 16.01775391 -8.02353516 16.01775391 -9 16 C-8.4498359 11.75151059 -7.01308674 9.19004496 -4.5 5.75 C-3.55640625 4.44289062 -3.55640625 4.44289062 -2.59375 3.109375 C-1 1 -1 1 0 0 Z " fill="#C2F2FD" transform="translate(266,140)"/>
<path d="M0 0 C0.433125 0.639375 0.86625 1.27875 1.3125 1.9375 C2.91239177 4.26746003 2.91239177 4.26746003 6 5 C7.35439668 7.70879335 7.06501451 10.00933268 7 13 C1.94697344 12.52627876 -2.11631574 10.15058431 -6 7 C-7.5 4.1875 -7.5 4.1875 -8 2 C-5.03 2.495 -5.03 2.495 -2 3 C-2 2.34 -2 1.68 -2 1 C-1.34 0.67 -0.68 0.34 0 0 Z " fill="#74BCCC" transform="translate(239,176)"/>
<path d="M0 0 C5.98010638 5.66536394 7.27991682 9.12094943 7.6328125 17.28125 C7.67437469 18.09057983 7.71593689 18.89990967 7.75875854 19.73376465 C7.84514362 21.44828079 7.92724517 23.16301736 8.00537109 24.87792969 C8.12333149 27.46342889 8.25377373 30.04804499 8.38671875 32.6328125 C8.82538396 41.42649005 9.13969302 50.19268768 9 59 C8.67 59 8.34 59 8 59 C6.02530458 37.1317573 6.02530458 37.1317573 5.5 27.4375 C4.80533984 15.03436225 4.80533984 15.03436225 2 3 C1.34 3 0.68 3 0 3 C0 2.01 0 1.02 0 0 Z " fill="#B4EBF9" transform="translate(228,176)"/>
<path d="M0 0 C0.66 0.33 1.32 0.66 2 1 C-1.91251407 3.7946529 -5.39238095 5.63865801 -10 7 C-10.99 7.495 -10.99 7.495 -12 8 C-18.14559516 8.51213293 -23.20264551 6.95966912 -29 5 C-29 4.67 -29 4.34 -29 4 C-21.73459931 2.70631975 -14.82523845 1.76462251 -7.4375 2.125 C-4.62325522 1.98067975 -2.59292607 1.05118624 0 0 Z " fill="#DFE0DD" transform="translate(284,189)"/>
<path d="M0 0 C0.66 0 1.32 0 2 0 C2 7.26 2 14.52 2 22 C5.3 22 8.6 22 12 22 C14.9453125 23.3125 14.9453125 23.3125 17.125 25 C17.87007813 25.556875 18.61515625 26.11375 19.3828125 26.6875 C20.18332031 27.3371875 20.18332031 27.3371875 21 28 C20.01 28.33 19.02 28.66 18 29 C16.7315625 28.319375 16.7315625 28.319375 15.4375 27.625 C10.98476404 25.52007027 6.86762692 25.27897467 2 25 C0.0830427 19.37742839 -0.24889924 14.47630615 -0.125 8.5625 C-0.11597656 7.73556641 -0.10695313 6.90863281 -0.09765625 6.05664062 C-0.07431512 4.03763292 -0.03845288 2.01877644 0 0 Z " fill="#8AC6D8" transform="translate(315,223)"/>
<path d="M0 0 C0.66 0 1.32 0 2 0 C4.68924267 6.16943907 4.08514835 11.74455496 2 18 C1.6978212 22.74598472 1.80690465 27.37675552 3 32 C-0.71514298 27.31568929 -1.2169133 23.96511581 -1 18 C-0.67 17.34 -0.34 16.68 0 16 C-0.99 16 -1.98 16 -3 16 C-3 16.66 -3 17.32 -3 18 C-4.43429001 18.67354499 -5.87257057 19.33859701 -7.3125 20 C-8.51326172 20.556875 -8.51326172 20.556875 -9.73828125 21.125 C-12 22 -12 22 -15 22 C-15 21.34 -15 20.68 -15 20 C-12.73272667 18.82592979 -10.46165376 17.66060261 -8.1875 16.5 C-7.54490234 16.16613281 -6.90230469 15.83226563 -6.24023438 15.48828125 C-3.30452301 13.99760916 -1.33873483 13 2 13 C2 9.7 2 6.4 2 3 C1.34 2.67 0.68 2.34 0 2 C0 1.34 0 0.68 0 0 Z " fill="#D3F0F1" transform="translate(282,86)"/>
<path d="M0 0 C0.66 0.33 1.32 0.66 2 1 C0.92492371 2.29854721 -0.16043736 3.58858361 -1.25 4.875 C-1.85328125 5.59429687 -2.4565625 6.31359375 -3.078125 7.0546875 C-4.97087634 8.97052118 -6.53657727 9.96449045 -9 11 C-7.94161451 12.60726195 -7.94161451 12.60726195 -6 14 C-2.5776116 14.58218332 -2.5776116 14.58218332 1.1875 14.6875 C2.45980469 14.75324219 3.73210937 14.81898438 5.04296875 14.88671875 C6.50669922 14.94279297 6.50669922 14.94279297 8 15 C8 15.33 8 15.66 8 16 C5.62429457 16.0816082 3.25144159 16.14077222 0.875 16.1875 C0.20984375 16.21263672 -0.4553125 16.23777344 -1.140625 16.26367188 C-5.86902292 16.33320714 -8.95121479 15.40278375 -13 13 C-12.16983643 7.94255616 -8.90618004 5.95647454 -5 3 C-2.1875 1.0625 -2.1875 1.0625 0 0 Z " fill="#586A6E" transform="translate(256,402)"/>
<path d="M0 0 C5.75 1.625 5.75 1.625 8 5 C7.13375 5.020625 6.2675 5.04125 5.375 5.0625 C1.15525078 6.23465256 0.04312049 8.00019336 -2.546875 11.3671875 C-4 13 -4 13 -6.8125 14.0625 C-7.534375 14.371875 -8.25625 14.68125 -9 15 C-9.89830839 18.05272465 -9.89830839 18.05272465 -10 21 C-12.1519437 17.77208445 -12.20086443 16.71599191 -12 13 C-5.25 9 -5.25 9 -3 9 C-2.01 6.03 -1.02 3.06 0 0 Z " fill="#2C3F49" transform="translate(322,259)"/>
<path d="M0 0 C0.66 0 1.32 0 2 0 C2.33 0.66 2.66 1.32 3 2 C5.52733235 2.65555119 5.52733235 2.65555119 8 3 C8 3.66 8 4.32 8 5 C8.74048584 4.96970703 9.48097168 4.93941406 10.24389648 4.90820312 C13.64169131 4.7702647 17.03959169 4.63511296 20.4375 4.5 C21.60216797 4.45230469 22.76683594 4.40460938 23.96679688 4.35546875 C30.31740782 4.10502212 36.64451847 3.94562155 43 4 C42.67 4.66 42.34 5.32 42 6 C37.00127878 6.09935536 32.00314045 6.17169622 27.00366211 6.21972656 C25.30531798 6.23976221 23.60704215 6.26699885 21.90893555 6.30175781 C19.4586496 6.35063415 17.0092806 6.37304872 14.55859375 6.390625 C13.43160316 6.42159271 13.43160316 6.42159271 12.28184509 6.45318604 C6.75703731 6.45550363 3.59663717 5.06265854 -1 2 C-0.67 1.34 -0.34 0.68 0 0 Z " fill="#6DD1E6" transform="translate(327,259)"/>
<path d="M0 0 C0.99 0.33 1.98 0.66 3 1 C3 1.66 3 2.32 3 3 C3.61875 3.309375 4.2375 3.61875 4.875 3.9375 C6.25 4.625 7.625 5.3125 9 6 C12.67329964 6.13357453 15.49852959 6.1671568 19 5 C19 6.65 19 8.3 19 10 C14.16003116 10.5605111 9.81945033 11.05262134 5.48828125 8.546875 C3.43111443 6.7888653 1.62061355 5.16855739 0 3 C0 2.01 0 1.02 0 0 Z " fill="#AC7157" transform="translate(288,98)"/>
<path d="M0 0 C0.33 0 0.66 0 1 0 C1.15002847 4.49816127 1.25798807 8.99494013 1.32958984 13.49487305 C1.35948247 15.02052218 1.40021394 16.54600371 1.45263672 18.07104492 C1.79276326 28.23149179 1.1825465 35.42552129 -5 44 C-6.24318454 40.27044638 -5.62220112 39.48773241 -4 36 C-3.23465942 34.65301025 -3.23465942 34.65301025 -2.45385742 33.27880859 C-0.81011649 29.57176566 -0.57462207 26.89231309 -0.48828125 22.8515625 C-0.47033005 22.19417084 -0.45237885 21.53677917 -0.43388367 20.85946655 C-0.38015563 18.78137428 -0.34600875 16.70350653 -0.3125 14.625 C-0.27929347 13.20700024 -0.24480076 11.78902999 -0.20898438 10.37109375 C-0.12445349 6.9142782 -0.05746432 3.45738362 0 0 Z " fill="#AAE5F2" transform="translate(360,79)"/>
<path d="M0 0 C0.66 0.33 1.32 0.66 2 1 C2.05434116 3.5419589 2.0938339 6.08273682 2.125 8.625 C2.14175781 9.33785156 2.15851563 10.05070312 2.17578125 10.78515625 C2.21684602 15.2612164 1.69086567 18.77949278 0 23 C-0.66 23 -1.32 23 -2 23 C-1.86183041 19.35383329 -1.71318466 15.70816926 -1.5625 12.0625 C-1.50352539 10.50112305 -1.50352539 10.50112305 -1.44335938 8.90820312 C-1.40146484 7.91884766 -1.35957031 6.92949219 -1.31640625 5.91015625 C-1.27974854 4.99371338 -1.24309082 4.07727051 -1.20532227 3.13305664 C-1 1 -1 1 0 0 Z " fill="#D7E3DE" transform="translate(316,70)"/>
<path d="M0 0 C3.3125 0.1875 3.3125 0.1875 7 1 C8.75 3.5 8.75 3.5 10 6 C10.99 6.33 11.98 6.66 13 7 C16.62506658 11.3517699 16.36308064 15.44153327 16.1875 20.8125 C16.16719727 21.99489258 16.16719727 21.99489258 16.14648438 23.20117188 C16.11133456 25.13441169 16.05753361 27.06729682 16 29 C15.67 29 15.34 29 15 29 C14.95101563 28.2265625 14.90203125 27.453125 14.8515625 26.65625 C14.2224157 17.67448634 14.2224157 17.67448634 12 9 C10.18298142 7.59145334 10.18298142 7.59145334 8 7 C5.75 5.5 5.75 5.5 4 4 C4 3.34 4 2.68 4 2 C2.68 1.67 1.36 1.34 0 1 C0 0.67 0 0.34 0 0 Z " fill="#B2EAFA" transform="translate(458,138)"/>
<path d="M0 0 C0.99 0 1.98 0 3 0 C2.93039062 0.8353125 2.93039062 0.8353125 2.859375 1.6875 C2.44603603 10.42666675 6.13051377 16.04359109 11 23 C10.01 23 9.02 23 8 23 C6.95107762 21.36368108 5.95093297 19.69514137 5 18 C4.34 17.67 3.68 17.34 3 17 C2.375 13.9375 2.375 13.9375 2 11 C1.34 11 0.68 11 0 11 C0 8.36 0 5.72 0 3 C-2.31 3.66 -4.62 4.32 -7 5 C-6.67 4.34 -6.34 3.68 -6 3 C-2.9375 2.375 -2.9375 2.375 0 2 C0 1.34 0 0.68 0 0 Z " fill="#78D8F0" transform="translate(279,102)"/>
<path d="M0 0 C0.33 0 0.66 0 1 0 C1.05534912 0.64026123 1.11069824 1.28052246 1.16772461 1.94018555 C1.42144165 4.8562154 1.67942949 7.77185234 1.9375 10.6875 C2.02451172 11.69490234 2.11152344 12.70230469 2.20117188 13.74023438 C2.28818359 14.71669922 2.37519531 15.69316406 2.46484375 16.69921875 C2.543396 17.59471436 2.62194824 18.49020996 2.70288086 19.4128418 C2.96601212 22.01963081 2.96601212 22.01963081 3.52734375 24.63671875 C4.11351734 27.56758669 4.09531149 30.32665416 4.0625 33.3125 C4.05347656 34.38113281 4.04445312 35.44976562 4.03515625 36.55078125 C4.02355469 37.35902344 4.01195312 38.16726562 4 39 C3.67 39 3.34 39 3 39 C2.67 34.71 2.34 30.42 2 26 C1.34 26 0.68 26 0 26 C0 17.42 0 8.84 0 0 Z " fill="#94DEEE" transform="translate(246,196)"/>
<path d="M0 0 C0 0.33 0 0.66 0 1 C-1.423125 1.37125 -1.423125 1.37125 -2.875 1.75 C-6.08693191 2.6857077 -6.08693191 2.6857077 -7.375 5.125 C-7.58125 5.74375 -7.7875 6.3625 -8 7 C-9.32 6.67 -10.64 6.34 -12 6 C-11.67 6.66 -11.34 7.32 -11 8 C-10.01 8.33 -9.02 8.66 -8 9 C-8 9.66 -8 10.32 -8 11 C-10.375 11.125 -10.375 11.125 -13 11 C-13.66 10.34 -14.32 9.68 -15 9 C-15 7.68 -15 6.36 -15 5 C-14.01 5 -13.02 5 -12 5 C-12 4.34 -12 3.68 -12 3 C-10.75823305 2.29773859 -9.50614401 1.61370891 -8.25 0.9375 C-7.20585937 0.36322266 -7.20585937 0.36322266 -6.140625 -0.22265625 C-3.63859372 -1.1312406 -2.4667645 -0.88336837 0 0 Z " fill="#9B9F9F" transform="translate(255,170)"/>
<path d="M0 0 C1.66611905 -0.042721 3.33382885 -0.04063832 5 0 C5.33 0.33 5.66 0.66 6 1 C7.51469448 1.23192865 9.03754562 1.41215238 10.5625 1.5625 C11.38878906 1.64628906 12.21507812 1.73007812 13.06640625 1.81640625 C13.70449219 1.87699219 14.34257812 1.93757813 15 2 C14.01 2.495 14.01 2.495 13 3 C13 3.99 13 4.98 13 6 C10.03 6 7.06 6 4 6 C4 5.34 4 4.68 4 4 C3.01 3.67 2.02 3.34 1 3 C0.67 2.01 0.34 1.02 0 0 Z " fill="#9F7D6E" transform="translate(261,394)"/>
<path d="M0 0 C9.9 0 19.8 0 30 0 C29.67 1.32 29.34 2.64 29 4 C29 3.01 29 2.02 29 1 C27.98679687 1.0721875 26.97359375 1.144375 25.9296875 1.21875 C24.57813249 1.31260799 23.22656957 1.40635192 21.875 1.5 C21.20984375 1.54769531 20.5446875 1.59539062 19.859375 1.64453125 C16.80265201 1.85430636 13.77545562 1.99973332 10.7109375 1.99609375 C7.89548519 1.92373749 7.89548519 1.92373749 4.75 2.5625 C2 3 2 3 0 2 C0 1.34 0 0.68 0 0 Z " fill="#2B3944" transform="translate(269,273)"/>
<path d="M0 0 C0.83805176 0.4844458 1.67610352 0.9688916 2.53955078 1.46801758 C6.40938763 3.18124082 9.1520309 3.42462874 13.3671875 3.51171875 C14.38656906 3.53864555 14.38656906 3.53864555 15.42654419 3.56611633 C17.57596819 3.61986817 19.72517477 3.65399936 21.875 3.6875 C23.34117587 3.72070438 24.80732317 3.7551969 26.2734375 3.79101562 C29.84874948 3.87557198 33.42413792 3.94255006 37 4 C37 4.33 37 4.66 37 5 C32.23118124 5.09900135 27.4629627 5.17152928 22.69335938 5.21972656 C21.07150857 5.23982144 19.44973003 5.26710254 17.828125 5.30175781 C15.4946102 5.3503727 13.16205443 5.37298889 10.828125 5.390625 C9.74352997 5.42159271 9.74352997 5.42159271 8.63702393 5.45318604 C5.05310029 5.45477743 3.33522038 5.27262136 0.51074219 2.97558594 C-0.2370752 1.9976709 -0.2370752 1.9976709 -1 1 C-0.67 0.67 -0.34 0.34 0 0 Z " fill="#C8E4EE" transform="translate(333,247)"/>
<path d="M0 0 C2.14011069 0.99362282 3.99791054 1.99839808 5.875 3.4375 C8.43507829 5.31991051 11.13735748 6.6337388 14 8 C14 8.33 14 8.66 14 9 C7.375 9.125 7.375 9.125 4 8 C0 2.62857143 0 2.62857143 0 0 Z " fill="#6BD7F5" transform="translate(242,262)"/>
<path d="M0 0 C0.90105469 0.00902344 1.80210937 0.01804687 2.73046875 0.02734375 C3.41753906 0.03894531 4.10460937 0.05054688 4.8125 0.0625 C4.8125 1.3825 4.8125 2.7025 4.8125 4.0625 C0.5225 3.7325 -3.7675 3.4025 -8.1875 3.0625 C-8.1875 2.4025 -8.1875 1.7425 -8.1875 1.0625 C-5.17259443 0.05753148 -3.14568308 -0.04085303 0 0 Z " fill="#C1816C" transform="translate(328.1875,400.9375)"/>
<path d="M0 0 C0.33 0 0.66 0 1 0 C1.98248524 4.0527516 2.08159574 7.83861737 2 12 C2.66 12 3.32 12 4 12 C4.12375 13.0725 4.2475 14.145 4.375 15.25 C4.89643936 18.37863615 5.40088254 20.33480424 7 23 C7.99 23 8.98 23 10 23 C10 23.66 10 24.32 10 25 C6.16703428 24.14822984 5.04262784 23.06038944 2.75 19.8125 C-0.07220042 13.67876603 0.17295761 6.64157232 0 0 Z " fill="#83DAED" transform="translate(239,247)"/>
<path d="M0 0 C0.66 0.33 1.32 0.66 2 1 C1.82539058 3.35722722 1.3003668 4.69705862 -0.3671875 6.37890625 C-4.67948718 10 -4.67948718 10 -6 10 C-6 7.69 -6 5.38 -6 3 C-5.195625 2.690625 -4.39125 2.38125 -3.5625 2.0625 C-1.10919595 1.23664655 -1.10919595 1.23664655 0 0 Z " fill="#71DBF6" transform="translate(447,248)"/>
<path d="M0 0 C3.59642911 1.10659357 6.93177123 2.43144665 10.3125 4.0625 C14.90861855 6.16514607 18.97456885 6.68092501 24 7 C24 7.33 24 7.66 24 8 C22.25034642 8.05429959 20.50020213 8.09292823 18.75 8.125 C17.77546875 8.14820313 16.8009375 8.17140625 15.796875 8.1953125 C12.93512446 7.99546959 11.46611408 7.37240037 9 6 C7.989375 5.855625 6.97875 5.71125 5.9375 5.5625 C2.84596628 4.97050418 1.81195007 4.51659732 0 2 C0 1.34 0 0.68 0 0 Z " fill="#D9CCC1" transform="translate(255,184)"/>
<path d="M0 0 C0.99 0.33 1.98 0.66 3 1 C2.67 1.33 2.34 1.66 2 2 C1.76298761 4.85877909 1.57780818 7.69883297 1.4375 10.5625 C1.39431641 11.36880859 1.35113281 12.17511719 1.30664062 13.00585938 C1.20024738 15.00368805 1.09959112 17.0018207 1 19 C4.96 19 8.92 19 13 19 C13 19.99 13 20.98 13 22 C8.71 21.34 4.42 20.68 0 20 C0 13.4 0 6.8 0 0 Z " fill="#DCEAF5" transform="translate(317,225)"/>
<path d="M0 0 C3.125 0.375 3.125 0.375 6 1 C5.27490234 1.59941406 5.27490234 1.59941406 4.53515625 2.2109375 C2.62224292 4.44023598 2.5838037 5.72724283 2.4375 8.625 C2.30859375 11.0390625 2.30859375 11.0390625 2 13 C1.01 13.495 1.01 13.495 0 14 C-0.06058594 13.38511719 -0.12117188 12.77023438 -0.18359375 12.13671875 C-0.26738281 11.32847656 -0.35117187 10.52023438 -0.4375 9.6875 C-0.51871094 8.88699219 -0.59992188 8.08648437 -0.68359375 7.26171875 C-0.95265693 4.83912821 -0.95265693 4.83912821 -2 2 C-1.34 1.34 -0.68 0.68 0 0 Z " fill="#6DD8F4" transform="translate(312,99)"/>
<path d="M0 0 C0.33 0.99 0.66 1.98 1 3 C-2.625 6 -2.625 6 -6 6 C-6 6.66 -6 7.32 -6 8 C-5.34 8 -4.68 8 -4 8 C-4 9.65 -4 11.3 -4 13 C-5.65 11.35 -7.3 9.7 -9 8 C-8.375 6.125 -8.375 6.125 -7 4 C-5.02111039 3.27306096 -3.02045442 2.60183749 -1 2 C-0.67 1.34 -0.34 0.68 0 0 Z " fill="#80D2E6" transform="translate(446,219)"/>
<path d="M0 0 C0.33 0 0.66 0 1 0 C1 3.3 1 6.6 1 10 C1.99 10.33 2.98 10.66 4 11 C2.35 12.98 0.7 14.96 -1 17 C-2.26237731 13.21286807 -1.67558873 10.74348067 -1.0625 6.8125 C-0.86785156 5.54019531 -0.67320312 4.26789063 -0.47265625 2.95703125 C-0.31667969 1.98121094 -0.16070312 1.00539063 0 0 Z " fill="#A79489" transform="translate(401,118)"/>
<path d="M0 0 C0.33 0 0.66 0 1 0 C1 2.31 1 4.62 1 7 C1.99 7.33 2.98 7.66 4 8 C4 11.3 4 14.6 4 18 C1.03688631 15.03688631 0.08595671 12.27387844 -0.1953125 8.10546875 C-0.17210937 7.14253906 -0.14890625 6.17960937 -0.125 5.1875 C-0.10695313 4.21167969 -0.08890625 3.23585938 -0.0703125 2.23046875 C-0.04710937 1.49441406 -0.02390625 0.75835937 0 0 Z " fill="#BD9484" transform="translate(286,94)"/>
<path d="M0 0 C1.1171875 3.7109375 1.1171875 3.7109375 0.0625 6.3125 C-2.38401246 9.50037987 -5.16807074 11.89706942 -8.2578125 14.44921875 C-10.10452313 15.90009216 -10.10452313 15.90009216 -11 18 C-11.99 17.67 -12.98 17.34 -14 17 C-13.34 17 -12.68 17 -12 17 C-11.67 16.01 -11.34 15.02 -11 14 C-9.51171875 12.67578125 -9.51171875 12.67578125 -7.6875 11.3125 C-3.68683707 8.04446876 -2.0302871 4.71026608 0 0 Z " fill="#C2F2FE" transform="translate(454,242)"/>
<path d="M0 0 C1.9375 0.8125 1.9375 0.8125 4 2 C4.33 2.99 4.66 3.98 5 5 C5.66 5.33 6.32 5.66 7 6 C5.19499838 15.93812655 5.19499838 15.93812655 2 19 C1.34 19 0.68 19 0 19 C2 15 2 15 3.125 13.0625 C4.24925644 10.41246697 4.40906258 8.86343804 4 6 C2.09643013 2.72689447 2.09643013 2.72689447 0 0 Z " fill="#A7E5F0" transform="translate(457,151)"/>
<path d="M0 0 C1.32 0.66 2.64 1.32 4 2 C3.67 3.65 3.34 5.3 3 7 C0.69 7 -1.62 7 -4 7 C-4.33 6.34 -4.66 5.68 -5 5 C-3.68 4.67 -2.36 4.34 -1 4 C-0.67 2.68 -0.34 1.36 0 0 Z " fill="#2E3C40" transform="translate(345,413)"/>
<path d="M0 0 C-0.33 0.66 -0.66 1.32 -1 2 C-1.99 1.67 -2.98 1.34 -4 1 C-4 1.66 -4 2.32 -4 3 C-5.43429001 3.67354499 -6.87257057 4.33859701 -8.3125 5 C-9.51326172 5.556875 -9.51326172 5.556875 -10.73828125 6.125 C-13 7 -13 7 -16 7 C-16 6.34 -16 5.68 -16 5 C-5.62642369 -0.74031891 -5.62642369 -0.74031891 0 0 Z " fill="#B9F1FC" transform="translate(283,101)"/>
<path d="M0 0 C1.9375 0.375 1.9375 0.375 4 1 C5.36952673 3.73905345 5.12621361 5.97087332 5 9 C4.67 9.66 4.34 10.32 4 11 C1.9375 11.625 1.9375 11.625 0 12 C0 11.01 0 10.02 0 9 C0.66 8.67 1.32 8.34 2 8 C1.47731534 5.23723823 0.89130413 2.6739124 0 0 Z " fill="#BE9889" transform="translate(283,178)"/>
<path d="M0 0 C0.66 0.33 1.32 0.66 2 1 C0.75758865 2.77616574 -0.49424871 4.54574043 -1.75 6.3125 C-2.44609375 7.29863281 -3.1421875 8.28476563 -3.859375 9.30078125 C-5.77078318 11.7109693 -7.45209133 13.31860982 -10 15 C-10 12 -10 12 -7.8125 9.75 C-6.884375 8.8425 -5.95625 7.935 -5 7 C-3.24495233 4.71843803 -1.62983856 2.37490762 0 0 Z " fill="#67C8E8" transform="translate(331,133)"/>
<path d="M0 0 C1.00051772 2.63940258 1.07069298 3.79276303 0.14453125 6.5078125 C-0.29503906 7.37148437 -0.73460937 8.23515625 -1.1875 9.125 C-1.61417969 9.99382812 -2.04085937 10.86265625 -2.48046875 11.7578125 C-4.12574263 14.1855431 -5.29588661 14.9693101 -8 16 C-6.9894822 13.05265643 -5.99056326 10.98849898 -4 8.5625 C-1.8317046 5.78437151 -0.94096937 3.37180689 0 0 Z " fill="#75D7EF" transform="translate(251,121)"/>
<path d="M0 0 C1.50560497 2.85410334 2.63216796 5.68124642 3.625 8.75 C3.88539063 9.54921875 4.14578125 10.3484375 4.4140625 11.171875 C4.60742188 11.77515625 4.80078125 12.3784375 5 13 C0.125 10.25 0.125 10.25 -1 8 C-1.23076923 2.46153846 -1.23076923 2.46153846 0 0 Z " fill="#77D7EA" transform="translate(226,165)"/>
<path d="M0 0 C12.9019095 -0.68912276 12.9019095 -0.68912276 16.8125 2 C17.534375 2.66 18.25625 3.32 19 4 C18.01 4.33 17.02 4.66 16 5 C14.7315625 4.319375 14.7315625 4.319375 13.4375 3.625 C8.98476404 1.52007027 4.86762692 1.27897467 0 1 C0 0.67 0 0.34 0 0 Z " fill="#75C6D9" transform="translate(317,247)"/>
<path d="M0 0 C1 2 1 2 0 6 C5.28 6 10.56 6 16 6 C16 6.33 16 6.66 16 7 C13.20826945 7.02690104 10.41679652 7.04679053 7.625 7.0625 C6.43390625 7.07506836 6.43390625 7.07506836 5.21875 7.08789062 C-0.7734375 7.11328125 -0.7734375 7.11328125 -3 6 C-1.125 1.125 -1.125 1.125 0 0 Z " fill="#74DDFC" transform="translate(251,160)"/>
<path d="M0 0 C1.17949219 0.01804687 2.35898437 0.03609375 3.57421875 0.0546875 C4.92966797 0.08949219 4.92966797 0.08949219 6.3125 0.125 C6.3125 0.455 6.3125 0.785 6.3125 1.125 C-0.1225 1.62 -0.1225 1.62 -6.6875 2.125 C-7.3475 3.775 -8.0075 5.425 -8.6875 7.125 C-9.0175 7.125 -9.3475 7.125 -9.6875 7.125 C-9.875 4.75 -9.875 4.75 -9.6875 2.125 C-6.05554504 -0.29630331 -4.30400652 -0.08522785 0 0 Z " fill="#645F60" transform="translate(324.6875,405.875)"/>
<path d="M0 0 C0.33 0.66 0.66 1.32 1 2 C0.02149805 3.02104551 -0.97980427 4.0206121 -2 5 C-2.33 5 -2.66 5 -3 5 C-3.33 6.98 -3.66 8.96 -4 11 C-6.1519437 7.77208445 -6.20086443 6.71599191 -6 3 C-4.02 2.01 -2.04 1.02 0 0 Z " fill="#324A54" transform="translate(316,269)"/>
<path d="M0 0 C0.66 0.33 1.32 0.66 2 1 C0.35 2.98 -1.3 4.96 -3 7 C-3.99 6.67 -4.98 6.34 -6 6 C-5 3 -5 3 -2.5625 1.25 C-1.716875 0.8375 -0.87125 0.425 0 0 Z " fill="#4B5D60" transform="translate(256,402)"/>
<path d="M0 0 C2.64 0 5.28 0 8 0 C8 0.99 8 1.98 8 3 C5.03 3 2.06 3 -1 3 C-0.67 2.01 -0.34 1.02 0 0 Z " fill="#BD806B" transform="translate(266,397)"/>
<path d="M0 0 C0.66 1.32 1.32 2.64 2 4 C0.7934375 4.8971875 0.7934375 4.8971875 -0.4375 5.8125 C-3.22327984 7.80947276 -3.22327984 7.80947276 -4 11 C-4.66 11 -5.32 11 -6 11 C-4.54955729 6.89041233 -2.48889248 3.56741255 0 0 Z " fill="#79DBF0" transform="translate(242,137)"/>
<path d="M0 0 C0.66 0 1.32 0 2 0 C2 2.97 2 5.94 2 9 C0.02 9.99 0.02 9.99 -2 11 C-1.34 7.37 -0.68 3.74 0 0 Z " fill="#C6E4E8" transform="translate(258,391)"/>
<path d="M0 0 C0.66 0.33 1.32 0.66 2 1 C1.67 1.33 1.34 1.66 1 2 C0.63239269 4.32817964 0.29758419 6.6618385 0 9 C-1.32 8.01 -2.64 7.02 -4 6 C-3.6875 4.125 -3.6875 4.125 -3 2 C-2.01 1.34 -1.02 0.68 0 0 Z " fill="#9AE0F5" transform="translate(448,196)"/>
<path d="M0 0 C4.62 0.66 9.24 1.32 14 2 C14 2.33 14 2.66 14 3 C9.71 3 5.42 3 1 3 C0.67 2.01 0.34 1.02 0 0 Z " fill="#BFE6F2" transform="translate(318,418)"/>
<path d="M0 0 C5.61 0 11.22 0 17 0 C17 0.33 17 0.66 17 1 C16.03578125 1.06058594 15.0715625 1.12117187 14.078125 1.18359375 C12.81484375 1.26738281 11.5515625 1.35117188 10.25 1.4375 C8.99703125 1.51871094 7.7440625 1.59992188 6.453125 1.68359375 C3.81682447 1.92515522 1.51962706 2.24283934 -1 3 C-0.67 2.01 -0.34 1.02 0 0 Z " fill="#6ED1ED" transform="translate(250,167)"/>
<path d="M0 0 C0.33 1.32 0.66 2.64 1 4 C-2.3 3.34 -5.6 2.68 -9 2 C-9 1.67 -9 1.34 -9 1 C-5.846632 0.29925156 -3.27275026 0 0 0 Z " fill="#E5E5E8" transform="translate(264,192)"/>
<path d="M0 0 C0 0.33 0 0.66 0 1 C-1.423125 1.37125 -1.423125 1.37125 -2.875 1.75 C-6.08693191 2.6857077 -6.08693191 2.6857077 -7.375 5.125 C-7.58125 5.74375 -7.7875 6.3625 -8 7 C-8.99 6.67 -9.98 6.34 -11 6 C-4.94863014 -1.48458904 -4.94863014 -1.48458904 0 0 Z " fill="#AE948B" transform="translate(255,170)"/>
<path d="M0 0 C-1.11575573 3.34726719 -1.51344622 3.62079748 -4.4375 5.25 C-6.2009375 6.11625 -6.2009375 6.11625 -8 7 C-8.66 6.67 -9.32 6.34 -10 6 C-8.68 5.34 -7.36 4.68 -6 4 C-6 3.34 -6 2.68 -6 2 C-2.25 0 -2.25 0 0 0 Z " fill="#81DDEA" transform="translate(325,165)"/>
<path d="M0 0 C0.66 0 1.32 0 2 0 C2.33 0.66 2.66 1.32 3 2 C5.52733235 2.65555119 5.52733235 2.65555119 8 3 C8 3.66 8 4.32 8 5 C8.66 5.33 9.32 5.66 10 6 C5.12637153 5.54663921 2.60957611 4.2910841 -1 1 C-0.67 0.67 -0.34 0.34 0 0 Z " fill="#64BFCE" transform="translate(327,259)"/>
<path d="M0 0 C0.33 0.66 0.66 1.32 1 2 C0.22265625 4.1640625 0.22265625 4.1640625 -0.9375 6.625 C-1.31777344 7.44226563 -1.69804687 8.25953125 -2.08984375 9.1015625 C-2.39019531 9.72804687 -2.69054687 10.35453125 -3 11 C-3.66 11 -4.32 11 -5 11 C-4.54917531 9.53932801 -4.08906463 8.08151968 -3.625 6.625 C-3.36976563 5.81289062 -3.11453125 5.00078125 -2.8515625 4.1640625 C-2 2 -2 2 0 0 Z " fill="#79D8ED" transform="translate(232,154)"/>
<path d="M0 0 C0.33 0 0.66 0 1 0 C1.25 2.3125 1.25 2.3125 1 5 C-1 6.8125 -1 6.8125 -3 8 C-3 7.01 -3 6.02 -3 5 C-4.32 4.34 -5.64 3.68 -7 3 C-5 3 -3 3 -1 3 C-0.67 2.01 -0.34 1.02 0 0 Z " fill="#B8ECFD" transform="translate(347,107)"/>
<path d="M0 0 C0.33 0 0.66 0 1 0 C1.16834933 1.77067416 1.33461909 3.54154612 1.5 5.3125 C1.5928125 6.29863281 1.685625 7.28476562 1.78125 8.30078125 C2 11 2 11 2 14 C1.34 14.66 0.68 15.32 0 16 C0 10.72 0 5.44 0 0 Z " fill="#D1F1F9" transform="translate(336,379)"/>
<path d="M0 0 C2 2 2 2 2.3125 5.5 C2.209375 6.655 2.10625 7.81 2 9 C1.01 9.66 0.02 10.32 -1 11 C-0.67 7.37 -0.34 3.74 0 0 Z " fill="#76CCE2" transform="translate(442,232)"/>
<path d="M0 0 C-3.79692186 2.82561627 -6.18569279 4.56638908 -11 4 C-9.71264403 1.42528807 -8.71510189 1.29583343 -6.0625 0.3125 C-5.35222656 0.04050781 -4.64195312 -0.23148438 -3.91015625 -0.51171875 C-2 -1 -2 -1 0 0 Z " fill="#E4D7CE" transform="translate(286,190)"/>
<path d="M0 0 C1.04449911 3.13349732 0.93423645 3.98968256 0 7 C-1.65 7 -3.3 7 -5 7 C-5 5 -5 5 -2.5 2.375 C-1.675 1.59125 -0.85 0.8075 0 0 Z " fill="#6F6054" transform="translate(284,66)"/>
<path d="M0 0 C1.32 0.33 2.64 0.66 4 1 C1.525 4.465 1.525 4.465 -1 8 C-2.2077558 4.37673261 -1.54311128 3.35853631 0 0 Z " fill="#C3F6FC" transform="translate(239,136)"/>
<path d="M0 0 C0.66 0.99 1.32 1.98 2 3 C1.01 3.33 0.02 3.66 -1 4 C-1.33 4.99 -1.66 5.98 -2 7 C-2.99 6.67 -3.98 6.34 -5 6 C-3.625 4 -3.625 4 -2 2 C-1.34 2 -0.68 2 0 2 C0 1.34 0 0.68 0 0 Z " fill="#D6E2D8" transform="translate(411,121)"/>
<path d="M0 0 C0 3.39593478 -0.52165948 4.06619881 -2.5 6.6875 C-2.9640625 7.31011719 -3.428125 7.93273437 -3.90625 8.57421875 C-4.2671875 9.04472656 -4.628125 9.51523438 -5 10 C-5.33 9.34 -5.66 8.68 -6 8 C-2.25 2.25 -2.25 2.25 0 0 Z " fill="#B5ECFB" transform="translate(249,125)"/>
<path d="M0 0 C-3.6441774 2.4294516 -5.71241272 2.16179575 -10 2 C-6.80505194 -1.19494806 -4.22040044 -1.35655728 0 0 Z " fill="#CBF3FE" transform="translate(356,427)"/>
</svg>
