<?xml version="1.0" encoding="UTF-8"?>
<svg version="1.1" xmlns="http://www.w3.org/2000/svg" width="289" height="372">
<path d="M0 0 C95.37 0 190.74 0 289 0 C289 122.76 289 245.52 289 372 C193.63 372 98.26 372 0 372 C0 249.24 0 126.48 0 0 Z " fill="#0A0909" transform="translate(0,0)"/>
<path d="M0 0 C95.37 0 190.74 0 289 0 C289 122.76 289 245.52 289 372 C193.63 372 98.26 372 0 372 C0 249.24 0 126.48 0 0 Z M132 5 C130.41251953 5.31710938 130.41251953 5.31710938 128.79296875 5.640625 C106.04693195 10.96053765 87.77727734 24.1584674 75.03125 43.71875 C61.21922611 66.0304809 58.4399823 89.95683821 58.49902344 115.68823242 C58.50001212 118.72471451 58.45782129 121.75879102 58.4140625 124.79492188 C58.3323397 138.05805155 59.49079777 146.92431097 69.05859375 156.72265625 C71.62538001 158.41146733 73.97963242 158.65590749 77 159 C77.08636719 159.83660156 77.17273438 160.67320312 77.26171875 161.53515625 C80.2075912 185.93995279 91.27572541 205.99423055 110.4921875 221.1953125 C115.71039286 225.07649723 115.71039286 225.07649723 122 226 C121.96633215 233.91194449 120.22545595 239.9384711 115 246 C108.08188209 252.11016253 100.47210214 252.55444356 91.69677734 253.18920898 C75.59302207 254.50186803 62.8758488 261.5910132 51.6875 273.25 C38.76696926 288.74926452 36.33110651 305.58759465 36.53344727 325.0625 C36.56277681 328.15417851 36.55394268 331.24417525 36.54101562 334.3359375 C36.54724382 336.30990415 36.55562752 338.28386545 36.56640625 340.2578125 C36.56347061 341.17756866 36.56053497 342.09732483 36.55751038 343.04495239 C36.59775247 348.06418733 36.59775247 348.06418733 38.52709961 352.60888672 C39.01315674 353.0679541 39.49921387 353.52702148 40 354 C42.31 353.67 44.62 353.34 47 353 C47.66 351.35 48.32 349.7 49 348 C119.62 348 190.24 348 263 348 C263.33 349.32 263.66 350.64 264 352 C264.66 352.66 265.32 353.32 266 354 C270.50317123 353.64736215 270.50317123 353.64736215 274 351 C274.292194 348.77641526 274.292194 348.77641526 274.22705078 346.18310547 C274.22689972 345.18221893 274.22674866 344.1813324 274.22659302 343.15011597 C274.21627045 342.06674957 274.20594788 340.98338318 274.1953125 339.8671875 C274.1924826 338.76021515 274.18965271 337.6532428 274.18673706 336.51272583 C274.17551519 332.96670863 274.15040691 329.42094125 274.125 325.875 C274.1149728 323.47526406 274.1058465 321.07552417 274.09765625 318.67578125 C274.07556932 312.78376849 274.04207207 306.89190209 274 301 C273.34 301 272.68 301 272 301 C271.9484375 300.28457031 271.896875 299.56914062 271.84375 298.83203125 C270.34232374 285.64336647 262.99243136 275.43805315 253 267 C247.44965041 262.70978178 241.55643827 259.47890027 235 257 C234.35683838 256.75354736 233.71367676 256.50709473 233.05102539 256.25317383 C226.70609546 253.9593496 220.71406971 253.32137226 214.01757812 252.91601562 C207.11584319 252.35915193 201.62046352 250.66457907 196.6796875 245.640625 C195.46966213 244.03773425 194.26134667 242.43355136 193.0546875 240.828125 C191.06363971 238.70895247 191.06363971 238.70895247 187.8828125 238.609375 C184.87571189 238.72045004 184.87571189 238.72045004 183 241 C182.75746187 243.21072977 182.75746187 243.21072977 182.875 245.625 C182.89304688 246.44226563 182.91109375 247.25953125 182.9296875 248.1015625 C182.95289063 248.72804687 182.97609375 249.35453125 183 250 C175.52173913 252.60869565 175.52173913 252.60869565 172 253 C171.34 252.34 170.68 251.68 170 251 C167.54418362 250.69424779 167.54418362 250.69424779 164.6875 250.7265625 C163.61113281 250.7059375 162.53476563 250.6853125 161.42578125 250.6640625 C159.17324975 250.63837799 156.92062191 250.61993844 154.66796875 250.609375 C146.03097795 250.42495527 139.23212655 248.8214177 132 244 C132.165 243.319375 132.33 242.63875 132.5 241.9375 C133.07089059 238.5835178 133.06659023 235.39610195 133 232 C133.64541748 232.14002441 134.29083496 232.28004883 134.95581055 232.42431641 C157.93910606 237.05083723 179.16239005 234.53143717 199 222 C202.53703932 219.5302946 205.79882798 216.88900099 209 214 C209.70640625 213.37480469 210.4128125 212.74960938 211.140625 212.10546875 C215.80555511 207.73432241 219.17587074 202.98427095 222.47265625 197.51953125 C224 195 224 195 226.1875 192.0625 C230.87031605 184.15015563 233.90373153 173.73760069 234.05859375 164.5078125 C234.22962659 154.82936597 234.22962659 154.82936597 236.734375 152.1328125 C238.7775668 150.9322509 240.8429554 149.97456835 243 149 C245.50406724 146.38102379 245.50406724 146.38102379 246 143 C246.8971875 142.8453125 246.8971875 142.8453125 247.8125 142.6875 C250.39522588 141.87578615 251.32808504 141.11476341 253 139 C253.43735322 136.77595315 253.43735322 136.77595315 253.35302734 134.27587891 C253.35851089 132.83760239 253.35851089 132.83760239 253.36410522 131.37026978 C253.3501622 129.81413467 253.3501622 129.81413467 253.3359375 128.2265625 C253.34846438 126.01692423 253.36150212 123.8072888 253.375 121.59765625 C253.37890747 118.12440639 253.37511239 114.65144432 253.36035156 111.17822266 C253.2847409 81.85388651 253.2847409 81.85388651 262.8125 71.5625 C263.41707031 71.00691406 264.02164063 70.45132813 264.64453125 69.87890625 C266.62909075 67.12797507 266.44229024 65.31507064 266 62 C263.84424805 58.26657483 260.88521435 55.19165051 258 52 C257.25234375 51.15824219 256.5046875 50.31648438 255.734375 49.44921875 C245.46834019 38.52031084 233.12122942 31.71323757 219 27 C218.34 27 217.68 27 217 27 C217.33 26.34 217.66 25.68 218 25 C218.4167552 22.04211431 218.4167552 22.04211431 218 19 C203.832389 5.83245565 173.50544065 2.77019097 155.125 2.6875 C153.57437866 2.67916138 153.57437866 2.67916138 151.99243164 2.6706543 C145.13431354 2.734944 138.70044812 3.5656596 132 5 Z " fill="#FDFDFD" transform="translate(0,0)"/>
<path d="M0 0 C4.1589829 0.56174614 5.04648932 1.9762542 7.58984375 5.23828125 C11.41566823 10.12096333 14.98252855 12.76192766 21.25170898 13.76000977 C23.55058079 13.98900935 25.84701562 14.15101734 28.15234375 14.30078125 C46.79027498 15.91705917 61.60500785 23.22971832 73.9765625 37.53515625 C75.4528658 39.45397868 76.81941172 41.40542515 78.15234375 43.42578125 C78.89484375 44.49828125 79.63734375 45.57078125 80.40234375 46.67578125 C83.08734373 51.47521871 83.48133983 57.04892088 84.15234375 62.42578125 C84.81234375 62.42578125 85.47234375 62.42578125 86.15234375 62.42578125 C86.25361301 69.49149357 86.32375393 76.55701937 86.37207031 83.62329102 C86.39220822 86.02798455 86.41952045 88.432629 86.45410156 90.8371582 C86.50252252 94.28999939 86.52529086 97.74219423 86.54296875 101.1953125 C86.56361389 102.27351761 86.58425903 103.35172272 86.60552979 104.46260071 C86.60583191 105.46341171 86.60613403 106.46422272 86.60644531 107.49536133 C86.61532776 108.37694412 86.62421021 109.25852692 86.63336182 110.16682434 C86.15234375 112.42578125 86.15234375 112.42578125 84.2880249 114.24565125 C82.15234375 115.42578125 82.15234375 115.42578125 79.52734375 115.23828125 C77.15234375 114.42578125 77.15234375 114.42578125 75.15234375 112.42578125 C75.15234375 111.43578125 75.15234375 110.44578125 75.15234375 109.42578125 C4.53234375 109.42578125 -66.08765625 109.42578125 -138.84765625 109.42578125 C-138.84765625 54.73001405 -138.84765625 54.73001405 -124.59765625 39.67578125 C-117.64441868 33.03966769 -109.18229154 27.43834511 -99.390625 26.93359375 C-97.8447168 26.83498047 -97.8447168 26.83498047 -96.26757812 26.734375 C-94.12474174 26.61266707 -91.98149294 26.49800154 -89.83789062 26.390625 C-80.02678278 25.74266398 -74.11084486 22.81771699 -66.70703125 16.5 C-64.84765625 15.42578125 -64.84765625 15.42578125 -62.9375 15.60546875 C-60.44981798 16.58194207 -58.06374203 17.69443795 -55.66015625 18.86328125 C-47.70973824 22.47805738 -40.8997602 23.59970799 -32.22265625 23.73828125 C-31.50577637 23.75608643 -30.78889648 23.7738916 -30.05029297 23.79223633 C-24.96253654 23.78460763 -21.33769949 22.86958083 -16.84765625 20.42578125 C-16.66203125 19.21921875 -16.66203125 19.21921875 -16.47265625 17.98828125 C-15.84765625 15.42578125 -15.84765625 15.42578125 -13.875 14.21484375 C-7.6342254 11.42578125 -7.6342254 11.42578125 -4.84765625 11.42578125 C-4.87085938 10.79929688 -4.8940625 10.1728125 -4.91796875 9.52734375 C-4.93601563 8.71007812 -4.9540625 7.8928125 -4.97265625 7.05078125 C-4.99585938 6.23867187 -5.0190625 5.4265625 -5.04296875 4.58984375 C-4.72340596 1.04908806 -3.37061195 0.50397353 0 0 Z " fill="#FC847E" transform="translate(187.84765625,238.57421875)"/>
<path d="M0 0 C1.95715638 -0.00337398 3.9143107 -0.00823144 5.87145996 -0.01449585 C9.95992107 -0.02183969 14.04783349 -0.01124222 18.13623047 0.01220703 C23.35479161 0.04069318 28.5720667 0.02427581 33.79058075 -0.00565529 C37.82803897 -0.02379574 41.8651965 -0.01793939 45.90266418 -0.00501633 C47.82583268 -0.00170094 49.74902922 -0.00570305 51.67216492 -0.01741409 C65.31744945 -0.0822894 74.81729278 1.14526471 85.21484375 10.765625 C90.24888384 16.4158409 92.0092829 22.84082516 92.08325195 30.2644043 C92.10250481 31.95348152 92.10250481 31.95348152 92.12214661 33.67668152 C92.12953354 34.89325943 92.13692047 36.10983734 92.14453125 37.36328125 C92.152603 38.62686966 92.16067474 39.89045807 92.16899109 41.19233704 C92.18283116 43.8747625 92.19384429 46.55706524 92.20141602 49.23950195 C92.21020147 51.95783421 92.23089622 54.67564279 92.26293945 57.39379883 C92.55278454 83.91543351 90.43457388 105.21778367 71.59375 125.4140625 C67.20657028 129.58188323 62.11862569 132.63798883 56.90625 135.6640625 C55.6996875 136.37949219 55.6996875 136.37949219 54.46875 137.109375 C40.24020759 144.92571244 21.88135312 145.7475389 6.16015625 142.36328125 C2.67822659 141.28309856 -0.01309235 139.61909524 -3.09375 137.6640625 C-4.228125 137.2103125 -5.3625 136.7565625 -6.53125 136.2890625 C-22.51867674 128.99655206 -32.47455846 114.36027368 -38.796875 98.60546875 C-41.99343129 89.4700897 -42.40163942 80.49193861 -42.39453125 70.87890625 C-42.39881638 69.58263809 -42.4031015 68.28636993 -42.40751648 66.95082092 C-42.41492516 64.22360101 -42.41472561 61.49651071 -42.40942383 58.76928711 C-42.40361951 55.29738783 -42.42060891 51.82602037 -42.4437685 48.35420895 C-42.46214452 45.00825362 -42.45831897 41.66241158 -42.45703125 38.31640625 C-42.466241 37.08180161 -42.47545074 35.84719696 -42.48493958 34.57518005 C-42.43531958 25.26832263 -41.49796933 17.50280747 -35.03125 10.4140625 C-33.99291016 9.23070313 -33.99291016 9.23070313 -32.93359375 8.0234375 C-22.70958048 -0.47079085 -12.69509913 -0.07730753 0 0 Z " fill="#FCF3E5" transform="translate(131.09375,79.3359375)"/>
<path d="M0 0 C0.69649658 -0.00467285 1.39299316 -0.0093457 2.1105957 -0.01416016 C15.65148112 -0.04824867 28.03743029 2.30896353 40.9375 6.5 C40.6075 7.49 40.2775 8.48 39.9375 9.5 C37.375 10.6875 37.375 10.6875 34.9375 11.5 C34.55319309 15.55523421 34.55319309 15.55523421 36.078125 19.16796875 C38.68688849 21.03685184 40.68682975 20.90725323 43.875 21 C66.34990569 22.29567084 82.52898752 33.09148752 97.9375 48.5 C97.9375 51.5 97.9375 51.5 96.625 52.875 C96.068125 53.41125 95.51125 53.9475 94.9375 54.5 C92.96842125 57.45361812 91.58592423 59.99850918 90.9375 63.5 C90.2775 63.5 89.6175 63.5 88.9375 63.5 C87.77097063 69.96630283 87.79299877 76.33295643 87.8046875 82.890625 C87.80373077 84.07219177 87.80277405 85.25375854 87.80178833 86.47113037 C87.80110989 88.95894423 87.80294067 91.44675989 87.80712891 93.93457031 C87.81250097 97.75069112 87.80716272 101.56669525 87.80078125 105.3828125 C87.80144172 107.80208359 87.80272223 110.22135461 87.8046875 112.640625 C87.80165115 114.35623627 87.80165115 114.35623627 87.79855347 116.10650635 C87.80170563 117.16480652 87.80485779 118.22310669 87.80810547 119.31347656 C87.80890106 120.24500549 87.80969666 121.17653442 87.81051636 122.1362915 C87.8410153 124.65201332 87.8410153 124.65201332 88.9375 127.5 C90.5875 127.5 92.2375 127.5 93.9375 127.5 C92.9475 127.83 91.9575 128.16 90.9375 128.5 C90.504375 129.36625 90.504375 129.36625 90.0625 130.25 C87.58281289 135.20937423 84.00370742 137.65002811 78.9375 139.5 C78.93203156 138.54065804 78.93203156 138.54065804 78.92645264 137.56193542 C78.88440346 130.86099868 78.81490255 124.16073263 78.72998047 117.46020508 C78.70188268 114.96483085 78.68061293 112.46936948 78.66650391 109.97387695 C78.64491961 106.37145731 78.59818788 102.77007328 78.546875 99.16796875 C78.54503204 97.51416451 78.54503204 97.51416451 78.54315186 95.82695007 C78.34498011 85.17127169 75.58750666 75.4391328 68.10546875 67.57421875 C59.43317665 59.27694468 49.62789507 54.36326279 37.63330078 54.32299805 C36.78567673 54.31642685 35.93805267 54.30985565 35.06474304 54.30308533 C32.25409859 54.28334848 29.4435078 54.27168374 26.6328125 54.26171875 C25.18843119 54.25560546 25.18843119 54.25560546 23.71487045 54.24936867 C18.61004603 54.22849805 13.5052485 54.21420528 8.40039062 54.20483398 C3.1541497 54.19381735 -2.09166148 54.15947552 -7.33775139 54.11966228 C-11.39241257 54.09336557 -15.44697386 54.08513022 -19.5017128 54.08155251 C-21.43359375 54.07671369 -23.36547106 54.06517797 -25.29726791 54.04651451 C-44.74360169 53.70083059 -44.74360169 53.70083059 -61.52441406 62.56030273 C-62.01135742 63.05602783 -62.49830078 63.55175293 -63 64.0625 C-63.5372168 64.58336182 -64.07443359 65.10422363 -64.62792969 65.64086914 C-71.8419731 72.91975541 -76.06893188 80.97639626 -76.26782227 91.2902832 C-76.28776749 92.21086014 -76.30771271 93.13143707 -76.32826233 94.07991028 C-76.34497482 95.0602977 -76.36168732 96.04068512 -76.37890625 97.05078125 C-76.39968735 98.06472458 -76.42046844 99.07866791 -76.44187927 100.12333679 C-76.50711114 103.35299085 -76.56613702 106.58272421 -76.625 109.8125 C-76.66821029 112.00586748 -76.71182538 114.19922703 -76.75585938 116.39257812 C-76.86276544 121.76163562 -76.96458021 127.1307715 -77.0625 132.5 C-80.91248876 130.70847579 -82.39525325 129.53817251 -84.0625 125.5 C-84.50109887 121.69678424 -84.48262855 117.9187137 -84.4609375 114.09375 C-84.46380768 112.97746216 -84.46667786 111.86117432 -84.46963501 110.71105957 C-84.47167527 108.34740696 -84.46614812 105.98373744 -84.45361328 103.62011719 C-84.4376808 100.04061994 -84.45340122 96.46227279 -84.47265625 92.8828125 C-84.49343852 70.99438845 -84.49343852 70.99438845 -81.0625 60.5 C-80.85850586 59.77458008 -80.65451172 59.04916016 -80.44433594 58.30175781 C-76.94035444 45.94884229 -71.46535429 35.23435582 -63.0625 25.5 C-62.49144531 24.83355469 -61.92039062 24.16710937 -61.33203125 23.48046875 C-57.28082825 19.10102329 -52.77916327 15.7525392 -47.8125 12.5 C-47.20978271 12.10167969 -46.60706543 11.70335937 -45.98608398 11.29296875 C-42.63936116 9.18091844 -41.13167568 8.5 -37.0625 8.5 C-37.0625 7.84 -37.0625 7.18 -37.0625 6.5 C-35.08481717 5.87032046 -33.10526065 5.24652511 -31.125 4.625 C-30.02285156 4.27695312 -28.92070313 3.92890625 -27.78515625 3.5703125 C-26.55667969 3.21710937 -25.32820313 2.86390625 -24.0625 2.5 C-23.42884521 2.31469727 -22.79519043 2.12939453 -22.14233398 1.93847656 C-14.85837999 0.0471623 -7.48606473 0.02291203 0 0 Z " fill="#676B71" transform="translate(155.0625,14.5)"/>
<path d="M0 0 C2.8561591 1.13002302 5.59016332 2.41924606 8.33984375 3.7890625 C9.93892578 4.57603516 9.93892578 4.57603516 11.5703125 5.37890625 C14.15234375 6.8515625 14.15234375 6.8515625 15.15234375 8.8515625 C14.49234375 8.8515625 13.83234375 8.8515625 13.15234375 8.8515625 C13.04019531 9.73908203 13.04019531 9.73908203 12.92578125 10.64453125 C12.23508003 14.79551018 11.66805723 17.95079843 8.40234375 20.7890625 C3.01068387 24.21069281 -1.58119778 25.05057007 -7.91015625 25.2265625 C-18.14211269 25.8089506 -27.15355006 28.31602285 -35.84765625 33.80078125 C-37.84765625 34.8515625 -37.84765625 34.8515625 -40.53515625 35.38671875 C-41.67984375 35.61681641 -41.67984375 35.61681641 -42.84765625 35.8515625 C-43.91482329 37.65088829 -43.91482329 37.65088829 -44.84765625 39.8515625 C-45.61078125 40.5528125 -46.37390625 41.2540625 -47.16015625 41.9765625 C-50.7846828 45.85396299 -52.67637794 50.04928898 -54.84765625 54.8515625 C-55.23308594 55.61339844 -55.61851563 56.37523437 -56.015625 57.16015625 C-59.5777027 64.78583162 -59.5452907 72.60130252 -59.84765625 80.8515625 C-60.31216242 88.31606867 -60.31216242 88.31606867 -63.84765625 91.8515625 C35.64734375 92.3465625 35.64734375 92.3465625 137.15234375 92.8515625 C137.15234375 93.1815625 137.15234375 93.5115625 137.15234375 93.8515625 C66.86234375 93.8515625 -3.42765625 93.8515625 -75.84765625 93.8515625 C-75.84765625 39.1557953 -75.84765625 39.1557953 -61.59765625 24.1015625 C-54.64441868 17.46544894 -46.18229154 11.86412636 -36.390625 11.359375 C-34.8447168 11.26076172 -34.8447168 11.26076172 -33.26757812 11.16015625 C-31.12474174 11.03844832 -28.98149294 10.92378279 -26.83789062 10.81640625 C-17.02678278 10.16844523 -11.11084486 7.24349824 -3.70703125 0.92578125 C-1.84765625 -0.1484375 -1.84765625 -0.1484375 0 0 Z " fill="#FA9D98" transform="translate(124.84765625,254.1484375)"/>
<path d="M0 0 C4.1589829 0.56174614 5.04648932 1.9762542 7.58984375 5.23828125 C11.41566823 10.12096333 14.98252855 12.76192766 21.25170898 13.76000977 C23.55058079 13.98900935 25.84701562 14.15101734 28.15234375 14.30078125 C46.79027498 15.91705917 61.60500785 23.22971832 73.9765625 37.53515625 C75.4528658 39.45397868 76.81941172 41.40542515 78.15234375 43.42578125 C78.89484375 44.49828125 79.63734375 45.57078125 80.40234375 46.67578125 C83.08734373 51.47521871 83.48133983 57.04892088 84.15234375 62.42578125 C84.81234375 62.42578125 85.47234375 62.42578125 86.15234375 62.42578125 C86.25361301 69.49149357 86.32375393 76.55701937 86.37207031 83.62329102 C86.39220822 86.02798455 86.41952045 88.432629 86.45410156 90.8371582 C86.50252252 94.28999939 86.52529086 97.74219423 86.54296875 101.1953125 C86.56361389 102.27351761 86.58425903 103.35172272 86.60552979 104.46260071 C86.60598297 105.96381721 86.60598297 105.96381721 86.60644531 107.49536133 C86.61532776 108.37694412 86.62421021 109.25852692 86.63336182 110.16682434 C86.15234375 112.42578125 86.15234375 112.42578125 84.2880249 114.24565125 C82.15234375 115.42578125 82.15234375 115.42578125 79.52734375 115.23828125 C77.15234375 114.42578125 77.15234375 114.42578125 75.15234375 112.42578125 C74.942133 109.35057389 74.85115369 106.35844994 74.84375 103.28125 C74.81855126 101.38736723 74.79315391 99.49348709 74.76757812 97.59960938 C74.73906209 94.62248685 74.71504884 91.64541135 74.69604492 88.66821289 C74.56661188 71.70110557 74.07065563 57.28432818 63.15234375 43.42578125 C51.81236261 32.28103652 41.12475891 28.34853034 25.62304688 27.390625 C20.38514938 26.96711841 16.48988697 25.96571878 11.89550781 23.39453125 C10.03918923 22.30434973 10.03918923 22.30434973 7.4140625 21.41796875 C4.67171781 20.21493671 3.05040534 18.68878443 0.96484375 16.55078125 C0.29066406 15.87273437 -0.38351563 15.1946875 -1.078125 14.49609375 C-3.69815115 11.43072099 -4.77497467 9.33430096 -5.09765625 5.30078125 C-4.75374636 1.34581751 -3.90610682 0.58404066 0 0 Z " fill="#0F0A0A" transform="translate(187.84765625,238.57421875)"/>
<path d="M0 0 C0.66 0.33 1.32 0.66 2 1 C1.175 1.350625 0.35 1.70125 -0.5 2.0625 C-1.325 2.701875 -2.15 3.34125 -3 4 C-3.41725678 7.62599422 -3.41725678 7.62599422 -3 11 C-1.35 11 0.3 11 2 11 C2 11.33 2 11.66 2 12 C0.02 12.66 -1.96 13.32 -4 14 C-3.979375 14.60328125 -3.95875 15.2065625 -3.9375 15.828125 C-4.00442234 18.42136574 -4.19698079 20.52721069 -5 23 C-7.39424066 25.13673651 -9.87035172 26.31484509 -13 27 C-16.57082452 26.42917548 -16.57082452 26.42917548 -18 25 C-19.73582179 24.89055752 -21.47568915 24.84412344 -23.21484375 24.82421875 C-24.83422852 24.78844727 -24.83422852 24.78844727 -26.48632812 24.75195312 C-28.75177359 24.7096443 -31.01744948 24.67804335 -33.28320312 24.65820312 C-42.61431329 24.42120505 -49.48971209 22.63271593 -57 17 C-56.34 13.04 -55.68 9.08 -55 5 C-53.44925781 5.15855469 -51.89851562 5.31710938 -50.30078125 5.48046875 C-25.35827024 7.75835476 -25.35827024 7.75835476 -1.7734375 0.8046875 C-1.18820313 0.53914062 -0.60296875 0.27359375 0 0 Z " fill="#F0E2C5" transform="translate(188,227)"/>
<path d="M0 0 C1.06412109 -0.00386719 2.12824219 -0.00773437 3.22460938 -0.01171875 C4.89040039 0.00568359 4.89040039 0.00568359 6.58984375 0.0234375 C7.70423828 0.01183594 8.81863281 0.00023437 9.96679688 -0.01171875 C11.02962891 -0.00785156 12.09246094 -0.00398438 13.1875 0 C14.16340088 0.00338379 15.13930176 0.00676758 16.14477539 0.01025391 C16.93102295 0.13835449 17.71727051 0.26645508 18.52734375 0.3984375 C20.68236906 3.63097546 20.9959051 4.64994673 20.52734375 8.3984375 C19.34985352 10.03198242 19.34985352 10.03198242 17.52734375 11.3984375 C15.01538086 11.77075195 15.01538086 11.77075195 12.0546875 11.76171875 C10.99056641 11.76107422 9.92644531 11.76042969 8.83007812 11.75976562 C7.71955078 11.74365234 6.60902344 11.72753906 5.46484375 11.7109375 C3.79325195 11.71577148 3.79325195 11.71577148 2.08789062 11.72070312 C-6.20571486 11.66537889 -6.20571486 11.66537889 -8.47265625 9.3984375 C-9.0274258 4.18360377 -9.0274258 4.18360377 -7.29516602 1.73193359 C-4.79626147 -0.09646783 -3.07816168 0.01066074 0 0 Z " fill="#0A0302" transform="translate(200.47265625,323.6015625)"/>
<path d="M0 0 C1.06412109 -0.00386719 2.12824219 -0.00773437 3.22460938 -0.01171875 C4.89040039 0.00568359 4.89040039 0.00568359 6.58984375 0.0234375 C7.70423828 0.01183594 8.81863281 0.00023437 9.96679688 -0.01171875 C11.02962891 -0.00785156 12.09246094 -0.00398438 13.1875 0 C14.16340088 0.00338379 15.13930176 0.00676758 16.14477539 0.01025391 C16.93102295 0.13835449 17.71727051 0.26645508 18.52734375 0.3984375 C20.67928745 3.62635305 20.72820818 4.68244559 20.52734375 8.3984375 C19.53734375 8.8934375 19.53734375 8.8934375 18.52734375 9.3984375 C18.52734375 7.4184375 18.52734375 5.4384375 18.52734375 3.3984375 C14.92319395 3.36943295 11.31907413 3.35163732 7.71484375 3.3359375 C6.69068359 3.32755859 5.66652344 3.31917969 4.61132812 3.31054688 C3.62841797 3.30732422 2.64550781 3.30410156 1.6328125 3.30078125 C0.72684326 3.29554443 -0.17912598 3.29030762 -1.11254883 3.28491211 C-3.62549664 3.29922769 -3.62549664 3.29922769 -6.47265625 4.3984375 C-6.80265625 6.0484375 -7.13265625 7.6984375 -7.47265625 9.3984375 C-7.80265625 9.3984375 -8.13265625 9.3984375 -8.47265625 9.3984375 C-8.83781002 3.92113099 -8.83781002 3.92113099 -7.30297852 1.72412109 C-4.79774291 -0.09039529 -3.07591149 0.01065295 0 0 Z " fill="#451715" transform="translate(200.47265625,323.6015625)"/>
<path d="M0 0 C0.66 0.33 1.32 0.66 2 1 C-2.62 5.62 -7.24 10.24 -12 15 C-12.66 14.67 -13.32 14.34 -14 14 C-12.42100123 12.22513306 -10.83707231 10.45512408 -9.25 8.6875 C-8.8065625 8.18798828 -8.363125 7.68847656 -7.90625 7.17382812 C-5.453615 4.45068191 -3.02719984 2.07235877 0 0 Z " fill="#343434" transform="translate(62,264)"/>
<path d="M0 0 C1.32 0.66 2.64 1.32 4 2 C3.01 2.495 3.01 2.495 2 3 C1.53613375 4.95833313 1.53613375 4.95833313 1.25 7.25 C0.54573665 10.77695084 -0.20940067 12.7404391 -2.9375 15.125 C-3.948125 15.74375 -4.95875 16.3625 -6 17 C-6.99 16.67 -7.98 16.34 -9 16 C-8.05125 15.4225 -7.1025 14.845 -6.125 14.25 C-2.4853397 11.62944458 -1.38045902 10.32751399 -0.66796875 5.96875 C-0.40589449 3.98397426 -0.19920678 1.99206785 0 0 Z " fill="#FB918C" transform="translate(136,260)"/>
<path d="M0 0 C-2.64 1.65 -5.28 3.3 -8 5 C-8 4.01 -8 3.02 -8 2 C-7.34 2 -6.68 2 -6 2 C-6 1.34 -6 0.68 -6 0 C-3 -1 -3 -1 0 0 Z " fill="#250C0B" transform="translate(74,271)"/>
</svg>
